<svg width="305" height="100" viewBox="0 0 305 100" fill="none" xmlns="http://www.w3.org/2000/svg">
<rect width="305" height="100" rx="4" fill="white"/>
<path d="M99.1548 34.6378H102.102C102.06 32.0455 99.929 30.2557 96.6903 30.2557C93.5014 30.2557 91.1648 32.017 91.179 34.6591C91.1719 36.804 92.6847 38.0327 95.142 38.6222L96.7259 39.0199C98.3097 39.4034 99.1903 39.858 99.1974 40.8381C99.1903 41.9034 98.1818 42.6278 96.6193 42.6278C95.0213 42.6278 93.8707 41.8892 93.7713 40.4332H90.7955C90.8736 43.5795 93.125 45.206 96.6548 45.206C100.206 45.206 102.294 43.5085 102.301 40.8452C102.294 38.4233 100.469 37.1378 97.9403 36.5696L96.6335 36.2571C95.3693 35.9659 94.3111 35.4972 94.3324 34.4531C94.3324 33.5156 95.1634 32.8267 96.669 32.8267C98.1392 32.8267 99.0412 33.4943 99.1548 34.6378ZM104.313 45H107.338V34.0909H104.313V45ZM105.833 32.6847C106.735 32.6847 107.473 31.9957 107.473 31.1506C107.473 30.3125 106.735 29.6236 105.833 29.6236C104.938 29.6236 104.199 30.3125 104.199 31.1506C104.199 31.9957 104.938 32.6847 105.833 32.6847ZM109.762 45H112.788V41.5341L113.604 40.6037L116.58 45H120.124L115.87 38.8139L119.918 34.0909H116.445L112.951 38.2315H112.788V30.4545H109.762V45ZM125.925 45.2131C128.624 45.2131 130.442 43.8991 130.868 41.875L128.07 41.6903C127.765 42.5213 126.983 42.9545 125.975 42.9545C124.462 42.9545 123.503 41.9531 123.503 40.3267V40.3196H130.932V39.4886C130.932 35.7812 128.688 33.9489 125.804 33.9489C122.594 33.9489 120.513 36.2287 120.513 39.5952C120.513 43.054 122.566 45.2131 125.925 45.2131ZM123.503 38.4446C123.567 37.2017 124.512 36.2074 125.854 36.2074C127.168 36.2074 128.077 37.1449 128.084 38.4446H123.503ZM132.907 45H135.932V38.8281C135.932 37.4858 136.912 36.5625 138.248 36.5625C138.667 36.5625 139.242 36.6335 139.526 36.7259V34.0412C139.256 33.9773 138.88 33.9347 138.574 33.9347C137.353 33.9347 136.351 34.6449 135.953 35.9943H135.84V34.0909H132.907V45ZM145.554 45.2131C148.253 45.2131 150.071 43.8991 150.497 41.875L147.699 41.6903C147.393 42.5213 146.612 42.9545 145.604 42.9545C144.091 42.9545 143.132 41.9531 143.132 40.3267V40.3196H150.561V39.4886C150.561 35.7812 148.317 33.9489 145.433 33.9489C142.223 33.9489 140.142 36.2287 140.142 39.5952C140.142 43.054 142.195 45.2131 145.554 45.2131ZM143.132 38.4446C143.196 37.2017 144.141 36.2074 145.483 36.2074C146.797 36.2074 147.706 37.1449 147.713 38.4446H143.132ZM161.612 37.2017C161.342 35.1918 159.723 33.9489 156.967 33.9489C154.176 33.9489 152.337 35.2415 152.344 37.3438C152.337 38.9773 153.366 40.0355 155.497 40.4616L157.386 40.8381C158.338 41.0298 158.771 41.3778 158.786 41.9247C158.771 42.571 158.068 43.0327 157.01 43.0327C155.93 43.0327 155.213 42.571 155.028 41.6832L152.053 41.8395C152.337 43.9276 154.112 45.2131 157.003 45.2131C159.83 45.2131 161.854 43.7713 161.861 41.6193C161.854 40.0426 160.824 39.098 158.707 38.6648L156.733 38.267C155.717 38.0469 155.341 37.6989 155.348 37.1733C155.341 36.5199 156.08 36.0938 157.017 36.0938C158.068 36.0938 158.693 36.669 158.842 37.3722L161.612 37.2017ZM168.395 45H171.42V41.5341L172.237 40.6037L175.213 45H178.757L174.503 38.8139L178.551 34.0909H175.078L171.584 38.2315H171.42V30.4545H168.395V45ZM187.031 40.3551C187.038 41.8182 186.037 42.5852 184.95 42.5852C183.807 42.5852 183.068 41.7827 183.061 40.4972V34.0909H180.036V41.0369C180.043 43.5866 181.534 45.142 183.729 45.142C185.369 45.142 186.548 44.2969 187.038 43.0185H187.152V45H190.057V34.0909H187.031V40.3551ZM182.898 32.5994C183.722 32.5994 184.375 31.9389 184.375 31.1506C184.375 30.348 183.722 29.7088 182.898 29.7088C182.081 29.7088 181.406 30.348 181.406 31.1506C181.406 31.9389 182.081 32.5994 182.898 32.5994ZM187.244 32.5994C188.068 32.5994 188.722 31.9389 188.722 31.1506C188.722 30.348 188.068 29.7088 187.244 29.7088C186.428 29.7088 185.753 30.348 185.753 31.1506C185.753 31.9389 186.428 32.5994 187.244 32.5994ZM195.502 30.4545H192.477V45H195.502V30.4545ZM201.946 45.1776C203.707 45.1776 204.624 44.1619 205.043 43.2528H205.17V45H208.153V30.4545H205.135V35.9233H205.043C204.638 35.0355 203.764 33.9489 201.939 33.9489C199.545 33.9489 197.521 35.8097 197.521 39.5597C197.521 43.2102 199.46 45.1776 201.946 45.1776ZM202.905 42.7699C201.42 42.7699 200.611 41.4489 200.611 39.5455C200.611 37.6562 201.406 36.3565 202.905 36.3565C204.375 36.3565 205.199 37.5994 205.199 39.5455C205.199 41.4915 204.361 42.7699 202.905 42.7699ZM215.613 45.2131C218.311 45.2131 220.13 43.8991 220.556 41.875L217.757 41.6903C217.452 42.5213 216.671 42.9545 215.662 42.9545C214.15 42.9545 213.191 41.9531 213.191 40.3267V40.3196H220.62V39.4886C220.62 35.7812 218.375 33.9489 215.492 33.9489C212.282 33.9489 210.201 36.2287 210.201 39.5952C210.201 43.054 212.253 45.2131 215.613 45.2131ZM213.191 38.4446C213.255 37.2017 214.199 36.2074 215.542 36.2074C216.855 36.2074 217.765 37.1449 217.772 38.4446H213.191ZM214.334 32.6847H216.472L218.638 29.4531H215.84L214.334 32.6847ZM231.671 37.2017C231.401 35.1918 229.782 33.9489 227.026 33.9489C224.235 33.9489 222.395 35.2415 222.402 37.3438C222.395 38.9773 223.425 40.0355 225.556 40.4616L227.445 40.8381C228.397 41.0298 228.83 41.3778 228.844 41.9247C228.83 42.571 228.127 43.0327 227.069 43.0327C225.989 43.0327 225.272 42.571 225.087 41.6832L222.111 41.8395C222.395 43.9276 224.171 45.2131 227.061 45.2131C229.888 45.2131 231.912 43.7713 231.919 41.6193C231.912 40.0426 230.882 39.098 228.766 38.6648L226.792 38.267C225.776 38.0469 225.4 37.6989 225.407 37.1733C225.4 36.5199 226.138 36.0938 227.076 36.0938C228.127 36.0938 228.752 36.669 228.901 37.3722L231.671 37.2017ZM237.44 30.4545H234.279L234.563 40.6392H237.163L237.44 30.4545ZM235.863 45.1847C236.772 45.1847 237.56 44.4247 237.567 43.4801C237.56 42.5497 236.772 41.7898 235.863 41.7898C234.925 41.7898 234.151 42.5497 234.158 43.4801C234.151 44.4247 234.925 45.1847 235.863 45.1847Z" fill="#EC7623"/>
<path d="M90.8849 69H93.0376V64.794H97.4077V69H99.5554V58.8182H97.4077V63.0192H93.0376V58.8182H90.8849V69ZM103.468 69.1442C104.597 69.1442 105.327 68.652 105.7 67.9411H105.76V69H107.768V63.8494C107.768 62.0298 106.227 61.2642 104.527 61.2642C102.697 61.2642 101.494 62.1392 101.201 63.5312L103.16 63.6903C103.304 63.1832 103.756 62.8104 104.517 62.8104C105.238 62.8104 105.651 63.1733 105.651 63.7997V63.8295C105.651 64.3217 105.129 64.3864 103.801 64.5156C102.29 64.6548 100.933 65.1619 100.933 66.8672C100.933 68.3786 102.011 69.1442 103.468 69.1442ZM104.075 67.6825C103.423 67.6825 102.956 67.3793 102.956 66.7976C102.956 66.201 103.448 65.9077 104.194 65.8033C104.656 65.7386 105.412 65.6293 105.665 65.4602V66.2706C105.665 67.071 105.004 67.6825 104.075 67.6825ZM109.412 69H111.529V64.4162C111.529 63.571 112.066 63.0092 112.772 63.0092C113.468 63.0092 113.936 63.4865 113.936 64.2372V69H115.989V64.3366C115.989 63.5462 116.441 63.0092 117.212 63.0092C117.888 63.0092 118.395 63.4318 118.395 64.282V69H120.508V63.8643C120.508 62.2088 119.524 61.2642 118.102 61.2642C116.983 61.2642 116.113 61.8359 115.8 62.7109H115.721C115.477 61.826 114.696 61.2642 113.647 61.2642C112.618 61.2642 111.838 61.8111 111.52 62.7109H111.43V61.3636H109.412V69ZM124.359 69.1442C125.487 69.1442 126.218 68.652 126.591 67.9411H126.651V69H128.659V63.8494C128.659 62.0298 127.118 61.2642 125.418 61.2642C123.588 61.2642 122.385 62.1392 122.092 63.5312L124.05 63.6903C124.195 63.1832 124.647 62.8104 125.408 62.8104C126.129 62.8104 126.541 63.1733 126.541 63.7997V63.8295C126.541 64.3217 126.019 64.3864 124.692 64.5156C123.18 64.6548 121.823 65.1619 121.823 66.8672C121.823 68.3786 122.902 69.1442 124.359 69.1442ZM124.965 67.6825C124.314 67.6825 123.847 67.3793 123.847 66.7976C123.847 66.201 124.339 65.9077 125.085 65.8033C125.547 65.7386 126.303 65.6293 126.556 65.4602V66.2706C126.556 67.071 125.895 67.6825 124.965 67.6825ZM130.302 69H132.42V64.6797C132.42 63.7401 133.106 63.0938 134.041 63.0938C134.334 63.0938 134.737 63.1435 134.936 63.2081V61.3288C134.747 61.2841 134.483 61.2543 134.27 61.2543C133.414 61.2543 132.713 61.7514 132.435 62.696H132.355V61.3636H130.302V69ZM139.126 69.1491C141.442 69.1491 142.884 67.5632 142.884 65.2116C142.884 62.8452 141.442 61.2642 139.126 61.2642C136.809 61.2642 135.367 62.8452 135.367 65.2116C135.367 67.5632 136.809 69.1491 139.126 69.1491ZM139.135 67.5085C138.067 67.5085 137.52 66.5291 137.52 65.1967C137.52 63.8643 138.067 62.88 139.135 62.88C140.184 62.88 140.731 63.8643 140.731 65.1967C140.731 66.5291 140.184 67.5085 139.135 67.5085ZM150.615 63.5412C150.426 62.1342 149.292 61.2642 147.363 61.2642C145.41 61.2642 144.122 62.169 144.127 63.6406C144.122 64.7841 144.843 65.5249 146.334 65.8232L147.657 66.0866C148.323 66.2209 148.626 66.4645 148.636 66.8473C148.626 67.2997 148.134 67.6229 147.393 67.6229C146.638 67.6229 146.135 67.2997 146.006 66.6783L143.923 66.7876C144.122 68.2493 145.365 69.1491 147.388 69.1491C149.367 69.1491 150.784 68.1399 150.789 66.6335C150.784 65.5298 150.063 64.8686 148.581 64.5653L147.199 64.2869C146.488 64.1328 146.225 63.8892 146.23 63.5213C146.225 63.0639 146.742 62.7656 147.398 62.7656C148.134 62.7656 148.572 63.1683 148.676 63.6605L150.615 63.5412ZM154.3 69.1442C155.429 69.1442 156.159 68.652 156.532 67.9411H156.592V69H158.6V63.8494C158.6 62.0298 157.059 61.2642 155.359 61.2642C153.529 61.2642 152.326 62.1392 152.033 63.5312L153.992 63.6903C154.136 63.1832 154.588 62.8104 155.349 62.8104C156.07 62.8104 156.483 63.1733 156.483 63.7997V63.8295C156.483 64.3217 155.961 64.3864 154.633 64.5156C153.122 64.6548 151.765 65.1619 151.765 66.8672C151.765 68.3786 152.843 69.1442 154.3 69.1442ZM154.907 67.6825C154.255 67.6825 153.788 67.3793 153.788 66.7976C153.788 66.201 154.28 65.9077 155.026 65.8033C155.488 65.7386 156.244 65.6293 156.498 65.4602V66.2706C156.498 67.071 155.836 67.6825 154.907 67.6825ZM162.362 64.5852C162.366 63.6009 162.953 63.0241 163.808 63.0241C164.658 63.0241 165.17 63.581 165.165 64.5156V69H167.283V64.1378C167.283 62.358 166.239 61.2642 164.648 61.2642C163.515 61.2642 162.695 61.821 162.352 62.7109H162.262V61.3636H160.244V69H162.362V64.5852ZM172.193 69H174.311V66.5739L174.882 65.9226L176.966 69H179.446L176.468 64.6697L179.302 61.3636H176.871L174.425 64.2621H174.311V58.8182H172.193V69ZM183.507 69.1491C185.396 69.1491 186.669 68.2294 186.967 66.8125L185.008 66.6832C184.795 67.2649 184.248 67.5682 183.542 67.5682C182.483 67.5682 181.812 66.8672 181.812 65.7287V65.7237H187.012V65.142C187.012 62.5469 185.441 61.2642 183.422 61.2642C181.175 61.2642 179.719 62.8601 179.719 65.2166C179.719 67.6378 181.155 69.1491 183.507 69.1491ZM181.812 64.4112C181.856 63.5412 182.518 62.8452 183.457 62.8452C184.377 62.8452 185.013 63.5014 185.018 64.4112H181.812ZM188.394 69H190.512V64.6797C190.512 63.7401 191.198 63.0938 192.133 63.0938C192.426 63.0938 192.829 63.1435 193.028 63.2081V61.3288C192.839 61.2841 192.575 61.2543 192.361 61.2543C191.506 61.2543 190.805 61.7514 190.527 62.696H190.447V61.3636H188.394V69ZM197.247 69.1491C199.136 69.1491 200.409 68.2294 200.707 66.8125L198.749 66.6832C198.535 67.2649 197.988 67.5682 197.282 67.5682C196.223 67.5682 195.552 66.8672 195.552 65.7287V65.7237H200.752V65.142C200.752 62.5469 199.181 61.2642 197.163 61.2642C194.915 61.2642 193.459 62.8601 193.459 65.2166C193.459 67.6378 194.896 69.1491 197.247 69.1491ZM195.552 64.4112C195.597 63.5412 196.258 62.8452 197.197 62.8452C198.117 62.8452 198.754 63.5014 198.759 64.4112H195.552ZM208.488 63.5412C208.299 62.1342 207.165 61.2642 205.237 61.2642C203.283 61.2642 201.995 62.169 202 63.6406C201.995 64.7841 202.716 65.5249 204.207 65.8232L205.53 66.0866C206.196 66.2209 206.499 66.4645 206.509 66.8473C206.499 67.2997 206.007 67.6229 205.266 67.6229C204.511 67.6229 204.009 67.2997 203.879 66.6783L201.796 66.7876C201.995 68.2493 203.238 69.1491 205.261 69.1491C207.24 69.1491 208.657 68.1399 208.662 66.6335C208.657 65.5298 207.936 64.8686 206.455 64.5653L205.072 64.2869C204.362 64.1328 204.098 63.8892 204.103 63.5213C204.098 63.0639 204.615 62.7656 205.271 62.7656C206.007 62.7656 206.445 63.1683 206.549 63.6605L208.488 63.5412ZM216.349 63.5412C216.16 62.1342 215.027 61.2642 213.098 61.2642C211.144 61.2642 209.856 62.169 209.861 63.6406C209.856 64.7841 210.577 65.5249 212.069 65.8232L213.391 66.0866C214.057 66.2209 214.361 66.4645 214.371 66.8473C214.361 67.2997 213.868 67.6229 213.128 67.6229C212.372 67.6229 211.87 67.2997 211.741 66.6783L209.657 66.7876C209.856 68.2493 211.099 69.1491 213.123 69.1491C215.101 69.1491 216.518 68.1399 216.523 66.6335C216.518 65.5298 215.797 64.8686 214.316 64.5653L212.934 64.2869C212.223 64.1328 211.959 63.8892 211.964 63.5213C211.959 63.0639 212.476 62.7656 213.133 62.7656C213.868 62.7656 214.306 63.1683 214.41 63.6605L216.349 63.5412ZM222.754 65.7486C222.759 66.7727 222.058 67.3097 221.297 67.3097C220.497 67.3097 219.98 66.7479 219.975 65.848V61.3636H217.857V66.2259C217.862 68.0107 218.906 69.0994 220.442 69.0994C221.591 69.0994 222.416 68.5078 222.759 67.6129H222.838V69H224.872V61.3636H222.754V65.7486ZM219.86 60.3196C220.437 60.3196 220.895 59.8572 220.895 59.3054C220.895 58.7436 220.437 58.2962 219.86 58.2962C219.289 58.2962 218.816 58.7436 218.816 59.3054C218.816 59.8572 219.289 60.3196 219.86 60.3196ZM222.903 60.3196C223.48 60.3196 223.937 59.8572 223.937 59.3054C223.937 58.7436 223.48 58.2962 222.903 58.2962C222.331 58.2962 221.859 58.7436 221.859 59.3054C221.859 59.8572 222.331 60.3196 222.903 60.3196ZM226.566 69H228.684V66.5739L229.256 65.9226L231.339 69H233.819L230.841 64.6697L233.675 61.3636H231.244L228.798 64.2621H228.684V58.8182H226.566V69ZM247.351 63.9091C247.351 60.5781 245.283 58.679 242.583 58.679C239.869 58.679 237.815 60.5781 237.815 63.9091C237.815 67.2251 239.869 69.1392 242.583 69.1392C245.283 69.1392 247.351 67.2401 247.351 63.9091ZM245.168 63.9091C245.168 66.0668 244.144 67.2351 242.583 67.2351C241.017 67.2351 239.998 66.0668 239.998 63.9091C239.998 61.7514 241.017 60.5831 242.583 60.5831C244.144 60.5831 245.168 61.7514 245.168 63.9091ZM241.067 57.7741C241.643 57.7741 242.101 57.3118 242.101 56.7599C242.101 56.1982 241.643 55.7507 241.067 55.7507C240.495 55.7507 240.023 56.1982 240.023 56.7599C240.023 57.3118 240.495 57.7741 241.067 57.7741ZM244.109 57.7741C244.686 57.7741 245.143 57.3118 245.143 56.7599C245.143 56.1982 244.686 55.7507 244.109 55.7507C243.538 55.7507 243.065 56.1982 243.065 56.7599C243.065 57.3118 243.538 57.7741 244.109 57.7741ZM251.024 64.5852C251.029 63.6009 251.615 63.0241 252.47 63.0241C253.32 63.0241 253.833 63.581 253.828 64.5156V69H255.945V64.1378C255.945 62.358 254.901 61.2642 253.311 61.2642C252.177 61.2642 251.357 61.821 251.014 62.7109H250.924V61.3636H248.906V69H251.024V64.5852ZM261.676 61.3636H260.24V59.5341H258.122V61.3636H257.078V62.9545H258.122V66.9318C258.112 68.4283 259.131 69.169 260.667 69.1044C261.214 69.0845 261.602 68.9751 261.816 68.9055L261.483 67.3295C261.378 67.3494 261.154 67.3991 260.956 67.3991C260.533 67.3991 260.24 67.2401 260.24 66.6534V62.9545H261.676V61.3636ZM265.587 58.8182H263.374L263.573 65.9474H265.393L265.587 58.8182ZM264.483 69.1293C265.119 69.1293 265.671 68.5973 265.676 67.9361C265.671 67.2848 265.119 66.7528 264.483 66.7528C263.827 66.7528 263.285 67.2848 263.29 67.9361C263.285 68.5973 263.827 69.1293 264.483 69.1293Z" fill="#211061"/>
<path d="M0 4C0 1.79086 1.79086 0 4 0H5V100H4C1.79086 100 0 98.2091 0 96V4Z" fill="#EC7623"/>
<path d="M57.8409 43.6539C58.4513 44.2642 58.4513 45.2536 57.8409 45.8636L47.3588 56.3461C46.7484 56.9562 45.7593 56.9562 45.149 56.3461L40.1591 51.3559C39.5487 50.7458 39.5487 49.7565 40.1591 49.1464C40.7691 48.5361 41.7585 48.5361 42.3685 49.1464L46.2537 53.0316L55.6312 43.6539C56.2415 43.0438 57.2309 43.0438 57.8409 43.6539V43.6539ZM69 50C69 61.055 60.0535 70 49 70C37.945 70 29 61.0535 29 50C29 38.945 37.9465 30 49 30C60.055 30 69 38.9465 69 50ZM65.875 50C65.875 40.6723 58.3265 33.125 49 33.125C39.6723 33.125 32.125 40.6735 32.125 50C32.125 59.3277 39.6735 66.875 49 66.875C58.3277 66.875 65.875 59.3265 65.875 50Z" fill="#EC7623"/>
</svg>
