<svg width="40" height="40" viewBox="0 0 40 40" fill="none" xmlns="http://www.w3.org/2000/svg">
<path d="M26.641 15.6691L15.6692 26.641C15.1907 27.1195 14.4149 27.1195 13.9371 26.641L13.3589 26.0636C12.8804 25.585 12.8804 24.8092 13.3589 24.3314L24.3307 13.3596C24.8094 12.881 25.5852 12.881 26.0629 13.3596L26.6403 13.9369C27.1197 14.4147 27.1197 15.1906 26.641 15.6691V15.6691Z" fill="#211061"/>
<path d="M24.3307 26.6403L13.3589 15.6685C12.8804 15.1899 12.8804 14.414 13.3589 13.9362L13.9362 13.3589C14.4149 12.8804 15.1907 12.8804 15.6684 13.3589L26.641 24.33C27.1196 24.8085 27.1196 25.5843 26.641 26.0621L26.0636 26.6394C25.5851 27.1188 24.8093 27.1188 24.3307 26.6403V26.6403Z" fill="#211061"/>
</svg>
