<svg width="480" height="512" viewBox="0 0 480 512" fill="none" xmlns="http://www.w3.org/2000/svg">
<path d="M4.271 112.971L236.739 0.745012C238.8 -0.248988 241.2 -0.248988 243.26 0.745012L475.729 112.971C478.321 114.222 479.968 116.847 479.968 119.725V392.274C479.968 395.152 478.321 397.777 475.729 399.028L243.261 511.254C242.231 511.751 241.115 512 240 512C238.885 512 237.77 511.751 236.739 511.254L4.271 399.028C1.679 397.777 0.0320129 395.152 0.0320129 392.274V119.726C0.0320129 116.846 1.68 114.223 4.271 112.971ZM240 15.828L24.783 119.725L87.17 149.843C87.565 149.542 87.982 149.264 88.44 149.043L302.195 45.853L240 15.828ZM319.133 54.333L104.229 158.079L148.244 179.328L363.059 75.624L319.133 54.333ZM99.201 172.307V250.853L140.314 270.701V192.155L99.201 172.307ZM15.032 387.568L232.5 492.55V236.658L180.627 211.616C176.897 209.815 175.333 205.332 177.134 201.601C178.935 197.872 183.418 196.306 187.149 198.108L240 223.623L260.796 213.583C264.527 211.78 269.01 213.346 270.811 217.076C272.612 220.806 271.048 225.29 267.318 227.091L247.5 236.658V492.55L464.968 387.566V131.674L299.368 211.619C298.317 212.127 297.206 212.367 296.113 212.367C293.325 212.367 290.647 210.805 289.354 208.126C287.553 204.396 289.117 199.912 292.847 198.111L455.217 119.725L380.712 83.757L155.418 192.52C155.385 192.566 155.348 192.607 155.314 192.652V282.651C155.314 285.232 153.987 287.631 151.801 289.004C150.587 289.766 149.202 290.151 147.813 290.151C146.701 290.151 145.586 289.904 144.553 289.405L88.44 262.316C85.848 261.065 84.201 258.441 84.201 255.562V165.067L15.032 131.675V387.568V387.568Z" fill="#EC7623"/>
</svg>
