<svg width="305" height="100" viewBox="0 0 305 100" fill="none" xmlns="http://www.w3.org/2000/svg">
<rect width="305" height="100" rx="4" fill="white"/>
<path d="M99.1548 34.6378H102.102C102.06 32.0455 99.929 30.2557 96.6903 30.2557C93.5014 30.2557 91.1648 32.017 91.179 34.6591C91.1719 36.804 92.6847 38.0327 95.142 38.6222L96.7259 39.0199C98.3097 39.4034 99.1903 39.858 99.1974 40.8381C99.1903 41.9034 98.1818 42.6278 96.6193 42.6278C95.0213 42.6278 93.8707 41.8892 93.7713 40.4332H90.7955C90.8736 43.5795 93.125 45.206 96.6548 45.206C100.206 45.206 102.294 43.5085 102.301 40.8452C102.294 38.4233 100.469 37.1378 97.9403 36.5696L96.6335 36.2571C95.3693 35.9659 94.3111 35.4972 94.3324 34.4531C94.3324 33.5156 95.1634 32.8267 96.669 32.8267C98.1392 32.8267 99.0412 33.4943 99.1548 34.6378ZM104.313 45H107.338V34.0909H104.313V45ZM105.833 32.6847C106.735 32.6847 107.473 31.9957 107.473 31.1506C107.473 30.3125 106.735 29.6236 105.833 29.6236C104.938 29.6236 104.199 30.3125 104.199 31.1506C104.199 31.9957 104.938 32.6847 105.833 32.6847ZM109.762 45H112.788V41.5341L113.604 40.6037L116.58 45H120.124L115.87 38.8139L119.918 34.0909H116.445L112.951 38.2315H112.788V30.4545H109.762V45ZM125.925 45.2131C128.624 45.2131 130.442 43.8991 130.868 41.875L128.07 41.6903C127.765 42.5213 126.983 42.9545 125.975 42.9545C124.462 42.9545 123.503 41.9531 123.503 40.3267V40.3196H130.932V39.4886C130.932 35.7812 128.688 33.9489 125.804 33.9489C122.594 33.9489 120.513 36.2287 120.513 39.5952C120.513 43.054 122.566 45.2131 125.925 45.2131ZM123.503 38.4446C123.567 37.2017 124.512 36.2074 125.854 36.2074C127.168 36.2074 128.077 37.1449 128.084 38.4446H123.503ZM132.907 45H135.932V38.8281C135.932 37.4858 136.912 36.5625 138.248 36.5625C138.667 36.5625 139.242 36.6335 139.526 36.7259V34.0412C139.256 33.9773 138.88 33.9347 138.574 33.9347C137.353 33.9347 136.351 34.6449 135.953 35.9943H135.84V34.0909H132.907V45ZM145.554 45.2131C148.253 45.2131 150.071 43.8991 150.497 41.875L147.699 41.6903C147.393 42.5213 146.612 42.9545 145.604 42.9545C144.091 42.9545 143.132 41.9531 143.132 40.3267V40.3196H150.561V39.4886C150.561 35.7812 148.317 33.9489 145.433 33.9489C142.223 33.9489 140.142 36.2287 140.142 39.5952C140.142 43.054 142.195 45.2131 145.554 45.2131ZM143.132 38.4446C143.196 37.2017 144.141 36.2074 145.483 36.2074C146.797 36.2074 147.706 37.1449 147.713 38.4446H143.132ZM161.612 37.2017C161.342 35.1918 159.723 33.9489 156.967 33.9489C154.176 33.9489 152.337 35.2415 152.344 37.3438C152.337 38.9773 153.366 40.0355 155.497 40.4616L157.386 40.8381C158.338 41.0298 158.771 41.3778 158.786 41.9247C158.771 42.571 158.068 43.0327 157.01 43.0327C155.93 43.0327 155.213 42.571 155.028 41.6832L152.053 41.8395C152.337 43.9276 154.112 45.2131 157.003 45.2131C159.83 45.2131 161.854 43.7713 161.861 41.6193C161.854 40.0426 160.824 39.098 158.707 38.6648L156.733 38.267C155.717 38.0469 155.341 37.6989 155.348 37.1733C155.341 36.5199 156.08 36.0938 157.017 36.0938C158.068 36.0938 158.693 36.669 158.842 37.3722L161.612 37.2017ZM178.565 34.0909H175.362L173.104 41.8963H172.99L170.724 34.0909H167.528L171.342 45H174.751L178.565 34.0909ZM182.912 45.206C184.524 45.206 185.568 44.5028 186.101 43.4872H186.186V45H189.055V37.642C189.055 35.0426 186.854 33.9489 184.425 33.9489C181.811 33.9489 180.092 35.1989 179.673 37.1875L182.472 37.4148C182.678 36.6903 183.324 36.1577 184.411 36.1577C185.44 36.1577 186.03 36.6761 186.03 37.571V37.6136C186.03 38.3168 185.284 38.4091 183.388 38.5938C181.229 38.7926 179.29 39.517 179.29 41.9531C179.29 44.1122 180.831 45.206 182.912 45.206ZM183.778 43.1179C182.848 43.1179 182.18 42.6847 182.18 41.8537C182.18 41.0014 182.884 40.5824 183.949 40.4332C184.609 40.3409 185.689 40.1847 186.051 39.9432V41.1009C186.051 42.2443 185.107 43.1179 183.778 43.1179ZM183.452 32.6847H185.589L187.756 29.4531H184.957L183.452 32.6847ZM200.479 37.2017C200.21 35.1918 198.59 33.9489 195.835 33.9489C193.043 33.9489 191.204 35.2415 191.211 37.3438C191.204 38.9773 192.234 40.0355 194.364 40.4616L196.254 40.8381C197.205 41.0298 197.638 41.3778 197.653 41.9247C197.638 42.571 196.935 43.0327 195.877 43.0327C194.798 43.0327 194.08 42.571 193.896 41.6832L190.92 41.8395C191.204 43.9276 192.979 45.2131 195.87 45.2131C198.697 45.2131 200.721 43.7713 200.728 41.6193C200.721 40.0426 199.691 39.098 197.575 38.6648L195.6 38.267C194.585 38.0469 194.208 37.6989 194.215 37.1733C194.208 36.5199 194.947 36.0938 195.884 36.0938C196.935 36.0938 197.56 36.669 197.71 37.3722L200.479 37.2017ZM205.744 45.206C207.356 45.206 208.4 44.5028 208.933 43.4872H209.018V45H211.887V37.642C211.887 35.0426 209.686 33.9489 207.257 33.9489C204.643 33.9489 202.924 35.1989 202.505 37.1875L205.304 37.4148C205.51 36.6903 206.156 36.1577 207.243 36.1577C208.272 36.1577 208.862 36.6761 208.862 37.571V37.6136C208.862 38.3168 208.116 38.4091 206.22 38.5938C204.061 38.7926 202.122 39.517 202.122 41.9531C202.122 44.1122 203.663 45.206 205.744 45.206ZM206.61 43.1179C205.68 43.1179 205.012 42.6847 205.012 41.8537C205.012 41.0014 205.716 40.5824 206.781 40.4332C207.441 40.3409 208.521 40.1847 208.883 39.9432V41.1009C208.883 42.2443 207.939 43.1179 206.61 43.1179ZM206.284 32.6847H208.422L210.588 29.4531H207.789L206.284 32.6847ZM214.235 45H217.26V38.8281C217.26 37.4858 218.24 36.5625 219.576 36.5625C219.995 36.5625 220.57 36.6335 220.854 36.7259V34.0412C220.584 33.9773 220.208 33.9347 219.902 33.9347C218.681 33.9347 217.679 34.6449 217.282 35.9943H217.168V34.0909H214.235V45ZM225.444 30.4545H222.418V45H225.444V30.4545ZM230.978 45.206C232.591 45.206 233.635 44.5028 234.167 43.4872H234.252V45H237.122V37.642C237.122 35.0426 234.92 33.9489 232.491 33.9489C229.877 33.9489 228.159 35.1989 227.74 37.1875L230.538 37.4148C230.744 36.6903 231.39 36.1577 232.477 36.1577C233.507 36.1577 234.096 36.6761 234.096 37.571V37.6136C234.096 38.3168 233.35 38.4091 231.454 38.5938C229.295 38.7926 227.356 39.517 227.356 41.9531C227.356 44.1122 228.897 45.206 230.978 45.206ZM231.845 43.1179C230.914 43.1179 230.247 42.6847 230.247 41.8537C230.247 41.0014 230.95 40.5824 232.015 40.4332C232.676 40.3409 233.755 40.1847 234.118 39.9432V41.1009C234.118 42.2443 233.173 43.1179 231.845 43.1179ZM231.518 32.6847H233.656L235.822 29.4531H233.024L231.518 32.6847ZM248.546 37.2017C248.276 35.1918 246.657 33.9489 243.901 33.9489C241.11 33.9489 239.27 35.2415 239.277 37.3438C239.27 38.9773 240.3 40.0355 242.431 40.4616L244.32 40.8381C245.272 41.0298 245.705 41.3778 245.719 41.9247C245.705 42.571 245.002 43.0327 243.944 43.0327C242.864 43.0327 242.147 42.571 241.962 41.6832L238.986 41.8395C239.27 43.9276 241.046 45.2131 243.936 45.2131C246.763 45.2131 248.787 43.7713 248.794 41.6193C248.787 40.0426 247.757 39.098 245.641 38.6648L243.667 38.267C242.651 38.0469 242.275 37.6989 242.282 37.1733C242.275 36.5199 243.013 36.0938 243.951 36.0938C245.002 36.0938 245.627 36.669 245.776 37.3722L248.546 37.2017ZM254.315 30.4545H251.154L251.438 40.6392H254.038L254.315 30.4545ZM252.738 45.1847C253.647 45.1847 254.435 44.4247 254.442 43.4801C254.435 42.5497 253.647 41.7898 252.738 41.7898C251.8 41.7898 251.026 42.5497 251.033 43.4801C251.026 44.4247 251.8 45.1847 252.738 45.1847Z" fill="#EC7623"/>
<path d="M90.8849 69H93.0376V65.3906H94.6087L96.5376 69H98.9141L96.7514 65.0426C97.9098 64.5455 98.5511 63.5362 98.5511 62.1442C98.5511 60.1207 97.2138 58.8182 94.902 58.8182H90.8849V69ZM93.0376 63.6605V60.5781H94.4893C95.7322 60.5781 96.3338 61.13 96.3338 62.1442C96.3338 63.1534 95.7322 63.6605 94.4993 63.6605H93.0376ZM103.39 69.1491C105.279 69.1491 106.552 68.2294 106.85 66.8125L104.891 66.6832C104.677 67.2649 104.131 67.5682 103.425 67.5682C102.366 67.5682 101.694 66.8672 101.694 65.7287V65.7237H106.895V65.142C106.895 62.5469 105.324 61.2642 103.305 61.2642C101.058 61.2642 99.6014 62.8601 99.6014 65.2166C99.6014 67.6378 101.038 69.1491 103.39 69.1491ZM101.694 64.4112C101.739 63.5412 102.4 62.8452 103.34 62.8452C104.26 62.8452 104.896 63.5014 104.901 64.4112H101.694ZM110.395 64.5852C110.4 63.6009 110.986 63.0241 111.841 63.0241C112.692 63.0241 113.204 63.581 113.199 64.5156V69H115.317V64.1378C115.317 62.358 114.273 61.2642 112.682 61.2642C111.548 61.2642 110.728 61.821 110.385 62.7109H110.295V61.3636H108.277V69H110.395V64.5852ZM119.8 69.1243C121.033 69.1243 121.674 68.4134 121.967 67.777H122.057V69H124.145V58.8182H122.032V62.6463H121.967C121.684 62.0249 121.072 61.2642 119.795 61.2642C118.119 61.2642 116.702 62.5668 116.702 65.1918C116.702 67.7472 118.06 69.1243 119.8 69.1243ZM120.471 67.4389C119.432 67.4389 118.865 66.5142 118.865 65.1818C118.865 63.8594 119.422 62.9496 120.471 62.9496C121.5 62.9496 122.077 63.8196 122.077 65.1818C122.077 66.544 121.49 67.4389 120.471 67.4389ZM129.366 69.1491C131.256 69.1491 132.528 68.2294 132.827 66.8125L130.868 66.6832C130.654 67.2649 130.107 67.5682 129.401 67.5682C128.342 67.5682 127.671 66.8672 127.671 65.7287V65.7237H132.871V65.142C132.871 62.5469 131.3 61.2642 129.282 61.2642C127.035 61.2642 125.578 62.8601 125.578 65.2166C125.578 67.6378 127.015 69.1491 129.366 69.1491ZM127.671 64.4112C127.716 63.5412 128.377 62.8452 129.317 62.8452C130.236 62.8452 130.873 63.5014 130.878 64.4112H127.671ZM136.371 58.8182H134.253V69H136.371V58.8182ZM141.548 69.1491C143.437 69.1491 144.71 68.2294 145.008 66.8125L143.049 66.6832C142.836 67.2649 142.289 67.5682 141.583 67.5682C140.524 67.5682 139.853 66.8672 139.853 65.7287V65.7237H145.053V65.142C145.053 62.5469 143.482 61.2642 141.463 61.2642C139.216 61.2642 137.76 62.8601 137.76 65.2166C137.76 67.6378 139.196 69.1491 141.548 69.1491ZM139.853 64.4112C139.897 63.5412 140.559 62.8452 141.498 62.8452C142.418 62.8452 143.054 63.5014 143.059 64.4112H139.853ZM140.653 60.3793H142.15L143.666 58.1172H141.707L140.653 60.3793ZM152.789 63.5412C152.6 62.1342 151.466 61.2642 149.537 61.2642C147.583 61.2642 146.296 62.169 146.301 63.6406C146.296 64.7841 147.017 65.5249 148.508 65.8232L149.831 66.0866C150.497 66.2209 150.8 66.4645 150.81 66.8473C150.8 67.2997 150.308 67.6229 149.567 67.6229C148.811 67.6229 148.309 67.2997 148.18 66.6783L146.097 66.7876C146.296 68.2493 147.539 69.1491 149.562 69.1491C151.541 69.1491 152.958 68.1399 152.963 66.6335C152.958 65.5298 152.237 64.8686 150.755 64.5653L149.373 64.2869C148.662 64.1328 148.399 63.8892 148.404 63.5213C148.399 63.0639 148.916 62.7656 149.572 62.7656C150.308 62.7656 150.745 63.1683 150.85 63.6605L152.789 63.5412ZM157.776 69.1491C159.666 69.1491 160.938 68.2294 161.237 66.8125L159.278 66.6832C159.064 67.2649 158.517 67.5682 157.811 67.5682C156.752 67.5682 156.081 66.8672 156.081 65.7287V65.7237H161.281V65.142C161.281 62.5469 159.71 61.2642 157.692 61.2642C155.445 61.2642 153.988 62.8601 153.988 65.2166C153.988 67.6378 155.425 69.1491 157.776 69.1491ZM156.081 64.4112C156.126 63.5412 156.787 62.8452 157.727 62.8452C158.646 62.8452 159.283 63.5014 159.288 64.4112H156.081ZM156.882 60.3793H158.378L159.894 58.1172H157.936L156.882 60.3793ZM166.725 61.3636H165.289V59.5341H163.171V61.3636H162.127V62.9545H163.171V66.9318C163.161 68.4283 164.18 69.169 165.716 69.1044C166.263 69.0845 166.651 68.9751 166.865 68.9055L166.531 67.3295C166.427 67.3494 166.203 67.3991 166.004 67.3991C165.582 67.3991 165.289 67.2401 165.289 66.6534V62.9545H166.725V61.3636ZM175.452 61.3636H173.935V60.8516C173.935 60.3345 174.144 60.0312 174.766 60.0312C175.019 60.0312 175.278 60.0859 175.447 60.1406L175.82 58.5497C175.556 58.4702 174.974 58.3409 174.323 58.3409C172.886 58.3409 171.817 59.1513 171.817 60.8118V61.3636H170.739V62.9545H171.817V69H173.935V62.9545H175.452V61.3636ZM179.952 69.1491C181.841 69.1491 183.114 68.2294 183.412 66.8125L181.454 66.6832C181.24 67.2649 180.693 67.5682 179.987 67.5682C178.928 67.5682 178.257 66.8672 178.257 65.7287V65.7237H183.457V65.142C183.457 62.5469 181.886 61.2642 179.868 61.2642C177.621 61.2642 176.164 62.8601 176.164 65.2166C176.164 67.6378 177.601 69.1491 179.952 69.1491ZM178.257 64.4112C178.302 63.5412 178.963 62.8452 179.903 62.8452C180.822 62.8452 181.459 63.5014 181.464 64.4112H178.257ZM186.957 58.8182H184.839V69H186.957V58.8182ZM191.468 69.1243C192.701 69.1243 193.342 68.4134 193.635 67.777H193.725V69H195.813V58.8182H193.7V62.6463H193.635C193.352 62.0249 192.74 61.2642 191.463 61.2642C189.787 61.2642 188.37 62.5668 188.37 65.1918C188.37 67.7472 189.728 69.1243 191.468 69.1243ZM192.139 67.4389C191.1 67.4389 190.533 66.5142 190.533 65.1818C190.533 63.8594 191.09 62.9496 192.139 62.9496C193.168 62.9496 193.745 63.8196 193.745 65.1818C193.745 66.544 193.158 67.4389 192.139 67.4389ZM201.004 69.1491C203.321 69.1491 204.763 67.5632 204.763 65.2116C204.763 62.8452 203.321 61.2642 201.004 61.2642C198.688 61.2642 197.246 62.8452 197.246 65.2116C197.246 67.5632 198.688 69.1491 201.004 69.1491ZM201.014 67.5085C199.945 67.5085 199.399 66.5291 199.399 65.1967C199.399 63.8643 199.945 62.88 201.014 62.88C202.063 62.88 202.61 63.8643 202.61 65.1967C202.61 66.5291 202.063 67.5085 201.014 67.5085ZM208.258 58.8182H206.14V69H208.258V58.8182ZM213.395 72.0227C215.577 72.0227 217.129 71.0284 217.129 69.0746V61.3636H215.026V62.6463H214.946C214.663 62.0249 214.041 61.2642 212.763 61.2642C211.088 61.2642 209.671 62.5668 209.671 65.1669C209.671 67.7074 211.048 68.8906 212.768 68.8906C213.987 68.8906 214.668 68.2791 214.946 67.6477H215.036V69.0447C215.036 70.0938 214.364 70.5014 213.445 70.5014C212.51 70.5014 212.038 70.0938 211.864 69.6314L209.905 69.8949C210.158 71.098 211.337 72.0227 213.395 72.0227ZM213.44 67.2997C212.401 67.2997 211.834 66.4744 211.834 65.157C211.834 63.8594 212.391 62.9496 213.44 62.9496C214.469 62.9496 215.045 63.8196 215.045 65.157C215.045 66.5043 214.459 67.2997 213.44 67.2997ZM222.264 69.1491C224.581 69.1491 226.023 67.5632 226.023 65.2116C226.023 62.8452 224.581 61.2642 222.264 61.2642C219.947 61.2642 218.506 62.8452 218.506 65.2116C218.506 67.5632 219.947 69.1491 222.264 69.1491ZM222.274 67.5085C221.205 67.5085 220.658 66.5291 220.658 65.1967C220.658 63.8643 221.205 62.88 222.274 62.88C223.323 62.88 223.87 63.8643 223.87 65.1967C223.87 66.5291 223.323 67.5085 222.274 67.5085ZM227.36 69H233.778V67.3097H230.139V67.255L233.649 62.7408V61.3636H227.489V63.054H231.099V63.1087L227.36 67.7372V69ZM239.46 61.3636H238.023V59.5341H235.905V61.3636H234.861V62.9545H235.905V66.9318C235.895 68.4283 236.914 69.169 238.45 69.1044C238.997 69.0845 239.385 68.9751 239.599 68.9055L239.266 67.3295C239.161 67.3494 238.938 67.3991 238.739 67.3991C238.316 67.3991 238.023 67.2401 238.023 66.6534V62.9545H239.46V61.3636ZM245.736 65.7486C245.741 66.7727 245.04 67.3097 244.28 67.3097C243.479 67.3097 242.962 66.7479 242.957 65.848V61.3636H240.839V66.2259C240.844 68.0107 241.888 69.0994 243.425 69.0994C244.573 69.0994 245.398 68.5078 245.741 67.6129H245.821V69H247.854V61.3636H245.736V65.7486ZM249.548 69H251.666V66.5739L252.238 65.9226L254.321 69H256.802L253.824 64.6697L256.658 61.3636H254.227L251.781 64.2621H251.666V58.8182H249.548V69Z" fill="#211061"/>
<path d="M0 4C0 1.79086 1.79086 0 4 0H5V100H4C1.79086 100 0 98.2091 0 96V4Z" fill="#EC7623"/>
<path d="M57.8409 43.6539C58.4513 44.2642 58.4513 45.2536 57.8409 45.8636L47.3588 56.3461C46.7484 56.9562 45.7593 56.9562 45.149 56.3461L40.1591 51.3559C39.5487 50.7458 39.5487 49.7565 40.1591 49.1464C40.7691 48.5361 41.7585 48.5361 42.3685 49.1464L46.2537 53.0316L55.6312 43.6539C56.2415 43.0438 57.2309 43.0438 57.8409 43.6539V43.6539ZM69 50C69 61.055 60.0535 70 49 70C37.945 70 29 61.0535 29 50C29 38.945 37.9465 30 49 30C60.055 30 69 38.9465 69 50ZM65.875 50C65.875 40.6723 58.3265 33.125 49 33.125C39.6723 33.125 32.125 40.6735 32.125 50C32.125 59.3277 39.6735 66.875 49 66.875C58.3277 66.875 65.875 59.3265 65.875 50Z" fill="#EC7623"/>
</svg>
