<svg width="305" height="100" viewBox="0 0 305 100" fill="none" xmlns="http://www.w3.org/2000/svg">
<rect width="305" height="100" rx="4" fill="white"/>
<path d="M99.1548 34.6378H102.102C102.06 32.0455 99.929 30.2557 96.6903 30.2557C93.5014 30.2557 91.1648 32.017 91.179 34.6591C91.1719 36.804 92.6847 38.0327 95.142 38.6222L96.7259 39.0199C98.3097 39.4034 99.1903 39.858 99.1974 40.8381C99.1903 41.9034 98.1818 42.6278 96.6193 42.6278C95.0213 42.6278 93.8707 41.8892 93.7713 40.4332H90.7955C90.8736 43.5795 93.125 45.206 96.6548 45.206C100.206 45.206 102.294 43.5085 102.301 40.8452C102.294 38.4233 100.469 37.1378 97.9403 36.5696L96.6335 36.2571C95.3693 35.9659 94.3111 35.4972 94.3324 34.4531C94.3324 33.5156 95.1634 32.8267 96.669 32.8267C98.1392 32.8267 99.0412 33.4943 99.1548 34.6378ZM104.313 45H107.338V34.0909H104.313V45ZM105.833 32.6847C106.735 32.6847 107.473 31.9957 107.473 31.1506C107.473 30.3125 106.735 29.6236 105.833 29.6236C104.938 29.6236 104.199 30.3125 104.199 31.1506C104.199 31.9957 104.938 32.6847 105.833 32.6847ZM109.762 45H112.788V41.5341L113.604 40.6037L116.58 45H120.124L115.87 38.8139L119.918 34.0909H116.445L112.951 38.2315H112.788V30.4545H109.762V45ZM125.925 45.2131C128.624 45.2131 130.442 43.8991 130.868 41.875L128.07 41.6903C127.765 42.5213 126.983 42.9545 125.975 42.9545C124.462 42.9545 123.503 41.9531 123.503 40.3267V40.3196H130.932V39.4886C130.932 35.7812 128.688 33.9489 125.804 33.9489C122.594 33.9489 120.513 36.2287 120.513 39.5952C120.513 43.054 122.566 45.2131 125.925 45.2131ZM123.503 38.4446C123.567 37.2017 124.512 36.2074 125.854 36.2074C127.168 36.2074 128.077 37.1449 128.084 38.4446H123.503ZM132.907 45H135.932V38.8281C135.932 37.4858 136.912 36.5625 138.248 36.5625C138.667 36.5625 139.242 36.6335 139.526 36.7259V34.0412C139.256 33.9773 138.88 33.9347 138.574 33.9347C137.353 33.9347 136.351 34.6449 135.953 35.9943H135.84V34.0909H132.907V45ZM145.554 45.2131C148.253 45.2131 150.071 43.8991 150.497 41.875L147.699 41.6903C147.393 42.5213 146.612 42.9545 145.604 42.9545C144.091 42.9545 143.132 41.9531 143.132 40.3267V40.3196H150.561V39.4886C150.561 35.7812 148.317 33.9489 145.433 33.9489C142.223 33.9489 140.142 36.2287 140.142 39.5952C140.142 43.054 142.195 45.2131 145.554 45.2131ZM143.132 38.4446C143.196 37.2017 144.141 36.2074 145.483 36.2074C146.797 36.2074 147.706 37.1449 147.713 38.4446H143.132ZM161.612 37.2017C161.342 35.1918 159.723 33.9489 156.967 33.9489C154.176 33.9489 152.337 35.2415 152.344 37.3438C152.337 38.9773 153.366 40.0355 155.497 40.4616L157.386 40.8381C158.338 41.0298 158.771 41.3778 158.786 41.9247C158.771 42.571 158.068 43.0327 157.01 43.0327C155.93 43.0327 155.213 42.571 155.028 41.6832L152.053 41.8395C152.337 43.9276 154.112 45.2131 157.003 45.2131C159.83 45.2131 161.854 43.7713 161.861 41.6193C161.854 40.0426 160.824 39.098 158.707 38.6648L156.733 38.267C155.717 38.0469 155.341 37.6989 155.348 37.1733C155.341 36.5199 156.08 36.0938 157.017 36.0938C158.068 36.0938 158.693 36.669 158.842 37.3722L161.612 37.2017ZM168.395 45H171.42V38.4517C171.42 37.2443 172.188 36.4418 173.196 36.4418C174.19 36.4418 174.858 37.1236 174.858 38.196V45H177.791V38.3381C177.791 37.2088 178.438 36.4418 179.538 36.4418C180.504 36.4418 181.229 37.0455 181.229 38.2599V45H184.247V37.6634C184.247 35.2983 182.841 33.9489 180.81 33.9489C179.212 33.9489 177.969 34.7656 177.521 36.0156H177.408C177.06 34.7514 175.945 33.9489 174.446 33.9489C172.976 33.9489 171.861 34.7301 171.406 36.0156H171.278V34.0909H168.395V45ZM191.609 45.2131C194.308 45.2131 196.126 43.8991 196.552 41.875L193.754 41.6903C193.448 42.5213 192.667 42.9545 191.658 42.9545C190.146 42.9545 189.187 41.9531 189.187 40.3267V40.3196H196.616V39.4886C196.616 35.7812 194.371 33.9489 191.488 33.9489C188.278 33.9489 186.197 36.2287 186.197 39.5952C186.197 43.054 188.249 45.2131 191.609 45.2131ZM189.187 38.4446C189.251 37.2017 190.195 36.2074 191.538 36.2074C192.852 36.2074 193.761 37.1449 193.768 38.4446H189.187ZM201.616 38.6932C201.623 37.2869 202.461 36.4631 203.683 36.4631C204.897 36.4631 205.629 37.2585 205.621 38.5938V45H208.647V38.054C208.647 35.5114 207.156 33.9489 204.883 33.9489C203.263 33.9489 202.092 34.7443 201.602 36.0156H201.474V34.0909H198.59V45H201.616V38.6932ZM216.834 34.0909H214.782V31.4773H211.756V34.0909H210.265V36.3636H211.756V42.0455C211.742 44.1832 213.198 45.2415 215.392 45.1491C216.174 45.1207 216.728 44.9645 217.033 44.8651L216.557 42.6136C216.408 42.642 216.088 42.7131 215.804 42.7131C215.201 42.7131 214.782 42.4858 214.782 41.6477V36.3636H216.834V34.0909ZM223.659 45.2131C226.358 45.2131 228.176 43.8991 228.603 41.875L225.804 41.6903C225.499 42.5213 224.718 42.9545 223.709 42.9545C222.196 42.9545 221.238 41.9531 221.238 40.3267V40.3196H228.667V39.4886C228.667 35.7812 226.422 33.9489 223.539 33.9489C220.328 33.9489 218.248 36.2287 218.248 39.5952C218.248 43.054 220.3 45.2131 223.659 45.2131ZM221.238 38.4446C221.301 37.2017 222.246 36.2074 223.588 36.2074C224.902 36.2074 225.811 37.1449 225.819 38.4446H221.238ZM222.381 32.6847H224.519L226.685 29.4531H223.887L222.381 32.6847ZM239.718 37.2017C239.448 35.1918 237.828 33.9489 235.073 33.9489C232.282 33.9489 230.442 35.2415 230.449 37.3438C230.442 38.9773 231.472 40.0355 233.603 40.4616L235.492 40.8381C236.444 41.0298 236.877 41.3778 236.891 41.9247C236.877 42.571 236.174 43.0327 235.115 43.0327C234.036 43.0327 233.319 42.571 233.134 41.6832L230.158 41.8395C230.442 43.9276 232.218 45.2131 235.108 45.2131C237.935 45.2131 239.959 43.7713 239.966 41.6193C239.959 40.0426 238.929 39.098 236.813 38.6648L234.838 38.267C233.823 38.0469 233.446 37.6989 233.453 37.1733C233.446 36.5199 234.185 36.0938 235.123 36.0938C236.174 36.0938 236.799 36.669 236.948 37.3722L239.718 37.2017ZM245.487 30.4545H242.326L242.61 40.6392H245.21L245.487 30.4545ZM243.91 45.1847C244.819 45.1847 245.607 44.4247 245.614 43.4801C245.607 42.5497 244.819 41.7898 243.91 41.7898C242.972 41.7898 242.198 42.5497 242.205 43.4801C242.198 44.4247 242.972 45.1847 243.91 45.1847Z" fill="#EC7623"/>
<path d="M92.6399 69L93.3956 66.6783H97.0696L97.8253 69H100.132L96.6222 58.8182H93.848L90.3331 69H92.6399ZM93.9425 64.9979L95.1953 61.1449H95.2749L96.5277 64.9979H93.9425ZM111.677 61.3636H109.435L107.854 66.8274H107.775L106.189 61.3636H103.952L106.621 69H109.008L111.677 61.3636ZM114.72 69.1442C115.849 69.1442 116.579 68.652 116.952 67.9411H117.012V69H119.02V63.8494C119.02 62.0298 117.479 61.2642 115.779 61.2642C113.949 61.2642 112.746 62.1392 112.453 63.5312L114.412 63.6903C114.556 63.1832 115.008 62.8104 115.769 62.8104C116.49 62.8104 116.903 63.1733 116.903 63.7997V63.8295C116.903 64.3217 116.381 64.3864 115.053 64.5156C113.542 64.6548 112.184 65.1619 112.184 66.8672C112.184 68.3786 113.263 69.1442 114.72 69.1442ZM115.327 67.6825C114.675 67.6825 114.208 67.3793 114.208 66.7976C114.208 66.201 114.7 65.9077 115.446 65.8033C115.908 65.7386 116.664 65.6293 116.917 65.4602V66.2706C116.917 67.071 116.256 67.6825 115.327 67.6825ZM115.098 60.3793H116.594L118.111 58.1172H116.152L115.098 60.3793ZM122.781 58.8182H120.664V69H122.781V58.8182ZM128.54 61.3636H127.103V59.5341H124.985V61.3636H123.941V62.9545H124.985V66.9318C124.975 68.4283 125.994 69.169 127.531 69.1044C128.077 69.0845 128.465 68.9751 128.679 68.9055L128.346 67.3295C128.241 67.3494 128.018 67.3991 127.819 67.3991C127.396 67.3991 127.103 67.2401 127.103 66.6534V62.9545H128.54V61.3636ZM133.288 69.1491C135.604 69.1491 137.046 67.5632 137.046 65.2116C137.046 62.8452 135.604 61.2642 133.288 61.2642C130.971 61.2642 129.529 62.8452 129.529 65.2116C129.529 67.5632 130.971 69.1491 133.288 69.1491ZM133.298 67.5085C132.229 67.5085 131.682 66.5291 131.682 65.1967C131.682 63.8643 132.229 62.88 133.298 62.88C134.347 62.88 134.893 63.8643 134.893 65.1967C134.893 66.5291 134.347 67.5085 133.298 67.5085ZM138.384 69H144.802V67.3097H141.163V67.255L144.673 62.7408V61.3636H138.513V63.054H142.122V63.1087L138.384 67.7372V69ZM150.483 61.3636H149.046V59.5341H146.928V61.3636H145.884V62.9545H146.928V66.9318C146.919 68.4283 147.938 69.169 149.474 69.1044C150.021 69.0845 150.409 68.9751 150.622 68.9055L150.289 67.3295C150.185 67.3494 149.961 67.3991 149.762 67.3991C149.34 67.3991 149.046 67.2401 149.046 66.6534V62.9545H150.483V61.3636ZM154.04 69.1442C155.169 69.1442 155.9 68.652 156.273 67.9411H156.332V69H158.341V63.8494C158.341 62.0298 156.8 61.2642 155.099 61.2642C153.27 61.2642 152.067 62.1392 151.773 63.5312L153.732 63.6903C153.876 63.1832 154.329 62.8104 155.089 62.8104C155.81 62.8104 156.223 63.1733 156.223 63.7997V63.8295C156.223 64.3217 155.701 64.3864 154.373 64.5156C152.862 64.6548 151.505 65.1619 151.505 66.8672C151.505 68.3786 152.584 69.1442 154.04 69.1442ZM154.647 67.6825C153.996 67.6825 153.528 67.3793 153.528 66.7976C153.528 66.201 154.02 65.9077 154.766 65.8033C155.229 65.7386 155.984 65.6293 156.238 65.4602V66.2706C156.238 67.071 155.577 67.6825 154.647 67.6825ZM164.046 61.3636H162.609V59.5341H160.491V61.3636H159.447V62.9545H160.491V66.9318C160.481 68.4283 161.5 69.169 163.036 69.1044C163.583 69.0845 163.971 68.9751 164.185 68.9055L163.852 67.3295C163.747 67.3494 163.524 67.3991 163.325 67.3991C162.902 67.3991 162.609 67.2401 162.609 66.6534V62.9545H164.046V61.3636ZM167.603 69.1442C168.731 69.1442 169.462 68.652 169.835 67.9411H169.895V69H171.903V63.8494C171.903 62.0298 170.362 61.2642 168.662 61.2642C166.832 61.2642 165.629 62.1392 165.336 63.5312L167.295 63.6903C167.439 63.1832 167.891 62.8104 168.652 62.8104C169.373 62.8104 169.785 63.1733 169.785 63.7997V63.8295C169.785 64.3217 169.263 64.3864 167.936 64.5156C166.425 64.6548 165.067 65.1619 165.067 66.8672C165.067 68.3786 166.146 69.1442 167.603 69.1442ZM168.209 67.6825C167.558 67.6825 167.091 67.3793 167.091 66.7976C167.091 66.201 167.583 65.9077 168.329 65.8033C168.791 65.7386 169.547 65.6293 169.8 65.4602V66.2706C169.8 67.071 169.139 67.6825 168.209 67.6825ZM167.981 60.3793H169.477L170.993 58.1172H169.035L167.981 60.3793ZM179.9 63.5412C179.711 62.1342 178.578 61.2642 176.649 61.2642C174.695 61.2642 173.407 62.169 173.412 63.6406C173.407 64.7841 174.128 65.5249 175.619 65.8232L176.942 66.0866C177.608 66.2209 177.911 66.4645 177.921 66.8473C177.911 67.2997 177.419 67.6229 176.678 67.6229C175.923 67.6229 175.421 67.2997 175.291 66.6783L173.208 66.7876C173.407 68.2493 174.65 69.1491 176.673 69.1491C178.652 69.1491 180.069 68.1399 180.074 66.6335C180.069 65.5298 179.348 64.8686 177.867 64.5653L176.485 64.2869C175.774 64.1328 175.51 63.8892 175.515 63.5213C175.51 63.0639 176.027 62.7656 176.683 62.7656C177.419 62.7656 177.857 63.1683 177.961 63.6605L179.9 63.5412ZM184.858 69.1491C187.175 69.1491 188.616 67.5632 188.616 65.2116C188.616 62.8452 187.175 61.2642 184.858 61.2642C182.541 61.2642 181.099 62.8452 181.099 65.2116C181.099 67.5632 182.541 69.1491 184.858 69.1491ZM184.868 67.5085C183.799 67.5085 183.252 66.5291 183.252 65.1967C183.252 63.8643 183.799 62.88 184.868 62.88C185.917 62.88 186.464 63.8643 186.464 65.1967C186.464 66.5291 185.917 67.5085 184.868 67.5085ZM189.994 69H192.112V66.5739L192.683 65.9226L194.766 69H197.247L194.269 64.6697L197.103 61.3636H194.672L192.226 64.2621H192.112V58.8182H189.994V69ZM200.32 69.1442C201.448 69.1442 202.179 68.652 202.552 67.9411H202.612V69H204.62V63.8494C204.62 62.0298 203.079 61.2642 201.379 61.2642C199.549 61.2642 198.346 62.1392 198.053 63.5312L200.011 63.6903C200.156 63.1832 200.608 62.8104 201.369 62.8104C202.089 62.8104 202.502 63.1733 202.502 63.7997V63.8295C202.502 64.3217 201.98 64.3864 200.653 64.5156C199.141 64.6548 197.784 65.1619 197.784 66.8672C197.784 68.3786 198.863 69.1442 200.32 69.1442ZM200.926 67.6825C200.275 67.6825 199.808 67.3793 199.808 66.7976C199.808 66.201 200.3 65.9077 201.045 65.8033C201.508 65.7386 202.263 65.6293 202.517 65.4602V66.2706C202.517 67.071 201.856 67.6825 200.926 67.6825ZM210.325 61.3636H208.888V59.5341H206.77V61.3636H205.726V62.9545H206.77V66.9318C206.76 68.4283 207.779 69.169 209.316 69.1044C209.863 69.0845 210.25 68.9751 210.464 68.9055L210.131 67.3295C210.027 67.3494 209.803 67.3991 209.604 67.3991C209.181 67.3991 208.888 67.2401 208.888 66.6534V62.9545H210.325V61.3636ZM219.007 61.3636H217.57V59.5341H215.452V61.3636H214.408V62.9545H215.452V66.9318C215.442 68.4283 216.461 69.169 217.997 69.1044C218.544 69.0845 218.932 68.9751 219.146 68.9055L218.813 67.3295C218.708 67.3494 218.485 67.3991 218.286 67.3991C217.863 67.3991 217.57 67.2401 217.57 66.6534V62.9545H219.007V61.3636ZM222.564 69.1442C223.692 69.1442 224.423 68.652 224.796 67.9411H224.856V69H226.864V63.8494C226.864 62.0298 225.323 61.2642 223.623 61.2642C221.793 61.2642 220.59 62.1392 220.297 63.5312L222.256 63.6903C222.4 63.1832 222.852 62.8104 223.613 62.8104C224.334 62.8104 224.746 63.1733 224.746 63.7997V63.8295C224.746 64.3217 224.224 64.3864 222.897 64.5156C221.385 64.6548 220.028 65.1619 220.028 66.8672C220.028 68.3786 221.107 69.1442 222.564 69.1442ZM223.17 67.6825C222.519 67.6825 222.052 67.3793 222.052 66.7976C222.052 66.201 222.544 65.9077 223.29 65.8033C223.752 65.7386 224.508 65.6293 224.761 65.4602V66.2706C224.761 67.071 224.1 67.6825 223.17 67.6825ZM222.942 60.3793H224.438L225.954 58.1172H223.996L222.942 60.3793ZM228.507 69H230.625V64.6797C230.625 63.7401 231.311 63.0938 232.246 63.0938C232.539 63.0938 232.942 63.1435 233.141 63.2081V61.3288C232.952 61.2841 232.688 61.2543 232.475 61.2543C231.619 61.2543 230.919 61.7514 230.64 62.696H230.561V61.3636H228.507V69ZM237.331 69.1491C239.647 69.1491 241.089 67.5632 241.089 65.2116C241.089 62.8452 239.647 61.2642 237.331 61.2642C235.014 61.2642 233.572 62.8452 233.572 65.2116C233.572 67.5632 235.014 69.1491 237.331 69.1491ZM237.341 67.5085C236.272 67.5085 235.725 66.5291 235.725 65.1967C235.725 63.8643 236.272 62.88 237.341 62.88C238.39 62.88 238.936 63.8643 238.936 65.1967C238.936 66.5291 238.39 67.5085 237.341 67.5085ZM244.584 58.8182H242.466V69H244.584V58.8182ZM250.343 61.3636H248.906V59.5341H246.788V61.3636H245.744V62.9545H246.788V66.9318C246.778 68.4283 247.797 69.169 249.333 69.1044C249.88 69.0845 250.268 68.9751 250.482 68.9055L250.149 67.3295C250.044 67.3494 249.82 67.3991 249.622 67.3991C249.199 67.3991 248.906 67.2401 248.906 66.6534V62.9545H250.343V61.3636ZM256.619 65.7486C256.624 66.7727 255.923 67.3097 255.162 67.3097C254.362 67.3097 253.845 66.7479 253.84 65.848V61.3636H251.722V66.2259C251.727 68.0107 252.771 69.0994 254.307 69.0994C255.456 69.0994 256.281 68.5078 256.624 67.6129H256.704V69H258.737V61.3636H256.619V65.7486ZM260.431 69H262.549V66.5739L263.121 65.9226L265.204 69H267.685L264.707 64.6697L267.54 61.3636H265.109L262.663 64.2621H262.549V58.8182H260.431V69Z" fill="#211061"/>
<path d="M0 4C0 1.79086 1.79086 0 4 0H5V100H4C1.79086 100 0 98.2091 0 96V4Z" fill="#EC7623"/>
<path d="M57.8409 43.6539C58.4513 44.2642 58.4513 45.2536 57.8409 45.8636L47.3588 56.3461C46.7484 56.9562 45.7593 56.9562 45.149 56.3461L40.1591 51.3559C39.5487 50.7458 39.5487 49.7565 40.1591 49.1464C40.7691 48.5361 41.7585 48.5361 42.3685 49.1464L46.2537 53.0316L55.6312 43.6539C56.2415 43.0438 57.2309 43.0438 57.8409 43.6539ZM69 50C69 61.055 60.0535 70 49 70C37.945 70 29 61.0535 29 50C29 38.945 37.9465 30 49 30C60.055 30 69 38.9465 69 50ZM65.875 50C65.875 40.6723 58.3265 33.125 49 33.125C39.6723 33.125 32.125 40.6735 32.125 50C32.125 59.3277 39.6735 66.875 49 66.875C58.3277 66.875 65.875 59.3265 65.875 50Z" fill="#EC7623"/>
</svg>
