<svg width="305" height="100" viewBox="0 0 305 100" fill="none" xmlns="http://www.w3.org/2000/svg">
<rect width="305" height="100" rx="4" fill="white"/>
<path d="M99.1548 34.6378H102.102C102.06 32.0455 99.929 30.2557 96.6903 30.2557C93.5014 30.2557 91.1648 32.017 91.179 34.6591C91.1719 36.804 92.6847 38.0327 95.142 38.6222L96.7259 39.0199C98.3097 39.4034 99.1903 39.858 99.1974 40.8381C99.1903 41.9034 98.1818 42.6278 96.6193 42.6278C95.0213 42.6278 93.8707 41.8892 93.7713 40.4332H90.7955C90.8736 43.5795 93.125 45.206 96.6548 45.206C100.206 45.206 102.294 43.5085 102.301 40.8452C102.294 38.4233 100.469 37.1378 97.9403 36.5696L96.6335 36.2571C95.3693 35.9659 94.3111 35.4972 94.3324 34.4531C94.3324 33.5156 95.1634 32.8267 96.669 32.8267C98.1392 32.8267 99.0412 33.4943 99.1548 34.6378ZM104.313 45H107.338V34.0909H104.313V45ZM105.833 32.6847C106.735 32.6847 107.473 31.9957 107.473 31.1506C107.473 30.3125 106.735 29.6236 105.833 29.6236C104.938 29.6236 104.199 30.3125 104.199 31.1506C104.199 31.9957 104.938 32.6847 105.833 32.6847ZM109.762 45H112.788V41.5341L113.604 40.6037L116.58 45H120.124L115.87 38.8139L119.918 34.0909H116.445L112.951 38.2315H112.788V30.4545H109.762V45ZM125.925 45.2131C128.624 45.2131 130.442 43.8991 130.868 41.875L128.07 41.6903C127.765 42.5213 126.983 42.9545 125.975 42.9545C124.462 42.9545 123.503 41.9531 123.503 40.3267V40.3196H130.932V39.4886C130.932 35.7812 128.688 33.9489 125.804 33.9489C122.594 33.9489 120.513 36.2287 120.513 39.5952C120.513 43.054 122.566 45.2131 125.925 45.2131ZM123.503 38.4446C123.567 37.2017 124.512 36.2074 125.854 36.2074C127.168 36.2074 128.077 37.1449 128.084 38.4446H123.503ZM132.907 45H135.932V38.8281C135.932 37.4858 136.912 36.5625 138.248 36.5625C138.667 36.5625 139.242 36.6335 139.526 36.7259V34.0412C139.256 33.9773 138.88 33.9347 138.574 33.9347C137.353 33.9347 136.351 34.6449 135.953 35.9943H135.84V34.0909H132.907V45ZM145.554 45.2131C148.253 45.2131 150.071 43.8991 150.497 41.875L147.699 41.6903C147.393 42.5213 146.612 42.9545 145.604 42.9545C144.091 42.9545 143.132 41.9531 143.132 40.3267V40.3196H150.561V39.4886C150.561 35.7812 148.317 33.9489 145.433 33.9489C142.223 33.9489 140.142 36.2287 140.142 39.5952C140.142 43.054 142.195 45.2131 145.554 45.2131ZM143.132 38.4446C143.196 37.2017 144.141 36.2074 145.483 36.2074C146.797 36.2074 147.706 37.1449 147.713 38.4446H143.132ZM161.612 37.2017C161.342 35.1918 159.723 33.9489 156.967 33.9489C154.176 33.9489 152.337 35.2415 152.344 37.3438C152.337 38.9773 153.366 40.0355 155.497 40.4616L157.386 40.8381C158.338 41.0298 158.771 41.3778 158.786 41.9247C158.771 42.571 158.068 43.0327 157.01 43.0327C155.93 43.0327 155.213 42.571 155.028 41.6832L152.053 41.8395C152.337 43.9276 154.112 45.2131 157.003 45.2131C159.83 45.2131 161.854 43.7713 161.861 41.6193C161.854 40.0426 160.824 39.098 158.707 38.6648L156.733 38.267C155.717 38.0469 155.341 37.6989 155.348 37.1733C155.341 36.5199 156.08 36.0938 157.017 36.0938C158.068 36.0938 158.693 36.669 158.842 37.3722L161.612 37.2017ZM168.395 45H171.42V38.8281C171.42 37.4858 172.401 36.5625 173.736 36.5625C174.155 36.5625 174.73 36.6335 175.014 36.7259V34.0412C174.744 33.9773 174.368 33.9347 174.062 33.9347C172.841 33.9347 171.839 34.6449 171.442 35.9943H171.328V34.0909H168.395V45ZM181.042 45.2131C183.741 45.2131 185.559 43.8991 185.985 41.875L183.187 41.6903C182.882 42.5213 182.1 42.9545 181.092 42.9545C179.579 42.9545 178.62 41.9531 178.62 40.3267V40.3196H186.049V39.4886C186.049 35.7812 183.805 33.9489 180.922 33.9489C177.711 33.9489 175.63 36.2287 175.63 39.5952C175.63 43.054 177.683 45.2131 181.042 45.2131ZM178.62 38.4446C178.684 37.2017 179.629 36.2074 180.971 36.2074C182.285 36.2074 183.194 37.1449 183.201 38.4446H178.62ZM191.049 38.6932C191.056 37.2869 191.895 36.4631 193.116 36.4631C194.331 36.4631 195.062 37.2585 195.055 38.5938V45H198.081V38.054C198.081 35.5114 196.589 33.9489 194.316 33.9489C192.697 33.9489 191.525 34.7443 191.035 36.0156H190.907V34.0909H188.024V45H191.049V38.6932ZM204.485 45.1776C206.246 45.1776 207.163 44.1619 207.582 43.2528H207.71V45H210.692V30.4545H207.674V35.9233H207.582C207.177 35.0355 206.303 33.9489 204.478 33.9489C202.085 33.9489 200.06 35.8097 200.06 39.5597C200.06 43.2102 201.999 45.1776 204.485 45.1776ZM205.444 42.7699C203.96 42.7699 203.15 41.4489 203.15 39.5455C203.15 37.6562 203.945 36.3565 205.444 36.3565C206.914 36.3565 207.738 37.5994 207.738 39.5455C207.738 41.4915 206.9 42.7699 205.444 42.7699ZM218.152 45.2131C220.85 45.2131 222.669 43.8991 223.095 41.875L220.297 41.6903C219.991 42.5213 219.21 42.9545 218.201 42.9545C216.689 42.9545 215.73 41.9531 215.73 40.3267V40.3196H223.159V39.4886C223.159 35.7812 220.914 33.9489 218.031 33.9489C214.821 33.9489 212.74 36.2287 212.74 39.5952C212.74 43.054 214.792 45.2131 218.152 45.2131ZM215.73 38.4446C215.794 37.2017 216.738 36.2074 218.081 36.2074C219.395 36.2074 220.304 37.1449 220.311 38.4446H215.73ZM228.159 30.4545H225.133V45H228.159V30.4545ZM235.554 45.2131C238.253 45.2131 240.071 43.8991 240.497 41.875L237.699 41.6903C237.393 42.5213 236.612 42.9545 235.604 42.9545C234.091 42.9545 233.132 41.9531 233.132 40.3267V40.3196H240.561V39.4886C240.561 35.7812 238.317 33.9489 235.433 33.9489C232.223 33.9489 230.142 36.2287 230.142 39.5952C230.142 43.054 232.195 45.2131 235.554 45.2131ZM233.132 38.4446C233.196 37.2017 234.141 36.2074 235.483 36.2074C236.797 36.2074 237.706 37.1449 237.713 38.4446H233.132ZM234.276 32.6847H236.413L238.58 29.4531H235.781L234.276 32.6847ZM251.612 37.2017C251.342 35.1918 249.723 33.9489 246.967 33.9489C244.176 33.9489 242.337 35.2415 242.344 37.3438C242.337 38.9773 243.366 40.0355 245.497 40.4616L247.386 40.8381C248.338 41.0298 248.771 41.3778 248.786 41.9247C248.771 42.571 248.068 43.0327 247.01 43.0327C245.93 43.0327 245.213 42.571 245.028 41.6832L242.053 41.8395C242.337 43.9276 244.112 45.2131 247.003 45.2131C249.83 45.2131 251.854 43.7713 251.861 41.6193C251.854 40.0426 250.824 39.098 248.707 38.6648L246.733 38.267C245.717 38.0469 245.341 37.6989 245.348 37.1733C245.341 36.5199 246.08 36.0938 247.017 36.0938C248.068 36.0938 248.693 36.669 248.842 37.3722L251.612 37.2017ZM257.381 30.4545H254.221L254.505 40.6392H257.104L257.381 30.4545ZM255.804 45.1847C256.713 45.1847 257.502 44.4247 257.509 43.4801C257.502 42.5497 256.713 41.7898 255.804 41.7898C254.867 41.7898 254.093 42.5497 254.1 43.4801C254.093 44.4247 254.867 45.1847 255.804 45.1847Z" fill="#EC7623"/>
<path d="M92.6399 69L93.3956 66.6783H97.0696L97.8253 69H100.132L96.6222 58.8182H93.848L90.3331 69H92.6399ZM93.9425 64.9979L95.1953 61.1449H95.2749L96.5277 64.9979H93.9425ZM108.62 61.3636H107.183V59.5341H105.065V61.3636H104.021V62.9545H105.065V66.9318C105.055 68.4283 106.074 69.169 107.611 69.1044C108.157 69.0845 108.545 68.9751 108.759 68.9055L108.426 67.3295C108.322 67.3494 108.098 67.3991 107.899 67.3991C107.476 67.3991 107.183 67.2401 107.183 66.6534V62.9545H108.62V61.3636ZM113.398 69.1491C115.287 69.1491 116.559 68.2294 116.858 66.8125L114.899 66.6832C114.685 67.2649 114.138 67.5682 113.432 67.5682C112.373 67.5682 111.702 66.8672 111.702 65.7287V65.7237H116.903V65.142C116.903 62.5469 115.331 61.2642 113.313 61.2642C111.066 61.2642 109.609 62.8601 109.609 65.2166C109.609 67.6378 111.046 69.1491 113.398 69.1491ZM111.702 64.4112C111.747 63.5412 112.408 62.8452 113.348 62.8452C114.268 62.8452 114.904 63.5014 114.909 64.4112H111.702ZM118.285 69H120.403V64.6797C120.403 63.7401 121.089 63.0938 122.023 63.0938C122.317 63.0938 122.719 63.1435 122.918 63.2081V61.3288C122.729 61.2841 122.466 61.2543 122.252 61.2543C121.397 61.2543 120.696 61.7514 120.417 62.696H120.338V61.3636H118.285V69ZM124.013 69H126.131V64.4162C126.131 63.571 126.668 63.0092 127.374 63.0092C128.07 63.0092 128.537 63.4865 128.537 64.2372V69H130.591V64.3366C130.591 63.5462 131.043 63.0092 131.814 63.0092C132.49 63.0092 132.997 63.4318 132.997 64.282V69H135.11V63.8643C135.11 62.2088 134.125 61.2642 132.703 61.2642C131.585 61.2642 130.715 61.8359 130.402 62.7109H130.322C130.078 61.826 129.298 61.2642 128.249 61.2642C127.22 61.2642 126.439 61.8111 126.121 62.7109H126.032V61.3636H124.013V69ZM140.263 69.1491C142.152 69.1491 143.425 68.2294 143.723 66.8125L141.764 66.6832C141.55 67.2649 141.004 67.5682 140.298 67.5682C139.239 67.5682 138.567 66.8672 138.567 65.7287V65.7237H143.768V65.142C143.768 62.5469 142.197 61.2642 140.178 61.2642C137.931 61.2642 136.474 62.8601 136.474 65.2166C136.474 67.6378 137.911 69.1491 140.263 69.1491ZM138.567 64.4112C138.612 63.5412 139.273 62.8452 140.213 62.8452C141.133 62.8452 141.769 63.5014 141.774 64.4112H138.567ZM139.368 60.3793H140.864L142.381 58.1172H140.422L139.368 60.3793ZM145.15 69H147.268V66.5739L147.839 65.9226L149.923 69H152.403L149.425 64.6697L152.259 61.3636H149.828L147.382 64.2621H147.268V58.8182H145.15V69ZM156.464 69.1491C158.353 69.1491 159.626 68.2294 159.924 66.8125L157.965 66.6832C157.752 67.2649 157.205 67.5682 156.499 67.5682C155.44 67.5682 154.769 66.8672 154.769 65.7287V65.7237H159.969V65.142C159.969 62.5469 158.398 61.2642 156.379 61.2642C154.132 61.2642 152.676 62.8601 152.676 65.2166C152.676 67.6378 154.112 69.1491 156.464 69.1491ZM154.769 64.4112C154.813 63.5412 155.475 62.8452 156.414 62.8452C157.334 62.8452 157.97 63.5014 157.975 64.4112H154.769ZM161.351 69H163.469V66.5739L164.041 65.9226L166.124 69H168.605L165.627 64.6697L168.46 61.3636H166.029L163.583 64.2621H163.469V58.8182H161.351V69ZM172.74 69H174.858V66.5739L175.429 65.9226L177.512 69H179.993L177.015 64.6697L179.849 61.3636H177.418L174.972 64.2621H174.858V58.8182H172.74V69ZM184.024 69.1491C186.341 69.1491 187.782 67.5632 187.782 65.2116C187.782 62.8452 186.341 61.2642 184.024 61.2642C181.707 61.2642 180.265 62.8452 180.265 65.2116C180.265 67.5632 181.707 69.1491 184.024 69.1491ZM184.034 67.5085C182.965 67.5085 182.418 66.5291 182.418 65.1967C182.418 63.8643 182.965 62.88 184.034 62.88C185.083 62.88 185.63 63.8643 185.63 65.1967C185.63 66.5291 185.083 67.5085 184.034 67.5085ZM195.513 63.5412C195.324 62.1342 194.191 61.2642 192.262 61.2642C190.308 61.2642 189.02 62.169 189.025 63.6406C189.02 64.7841 189.741 65.5249 191.233 65.8232L192.555 66.0866C193.221 66.2209 193.525 66.4645 193.535 66.8473C193.525 67.2997 193.032 67.6229 192.292 67.6229C191.536 67.6229 191.034 67.2997 190.905 66.6783L188.822 66.7876C189.02 68.2493 190.263 69.1491 192.287 69.1491C194.265 69.1491 195.682 68.1399 195.687 66.6335C195.682 65.5298 194.961 64.8686 193.48 64.5653L192.098 64.2869C191.387 64.1328 191.123 63.8892 191.128 63.5213C191.123 63.0639 191.64 62.7656 192.297 62.7656C193.032 62.7656 193.47 63.1683 193.574 63.6605L195.513 63.5412ZM199.199 69.1442C200.327 69.1442 201.058 68.652 201.431 67.9411H201.49V69H203.499V63.8494C203.499 62.0298 201.958 61.2642 200.257 61.2642C198.428 61.2642 197.225 62.1392 196.931 63.5312L198.89 63.6903C199.034 63.1832 199.487 62.8104 200.248 62.8104C200.968 62.8104 201.381 63.1733 201.381 63.7997V63.8295C201.381 64.3217 200.859 64.3864 199.532 64.5156C198.02 64.6548 196.663 65.1619 196.663 66.8672C196.663 68.3786 197.742 69.1442 199.199 69.1442ZM199.805 67.6825C199.154 67.6825 198.686 67.3793 198.686 66.7976C198.686 66.201 199.179 65.9077 199.924 65.8033C200.387 65.7386 201.142 65.6293 201.396 65.4602V66.2706C201.396 67.071 200.735 67.6825 199.805 67.6825ZM199.576 60.3793H201.073L202.589 58.1172H200.63L199.576 60.3793ZM205.142 69H207.26V64.6797C207.26 63.7401 207.946 63.0938 208.881 63.0938C209.174 63.0938 209.577 63.1435 209.776 63.2081V61.3288C209.587 61.2841 209.323 61.2543 209.109 61.2543C208.254 61.2543 207.553 61.7514 207.275 62.696H207.195V61.3636H205.142V69ZM210.91 69H212.998V67.777H213.093C213.386 68.4134 214.028 69.1243 215.26 69.1243C217.001 69.1243 218.358 67.7472 218.358 65.1918C218.358 62.5668 216.941 61.2642 215.265 61.2642C213.988 61.2642 213.376 62.0249 213.093 62.6463H213.028V58.8182H210.91V69ZM212.983 65.1818C212.983 63.8196 213.56 62.9496 214.589 62.9496C215.638 62.9496 216.195 63.8594 216.195 65.1818C216.195 66.5142 215.628 67.4389 214.589 67.4389C213.57 67.4389 212.983 66.544 212.983 65.1818ZM221.949 69.1442C223.077 69.1442 223.808 68.652 224.181 67.9411H224.24V69H226.249V63.8494C226.249 62.0298 224.708 61.2642 223.007 61.2642C221.178 61.2642 219.975 62.1392 219.681 63.5312L221.64 63.6903C221.784 63.1832 222.237 62.8104 222.998 62.8104C223.718 62.8104 224.131 63.1733 224.131 63.7997V63.8295C224.131 64.3217 223.609 64.3864 222.282 64.5156C220.77 64.6548 219.413 65.1619 219.413 66.8672C219.413 68.3786 220.492 69.1442 221.949 69.1442ZM222.555 67.6825C221.904 67.6825 221.436 67.3793 221.436 66.7976C221.436 66.201 221.929 65.9077 222.674 65.8033C223.137 65.7386 223.892 65.6293 224.146 65.4602V66.2706C224.146 67.071 223.485 67.6825 222.555 67.6825ZM231.132 69H233.25V66.5739L233.822 65.9226L235.905 69H238.386L235.408 64.6697L238.242 61.3636H235.811L233.365 64.2621H233.25V58.8182H231.132V69ZM242.446 69.1491C244.336 69.1491 245.608 68.2294 245.907 66.8125L243.948 66.6832C243.734 67.2649 243.187 67.5682 242.481 67.5682C241.422 67.5682 240.751 66.8672 240.751 65.7287V65.7237H245.951V65.142C245.951 62.5469 244.38 61.2642 242.362 61.2642C240.115 61.2642 238.658 62.8601 238.658 65.2166C238.658 67.6378 240.095 69.1491 242.446 69.1491ZM240.751 64.4112C240.796 63.5412 241.457 62.8452 242.397 62.8452C243.316 62.8452 243.953 63.5014 243.958 64.4112H240.751ZM247.333 69H249.451V64.6797C249.451 63.7401 250.137 63.0938 251.072 63.0938C251.365 63.0938 251.768 63.1435 251.967 63.2081V61.3288C251.778 61.2841 251.515 61.2543 251.301 61.2543C250.446 61.2543 249.745 61.7514 249.466 62.696H249.387V61.3636H247.333V69ZM257.959 65.7486C257.964 66.7727 257.263 67.3097 256.502 67.3097C255.702 67.3097 255.185 66.7479 255.18 65.848V61.3636H253.062V66.2259C253.067 68.0107 254.111 69.0994 255.647 69.0994C256.796 69.0994 257.621 68.5078 257.964 67.6129H258.044V69H260.077V61.3636H257.959V65.7486ZM255.066 60.3196C255.642 60.3196 256.1 59.8572 256.1 59.3054C256.1 58.7436 255.642 58.2962 255.066 58.2962C254.494 58.2962 254.021 58.7436 254.021 59.3054C254.021 59.8572 254.494 60.3196 255.066 60.3196ZM258.108 60.3196C258.685 60.3196 259.142 59.8572 259.142 59.3054C259.142 58.7436 258.685 58.2962 258.108 58.2962C257.536 58.2962 257.064 58.7436 257.064 59.3054C257.064 59.8572 257.536 60.3196 258.108 60.3196ZM263.889 58.8182H261.771V69H263.889V58.8182ZM269.647 61.3636H268.21V59.5341H266.093V61.3636H265.048V62.9545H266.093V66.9318C266.083 68.4283 267.102 69.169 268.638 69.1044C269.185 69.0845 269.573 68.9751 269.786 68.9055L269.453 67.3295C269.349 67.3494 269.125 67.3991 268.926 67.3991C268.504 67.3991 268.21 67.2401 268.21 66.6534V62.9545H269.647V61.3636ZM274.425 69.1491C276.314 69.1491 277.587 68.2294 277.885 66.8125L275.926 66.6832C275.713 67.2649 275.166 67.5682 274.46 67.5682C273.401 67.5682 272.73 66.8672 272.73 65.7287V65.7237H277.93V65.142C277.93 62.5469 276.359 61.2642 274.34 61.2642C272.093 61.2642 270.637 62.8601 270.637 65.2166C270.637 67.6378 272.073 69.1491 274.425 69.1491ZM272.73 64.4112C272.774 63.5412 273.436 62.8452 274.375 62.8452C275.295 62.8452 275.931 63.5014 275.936 64.4112H272.73ZM279.312 69H281.43V66.5739L282.002 65.9226L284.085 69H286.566L283.588 64.6697L286.421 61.3636H283.99L281.544 64.2621H281.43V58.8182H279.312V69Z" fill="#211061"/>
<path d="M0 4C0 1.79086 1.79086 0 4 0H5V100H4C1.79086 100 0 98.2091 0 96V4Z" fill="#EC7623"/>
<path d="M57.8409 43.6539C58.4513 44.2642 58.4513 45.2536 57.8409 45.8636L47.3588 56.3461C46.7484 56.9562 45.7593 56.9562 45.149 56.3461L40.1591 51.3559C39.5487 50.7458 39.5487 49.7565 40.1591 49.1464C40.7691 48.5361 41.7585 48.5361 42.3685 49.1464L46.2537 53.0316L55.6312 43.6539C56.2415 43.0438 57.2309 43.0438 57.8409 43.6539ZM69 50C69 61.055 60.0535 70 49 70C37.945 70 29 61.0535 29 50C29 38.945 37.9465 30 49 30C60.055 30 69 38.9465 69 50ZM65.875 50C65.875 40.6723 58.3265 33.125 49 33.125C39.6723 33.125 32.125 40.6735 32.125 50C32.125 59.3277 39.6735 66.875 49 66.875C58.3277 66.875 65.875 59.3265 65.875 50Z" fill="#EC7623"/>
</svg>
