<svg width="512" height="454" viewBox="0 0 512 454" fill="none" xmlns="http://www.w3.org/2000/svg">
<path d="M507.256 400.867L286.297 18.1549C272.829 -5.17409 239.175 -5.18309 225.701 18.1549L4.7421 400.867C-8.7229 424.187 8.0851 453.345 35.0401 453.345H476.958C503.886 453.345 520.734 424.21 507.256 400.867ZM476.958 423.357H35.0401C31.1961 423.357 28.7731 419.218 30.7121 415.86L251.671 33.1489C253.594 29.8189 258.389 29.7909 260.328 33.1489L481.287 415.861C483.213 419.198 480.828 423.357 476.958 423.357V423.357Z" fill="#FF0000"/>
<path d="M265.734 380.165C274.258 374.897 276.897 363.716 271.629 355.192C266.36 346.668 255.179 344.029 246.655 349.298C238.132 354.566 235.493 365.747 240.761 374.271C246.03 382.795 257.211 385.434 265.734 380.165Z" fill="black"/>
<path d="M256.194 320.228C264.475 320.228 271.188 313.515 271.188 305.234V133.848C271.188 125.567 264.475 118.854 256.194 118.854C247.913 118.854 241.2 125.567 241.2 133.848V305.234C241.2 313.515 247.913 320.228 256.194 320.228Z" fill="black"/>
</svg>
