<svg width="16" height="16" viewBox="0 0 16 16" fill="none" xmlns="http://www.w3.org/2000/svg">
<path d="M11.5312 15.5L13.5312 13.5H11.5312V15.5Z" fill="white"/>
<path d="M9.78125 13.75L11.7812 11.75H9.78125V13.75Z" fill="white"/>
<path d="M6.53125 1.75H7.53125V3.25H6.53125V1.75Z" fill="white"/>
<path d="M13.5 2H12V0.5C12 0.433696 11.9737 0.370107 11.9268 0.323223C11.8799 0.276339 11.8163 0.25 11.75 0.25H2.25C2.1837 0.25 2.12011 0.276339 2.07322 0.323223C2.02634 0.370107 2 0.433696 2 0.5V13.75C2 13.8163 2.02634 13.8799 2.07322 13.9268C2.12011 13.9737 2.1837 14 2.25 14H3.75V15.5C3.75 15.5663 3.77634 15.6299 3.82322 15.6768C3.87011 15.7237 3.9337 15.75 4 15.75H11.5C11.5663 15.75 11.6299 15.7237 11.6769 15.6769L13.6769 13.6769C13.7237 13.6299 13.75 13.5663 13.75 13.5V2.25C13.75 2.1837 13.7237 2.12011 13.6768 2.07322C13.6299 2.02634 13.5663 2 13.5 2ZM2.5 13.5V0.75H11.5V11.5H9.75C9.6837 11.5 9.62011 11.5263 9.57322 11.5732C9.52634 11.6201 9.5 11.6837 9.5 11.75V13.5H2.5ZM11.1466 12L10 13.1466V12H11.1466ZM11.75 14.8966V13.75H12.8966L11.75 14.8966ZM13.25 13.25H11.5C11.4337 13.25 11.3701 13.2763 11.3232 13.3232C11.2763 13.3701 11.25 13.4337 11.25 13.5V15.25H4.25V14H9.75C9.81632 14 9.87994 13.9737 9.92688 13.9269L11.9269 11.9269C11.9737 11.8799 12 11.8163 12 11.75V2.5H13.25V13.25Z" fill="#EC7623"/>
<path d="M8.5 1.5H5.5C5.4337 1.5 5.37011 1.52634 5.32322 1.57322C5.27634 1.62011 5.25 1.6837 5.25 1.75V4.75C5.25 4.8163 5.27634 4.87989 5.32322 4.92678C5.37011 4.97366 5.4337 5 5.5 5H8.5C8.5663 5 8.62989 4.97366 8.67678 4.92678C8.72366 4.87989 8.75 4.8163 8.75 4.75V1.75C8.75 1.6837 8.72366 1.62011 8.67678 1.57322C8.62989 1.52634 8.5663 1.5 8.5 1.5ZM6.75 2H7.25V3H6.75V2ZM8.25 4.5H5.75V2H6.25V3.25C6.25 3.3163 6.27634 3.37989 6.32322 3.42678C6.37011 3.47366 6.4337 3.5 6.5 3.5H7.5C7.5663 3.5 7.62989 3.47366 7.67678 3.42678C7.72366 3.37989 7.75 3.3163 7.75 3.25V2H8.25V4.5Z" fill="#EC7623"/>
<path d="M3.25 6H10.7188C10.7851 6 10.8486 5.97366 10.8955 5.92678C10.9424 5.87989 10.9688 5.8163 10.9688 5.75C10.9688 5.6837 10.9424 5.62011 10.8955 5.57322C10.8486 5.52634 10.7851 5.5 10.7188 5.5H3.25C3.1837 5.5 3.12011 5.52634 3.07322 5.57322C3.02634 5.62011 3 5.6837 3 5.75C3 5.8163 3.02634 5.87989 3.07322 5.92678C3.12011 5.97366 3.1837 6 3.25 6V6Z" fill="#EC7623"/>
<path d="M3.25 6.75H10.7188C10.7851 6.75 10.8486 6.72366 10.8955 6.67678C10.9424 6.62989 10.9688 6.5663 10.9688 6.5C10.9688 6.4337 10.9424 6.37011 10.8955 6.32322C10.8486 6.27634 10.7851 6.25 10.7188 6.25H3.25C3.1837 6.25 3.12011 6.27634 3.07322 6.32322C3.02634 6.37011 3 6.4337 3 6.5C3 6.5663 3.02634 6.62989 3.07322 6.67678C3.12011 6.72366 3.1837 6.75 3.25 6.75V6.75Z" fill="#EC7623"/>
<path d="M3.25 7.5H10.7188C10.7851 7.5 10.8486 7.47366 10.8955 7.42678C10.9424 7.37989 10.9688 7.3163 10.9688 7.25C10.9688 7.1837 10.9424 7.12011 10.8955 7.07322C10.8486 7.02634 10.7851 7 10.7188 7H3.25C3.1837 7 3.12011 7.02634 3.07322 7.07322C3.02634 7.12011 3 7.1837 3 7.25C3 7.3163 3.02634 7.37989 3.07322 7.42678C3.12011 7.47366 3.1837 7.5 3.25 7.5V7.5Z" fill="#EC7623"/>
<path d="M3.25 8.25H6C6.0663 8.25 6.12989 8.22366 6.17678 8.17678C6.22366 8.12989 6.25 8.0663 6.25 8C6.25 7.9337 6.22366 7.87011 6.17678 7.82322C6.12989 7.77634 6.0663 7.75 6 7.75H3.25C3.1837 7.75 3.12011 7.77634 3.07322 7.82322C3.02634 7.87011 3 7.9337 3 8C3 8.0663 3.02634 8.12989 3.07322 8.17678C3.12011 8.22366 3.1837 8.25 3.25 8.25V8.25Z" fill="#EC7623"/>
<path d="M6.75 7.75C6.6837 7.75 6.62011 7.77634 6.57322 7.82322C6.52634 7.87011 6.5 7.9337 6.5 8C6.5 8.0663 6.52634 8.12989 6.57322 8.17678C6.62011 8.22366 6.6837 8.25 6.75 8.25H7C7.0663 8.25 7.12989 8.22366 7.17678 8.17678C7.22366 8.12989 7.25 8.0663 7.25 8C7.25 7.9337 7.22366 7.87011 7.17678 7.82322C7.12989 7.77634 7.0663 7.75 7 7.75H6.75Z" fill="#EC7623"/>
<path d="M3.25 9.25H10.7188C10.7851 9.25 10.8486 9.22366 10.8955 9.17678C10.9424 9.12989 10.9688 9.0663 10.9688 9C10.9688 8.9337 10.9424 8.87011 10.8955 8.82322C10.8486 8.77634 10.7851 8.75 10.7188 8.75H3.25C3.1837 8.75 3.12011 8.77634 3.07322 8.82322C3.02634 8.87011 3 8.9337 3 9C3 9.0663 3.02634 9.12989 3.07322 9.17678C3.12011 9.22366 3.1837 9.25 3.25 9.25V9.25Z" fill="#EC7623"/>
<path d="M3.25 10H10.7188C10.7851 10 10.8486 9.97366 10.8955 9.92678C10.9424 9.87989 10.9688 9.8163 10.9688 9.75C10.9688 9.6837 10.9424 9.62011 10.8955 9.57322C10.8486 9.52634 10.7851 9.5 10.7188 9.5H3.25C3.1837 9.5 3.12011 9.52634 3.07322 9.57322C3.02634 9.62011 3 9.6837 3 9.75C3 9.8163 3.02634 9.87989 3.07322 9.92678C3.12011 9.97366 3.1837 10 3.25 10V10Z" fill="#EC7623"/>
<path d="M6 10.25H3.25C3.1837 10.25 3.12011 10.2763 3.07322 10.3232C3.02634 10.3701 3 10.4337 3 10.5C3 10.5663 3.02634 10.6299 3.07322 10.6768C3.12011 10.7237 3.1837 10.75 3.25 10.75H6C6.0663 10.75 6.12989 10.7237 6.17678 10.6768C6.22366 10.6299 6.25 10.5663 6.25 10.5C6.25 10.4337 6.22366 10.3701 6.17678 10.3232C6.12989 10.2763 6.0663 10.25 6 10.25Z" fill="#EC7623"/>
<path d="M7 10.25H6.75C6.6837 10.25 6.62011 10.2763 6.57322 10.3232C6.52634 10.3701 6.5 10.4337 6.5 10.5C6.5 10.5663 6.52634 10.6299 6.57322 10.6768C6.62011 10.7237 6.6837 10.75 6.75 10.75H7C7.0663 10.75 7.12989 10.7237 7.17678 10.6768C7.22366 10.6299 7.25 10.5663 7.25 10.5C7.25 10.4337 7.22366 10.3701 7.17678 10.3232C7.12989 10.2763 7.0663 10.25 7 10.25Z" fill="#EC7623"/>
</svg>
