<svg width="512" height="512" viewBox="0 0 512 512" fill="none" xmlns="http://www.w3.org/2000/svg">
<path d="M204.91 461.28L175.28 495.91L164.89 485.52L108.32 427.95L96.0898 415.72L125.72 382.09L204.91 461.28Z" fill="white"/>
<path d="M256 264C251.582 264 248 267.582 248 272V280C248 284.418 251.582 288 256 288C260.418 288 264 284.418 264 280V272C264 267.582 260.418 264 256 264Z" fill="#EC7623"/>
<path d="M440.49 267.365L429.21 256.095C419.84 246.755 404.68 246.755 395.31 256.095L346.79 304.605C342.803 300.227 338.104 296.035 329.368 296.035L239.207 296.095C233.772 296.049 228.398 297.281 223.55 299.739C220.727 301.17 192.66 323.265 192.66 323.265C192.42 323.449 192.192 323.649 191.98 323.865L135.45 380.405L131.569 376.524C129.049 374.004 123.787 373.28 120.332 376.735C119.637 377.43 90.0898 410.335 90.0898 410.335C87.2998 413.504 87.4488 418.295 90.4298 421.285L169.62 501.475C172.819 504.674 177.5 504.875 181.36 501.015L210.99 466.385C213.708 463.211 213.525 458.48 210.57 455.525L203.24 448.205L215.6 435.835C217.086 434.355 219.093 433.515 221.19 433.495L299.22 432.905C305.493 432.84 311.489 430.315 315.92 425.875L440.49 301.315C449.864 291.939 449.864 276.741 440.49 267.365V267.365ZM174.82 484.045L170.6 479.815L113.98 422.195L107.06 415.275L126.09 393.675L194.02 461.605L174.82 484.045ZM429.18 289.995L304.62 414.555C303.146 416.036 301.149 416.879 299.06 416.905L221.07 417.495C214.766 417.521 208.73 420.05 204.29 424.525L194.67 434.145L149.5 388.985L202.97 335.505C202.97 335.505 227.939 315.888 229.521 314.889C232.592 312.948 236.161 311.934 239.794 311.97H328.693C332.706 311.97 337.001 315.082 337.001 319.905V335.905C336.995 340.321 333.417 343.899 329.001 343.905H257.275C253.014 343.905 249.294 347.12 249.018 351.372C248.716 356.031 252.406 359.905 257.001 359.905H329.001C342.249 359.887 352.983 349.153 353.001 335.905V321.035L406.621 267.405C409.74 264.3 414.782 264.3 417.901 267.405L429.181 278.685C432.302 281.809 432.302 286.871 429.18 289.995V289.995Z" fill="#EC7623"/>
<path d="M264 207.905C264 203.487 260.418 199.905 256 199.905C251.582 199.905 248 203.487 248 207.905V247.905C248 252.323 251.582 255.905 256 255.905C260.418 255.905 264 252.323 264 247.905V207.905Z" fill="#EC7623"/>
<path d="M280 199.905V263.905C280 268.323 283.582 271.905 288 271.905C292.418 271.905 296 268.323 296 263.905V199.905C296 195.487 292.418 191.905 288 191.905C283.582 191.905 280 195.487 280 199.905V199.905Z" fill="#EC7623"/>
<path d="M216 223.905V255.905C216 260.323 219.582 263.905 224 263.905C228.418 263.905 232 260.323 232 255.905V223.905C232 219.487 228.418 215.905 224 215.905C219.582 215.905 216 219.487 216 223.905V223.905Z" fill="#EC7623"/>
<path d="M248 140.5H248.01L248.02 140.5C260.343 140.486 272.157 135.585 280.871 126.871C289.585 118.157 294.486 106.343 294.5 94.0196V94.0098V94C294.5 84.8032 291.773 75.8129 286.663 68.166C281.554 60.5191 274.291 54.5591 265.795 51.0396C257.298 47.5202 247.949 46.5992 238.928 48.3935C229.908 50.1877 221.623 54.6163 215.12 61.1195C208.616 67.6227 204.188 75.9082 202.394 84.9283C200.599 93.9485 201.52 103.298 205.04 111.795C208.559 120.291 214.519 127.554 222.166 132.663C229.813 137.773 238.803 140.5 248 140.5ZM209.388 36.2129C220.815 28.5779 234.248 24.5019 247.99 24.5C266.418 24.5234 284.085 31.8541 297.115 44.8847C310.145 57.9146 317.476 75.58 317.5 94.0068C317.499 107.75 313.423 121.185 305.787 132.612C298.15 144.041 287.296 152.949 274.596 158.21C261.897 163.47 247.923 164.846 234.441 162.165C220.96 159.483 208.576 152.864 198.856 143.144C189.136 133.424 182.517 121.04 179.835 107.559C177.154 94.0771 178.53 80.1031 183.79 67.4036C189.051 54.7041 197.959 43.8496 209.388 36.2129Z" fill="white" stroke="#EC7623" stroke-width="35"/>
<circle cx="247.592" cy="152.008" r="17.5" fill="white" stroke="#EC7623" stroke-width="6.32601"/>
<circle cx="247.59" cy="152.008" r="17.5" fill="white" stroke="#EC7623" stroke-width="6.32601"/>
<circle cx="247.59" cy="36.0082" r="17.5" fill="white" stroke="#EC7623" stroke-width="6.32601"/>
<circle cx="206.575" cy="52.9824" r="17.5" transform="rotate(135 206.575 52.9824)" fill="white" stroke="#EC7623" stroke-width="6.32601"/>
<circle cx="288.598" cy="135.006" r="17.5" transform="rotate(135 288.598 135.006)" fill="white" stroke="#EC7623" stroke-width="6.32601"/>
<circle cx="288.61" cy="52.9822" r="17.5" transform="rotate(-135 288.61 52.9822)" fill="white" stroke="#EC7623" stroke-width="6.32601"/>
<circle cx="206.586" cy="135.007" r="17.5" transform="rotate(-135 206.586 135.007)" fill="white" stroke="#EC7623" stroke-width="6.32601"/>
<circle cx="305.6" cy="94.0011" r="17.5" transform="rotate(-90 305.6 94.0011)" fill="white" stroke="#EC7623" stroke-width="6.32601"/>
<circle cx="189.6" cy="94.0006" r="17.5" transform="rotate(-90 189.6 94.0006)" fill="white" stroke="#EC7623" stroke-width="6.32601"/>
</svg>
