<?xml version="1.0"?>
<svg xmlns="http://www.w3.org/2000/svg" xmlns:xlink="http://www.w3.org/1999/xlink" xmlns:svgjs="http://svgjs.com/svgjs" version="1.1" width="512" height="512" x="0" y="0" viewBox="0 0 512 512" style="enable-background:new 0 0 512 512" xml:space="preserve" class=""><g><g xmlns="http://www.w3.org/2000/svg"><g fill="#57a4ff"><path d="m292.24 42.12-142.08 73.88-46.16 24v5.54 146.46l56 24v-144l.62-.33 103.38-55.67 84.74-45.63z" fill="#211061" data-original="#57a4ff" style="" class=""/><path d="m440 334.24a88 88 0 1 0 40 73.76 87.5 87.5 0 0 0 -40-73.76z" fill="#211061" data-original="#57a4ff" style="" class=""/></g><g fill="#004fac"><path d="m448 330.07v-218.07a8.011 8.011 0 0 0 -4.42-7.16l-192-96a8.018 8.018 0 0 0 -6.93-.1l-208 96a7.978 7.978 0 0 0 -4.65 7.26v256a7.978 7.978 0 0 0 4.65 7.26l208 96a8 8 0 0 0 6.93-.1l51.92-25.97a95.99 95.99 0 1 0 144.5-115.12zm-116.62-263.44-171.04 92.1-43.82-20.22 175.79-91.41zm-179.38 105.87v127.37l-40-17.15v-128.68zm95.86-147.62 26.77 13.38-174.32 90.64a8.133 8.133 0 0 0 -1.81 1.29l-39.41-18.19zm-7.86 426.62-192-88.62v-238.38l48 22.16v141.34a8 8 0 0 0 4.85 7.35l56 24a7.866 7.866 0 0 0 3.15.65 8 8 0 0 0 8-8v-132.11l72 33.23zm7.86-252.38-69.35-32 170.37-91.74 73.23 36.62zm50.64 230.69-42.5 21.25v-238.12l176-88v195.8a96.021 96.021 0 0 0 -133.5 109.07zm93.5 58.19a80 80 0 1 1 80-80 80.093 80.093 0 0 1 -80 80z" fill="#ec7623" data-original="#004fac" style="" class=""/><path d="m426.343 386.343-42.343 42.344-18.343-18.344a8 8 0 0 0 -11.314 11.314l24 24a8 8 0 0 0 11.314 0l48-48a8 8 0 0 0 -11.314-11.314z" fill="#ec7623" data-original="#004fac" style="" class=""/></g></g></g></svg>
