<svg width="512" height="512" viewBox="0 0 512 512" fill="none" xmlns="http://www.w3.org/2000/svg">
<ellipse cx="416" cy="362.5" rx="75" ry="75.5" fill="white"/>
<path d="M432 108C432.001 105.373 431.484 102.772 430.479 100.345C429.474 97.9185 428.001 95.7134 426.144 93.8561C424.287 91.9988 422.081 90.5256 419.655 89.5208C417.228 88.516 414.627 87.9992 412 88H36C33.3733 87.9992 30.7723 88.516 28.3454 89.5208C25.9185 90.5256 23.7134 91.9988 21.8561 93.8561C19.9988 95.7134 18.5256 97.9185 17.5208 100.345C16.516 102.772 15.9992 105.373 16 108V136H432V108Z" fill="white"/>
<path d="M36 384H335.66L338.71 380.7C335.221 367.636 335.099 353.901 338.354 340.776C341.609 327.652 348.136 315.566 357.326 305.647C366.515 295.727 378.068 288.298 390.906 284.051C403.743 279.804 417.448 278.878 430.74 281.36L432 280V184H16V364C15.9992 366.627 16.516 369.228 17.5208 371.655C18.5256 374.081 19.9988 376.287 21.8561 378.144C23.7134 380.001 25.9185 381.474 28.3454 382.479C30.7723 383.484 33.3733 384.001 36 384ZM48 304H176V352H48V304Z" fill="white"/>
<path d="M176 296H48C45.8783 296 43.8434 296.843 42.3431 298.343C40.8429 299.843 40 301.878 40 304V352C40 354.122 40.8429 356.157 42.3431 357.657C43.8434 359.157 45.8783 360 48 360H176C178.122 360 180.157 359.157 181.657 357.657C183.157 356.157 184 354.122 184 352V304C184 301.878 183.157 299.843 181.657 298.343C180.157 296.843 178.122 296 176 296ZM168 344H56V312H168V344Z" fill="#EC7623"/>
<path d="M461.207 329.926C460.41 329.242 459.485 328.722 458.486 328.396C457.488 328.069 456.435 327.943 455.387 328.023C454.339 328.104 453.318 328.39 452.381 328.866C451.444 329.341 450.61 329.996 449.926 330.794L406.54 381.411L388.44 369.344C387.566 368.755 386.585 368.344 385.551 368.135C384.518 367.926 383.454 367.923 382.419 368.127C381.385 368.331 380.401 368.738 379.525 369.323C378.648 369.908 377.896 370.661 377.311 371.538C376.726 372.415 376.32 373.399 376.117 374.434C375.914 375.468 375.917 376.532 376.126 377.566C376.336 378.599 376.747 379.58 377.337 380.454C377.927 381.328 378.684 382.076 379.564 382.656L403.564 398.656C405.191 399.741 407.159 400.192 409.095 399.925C411.032 399.658 412.804 398.69 414.076 397.206L462.076 341.206C463.457 339.595 464.141 337.501 463.978 335.386C463.815 333.271 462.818 331.307 461.207 329.926Z" fill="#EC7623"/>
<path d="M440 275.33V108C439.992 100.576 437.039 93.4593 431.79 88.2101C426.541 82.9608 419.424 80.0082 412 80H36C28.5765 80.0082 21.4593 82.9608 16.2101 88.2101C10.9608 93.4593 8.00821 100.576 8 108V364C8.00821 371.424 10.9608 378.541 16.2101 383.79C21.4593 389.039 28.5765 391.992 36 392H334.02C339.469 405.955 348.391 418.288 359.94 427.831C371.489 437.373 385.283 443.809 400.015 446.529C414.747 449.249 429.93 448.163 444.125 443.374C458.32 438.585 471.057 430.251 481.13 419.162C491.204 408.072 498.279 394.595 501.686 380.007C505.094 365.418 504.72 350.201 500.601 335.797C496.482 321.393 488.754 308.279 478.149 297.698C467.544 287.116 454.413 279.417 440 275.33ZM24 108C24.0026 104.818 25.2678 101.768 27.5176 99.5176C29.7675 97.2678 32.8182 96.0026 36 96H412C415.182 96.0026 418.232 97.2678 420.482 99.5176C422.732 101.768 423.997 104.818 424 108V128H24V108ZM24 144H424V176H24V144ZM329.46 376H36C32.8182 375.997 29.7675 374.732 27.5176 372.482C25.2678 370.232 24.0026 367.182 24 364V192H424V272.37C421.36 272.13 418.7 272 416 272C403.09 272.005 390.338 274.85 378.65 280.332C366.961 285.814 356.622 293.801 348.364 303.725C340.106 313.649 334.132 325.267 330.865 337.758C327.598 350.248 327.119 363.304 329.46 376ZM416 432C401.76 432 387.839 427.777 375.999 419.866C364.159 411.954 354.93 400.709 349.481 387.553C344.031 374.397 342.605 359.92 345.383 345.953C348.162 331.987 355.019 319.158 365.088 309.088C375.158 299.019 387.987 292.162 401.953 289.383C415.92 286.605 430.397 288.031 443.553 293.481C456.709 298.93 467.954 308.159 475.866 319.999C483.777 331.839 488 345.76 488 360C487.978 379.089 480.385 397.39 466.887 410.887C453.39 424.385 435.089 431.978 416 432Z" fill="#EC7623"/>
</svg>
