<svg width="512" height="512" viewBox="0 0 512 512" fill="none" xmlns="http://www.w3.org/2000/svg">
<path d="M424 16H88C79.5131 16 71.3737 19.3714 65.3726 25.3726C59.3714 31.3737 56 39.5131 56 48V64H456V48C456 39.5131 452.629 31.3737 446.627 25.3726C440.626 19.3714 432.487 16 424 16ZM88 48C86.4177 48 84.871 47.5308 83.5554 46.6518C82.2398 45.7727 81.2145 44.5233 80.609 43.0615C80.0035 41.5997 79.845 39.9911 80.1537 38.4393C80.4624 36.8874 81.2243 35.462 82.3431 34.3431C83.462 33.2243 84.8874 32.4624 86.4393 32.1537C87.9911 31.845 89.5997 32.0035 91.0615 32.609C92.5233 33.2145 93.7727 34.2398 94.6518 35.5554C95.5308 36.871 96 38.4177 96 40C96 42.1217 95.1571 44.1566 93.6569 45.6569C92.1566 47.1571 90.1217 48 88 48ZM112 48C110.418 48 108.871 47.5308 107.555 46.6518C106.24 45.7727 105.214 44.5233 104.609 43.0615C104.003 41.5997 103.845 39.9911 104.154 38.4393C104.462 36.8874 105.224 35.462 106.343 34.3431C107.462 33.2243 108.887 32.4624 110.439 32.1537C111.991 31.845 113.6 32.0035 115.061 32.609C116.523 33.2145 117.773 34.2398 118.652 35.5554C119.531 36.871 120 38.4177 120 40C120 42.1217 119.157 44.1566 117.657 45.6569C116.157 47.1571 114.122 48 112 48ZM136 48C134.418 48 132.871 47.5308 131.555 46.6518C130.24 45.7727 129.214 44.5233 128.609 43.0615C128.003 41.5997 127.845 39.9911 128.154 38.4393C128.462 36.8874 129.224 35.462 130.343 34.3431C131.462 33.2243 132.887 32.4624 134.439 32.1537C135.991 31.845 137.6 32.0035 139.061 32.609C140.523 33.2145 141.773 34.2398 142.652 35.5554C143.531 36.871 144 38.4177 144 40C144 42.1217 143.157 44.1566 141.657 45.6569C140.157 47.1571 138.122 48 136 48Z" fill="white"/>
<path d="M88 48C92.4183 48 96 44.4183 96 40C96 35.5817 92.4183 32 88 32C83.5817 32 80 35.5817 80 40C80 44.4183 83.5817 48 88 48Z" fill="white"/>
<path d="M112 48C116.418 48 120 44.4183 120 40C120 35.5817 116.418 32 112 32C107.582 32 104 35.5817 104 40C104 44.4183 107.582 48 112 48Z" fill="white"/>
<path d="M136 48C140.418 48 144 44.4183 144 40C144 35.5817 140.418 32 136 32C131.582 32 128 35.5817 128 40C128 44.4183 131.582 48 136 48Z" fill="white"/>
<path d="M256 96H416V128H256V96Z" fill="white"/>
<path d="M256 232H416V264H256V232Z" fill="white"/>
<path d="M256 368H416V400H256V368Z" fill="white"/>
<path d="M256 96H416V128H256V96Z" fill="white"/>
<path d="M256 232H416V264H256V232Z" fill="white"/>
<path d="M256 368H416V400H256V368Z" fill="white"/>
<path d="M424 8H88C77.3946 8.01059 67.2266 12.2283 59.7274 19.7274C52.2283 27.2266 48.0106 37.3946 48 48V464C48.0106 474.605 52.2283 484.773 59.7274 492.273C67.2266 499.772 77.3946 503.989 88 504H424C434.605 503.989 444.773 499.772 452.273 492.273C459.772 484.773 463.989 474.605 464 464V48C463.989 37.3946 459.772 27.2266 452.273 19.7274C444.773 12.2283 434.605 8.01059 424 8ZM448 464C447.992 470.363 445.46 476.462 440.961 480.961C436.462 485.46 430.363 487.992 424 488H88C81.6374 487.992 75.5378 485.46 71.0388 480.961C66.5397 476.462 64.0085 470.363 64 464V72H448V464ZM448 56H64V48C64.0085 41.6374 66.5397 35.5378 71.0388 31.0388C75.5378 26.5397 81.6374 24.0085 88 24H424C430.363 24.0085 436.462 26.5397 440.961 31.0388C445.46 35.5378 447.992 41.6374 448 48V56Z" fill="#EC7623"/>
<path d="M88 48C92.4183 48 96 44.4183 96 40C96 35.5817 92.4183 32 88 32C83.5817 32 80 35.5817 80 40C80 44.4183 83.5817 48 88 48Z" fill="#EC7623"/>
<path d="M112 48C116.418 48 120 44.4183 120 40C120 35.5817 116.418 32 112 32C107.582 32 104 35.5817 104 40C104 44.4183 107.582 48 112 48Z" fill="#EC7623"/>
<path d="M136 48C140.418 48 144 44.4183 144 40C144 35.5817 140.418 32 136 32C131.582 32 128 35.5817 128 40C128 44.4183 131.582 48 136 48Z" fill="#EC7623"/>
<path d="M416 88H256C253.878 88 251.843 88.8429 250.343 90.3431C248.843 91.8434 248 93.8783 248 96V128C248 130.122 248.843 132.157 250.343 133.657C251.843 135.157 253.878 136 256 136H416C418.122 136 420.157 135.157 421.657 133.657C423.157 132.157 424 130.122 424 128V96C424 93.8783 423.157 91.8434 421.657 90.3431C420.157 88.8429 418.122 88 416 88ZM408 120H264V104H408V120Z" fill="#EC7623"/>
<path d="M416 144H256C253.878 144 251.843 144.843 250.343 146.343C248.843 147.843 248 149.878 248 152C248 154.122 248.843 156.157 250.343 157.657C251.843 159.157 253.878 160 256 160H416C418.122 160 420.157 159.157 421.657 157.657C423.157 156.157 424 154.122 424 152C424 149.878 423.157 147.843 421.657 146.343C420.157 144.843 418.122 144 416 144Z" fill="#EC7623"/>
<path d="M416 168H256C253.878 168 251.843 168.843 250.343 170.343C248.843 171.843 248 173.878 248 176C248 178.122 248.843 180.157 250.343 181.657C251.843 183.157 253.878 184 256 184H416C418.122 184 420.157 183.157 421.657 181.657C423.157 180.157 424 178.122 424 176C424 173.878 423.157 171.843 421.657 170.343C420.157 168.843 418.122 168 416 168Z" fill="#EC7623"/>
<path d="M256 208H352C354.122 208 356.157 207.157 357.657 205.657C359.157 204.157 360 202.122 360 200C360 197.878 359.157 195.843 357.657 194.343C356.157 192.843 354.122 192 352 192H256C253.878 192 251.843 192.843 250.343 194.343C248.843 195.843 248 197.878 248 200C248 202.122 248.843 204.157 250.343 205.657C251.843 207.157 253.878 208 256 208Z" fill="#EC7623"/>
<path d="M384 208C386.122 208 388.157 207.157 389.657 205.657C391.157 204.157 392 202.122 392 200C392 197.878 391.157 195.843 389.657 194.343C388.157 192.843 386.122 192 384 192H376C373.878 192 371.843 192.843 370.343 194.343C368.843 195.843 368 197.878 368 200C368 202.122 368.843 204.157 370.343 205.657C371.843 207.157 373.878 208 376 208H384Z" fill="#EC7623"/>
<path d="M416 224H256C253.878 224 251.843 224.843 250.343 226.343C248.843 227.843 248 229.878 248 232V264C248 266.122 248.843 268.157 250.343 269.657C251.843 271.157 253.878 272 256 272H416C418.122 272 420.157 271.157 421.657 269.657C423.157 268.157 424 266.122 424 264V232C424 229.878 423.157 227.843 421.657 226.343C420.157 224.843 418.122 224 416 224ZM408 256H264V240H408V256Z" fill="#EC7623"/>
<path d="M416 280H256C253.878 280 251.843 280.843 250.343 282.343C248.843 283.843 248 285.878 248 288C248 290.122 248.843 292.157 250.343 293.657C251.843 295.157 253.878 296 256 296H416C418.122 296 420.157 295.157 421.657 293.657C423.157 292.157 424 290.122 424 288C424 285.878 423.157 283.843 421.657 282.343C420.157 280.843 418.122 280 416 280Z" fill="#EC7623"/>
<path d="M416 304H256C253.878 304 251.843 304.843 250.343 306.343C248.843 307.843 248 309.878 248 312C248 314.122 248.843 316.157 250.343 317.657C251.843 319.157 253.878 320 256 320H416C418.122 320 420.157 319.157 421.657 317.657C423.157 316.157 424 314.122 424 312C424 309.878 423.157 307.843 421.657 306.343C420.157 304.843 418.122 304 416 304Z" fill="#EC7623"/>
<path d="M256 344H352C354.122 344 356.157 343.157 357.657 341.657C359.157 340.157 360 338.122 360 336C360 333.878 359.157 331.843 357.657 330.343C356.157 328.843 354.122 328 352 328H256C253.878 328 251.843 328.843 250.343 330.343C248.843 331.843 248 333.878 248 336C248 338.122 248.843 340.157 250.343 341.657C251.843 343.157 253.878 344 256 344Z" fill="#EC7623"/>
<path d="M384 344C386.122 344 388.157 343.157 389.657 341.657C391.157 340.157 392 338.122 392 336C392 333.878 391.157 331.843 389.657 330.343C388.157 328.843 386.122 328 384 328H376C373.878 328 371.843 328.843 370.343 330.343C368.843 331.843 368 333.878 368 336C368 338.122 368.843 340.157 370.343 341.657C371.843 343.157 373.878 344 376 344H384Z" fill="#EC7623"/>
<path d="M416 360H256C253.878 360 251.843 360.843 250.343 362.343C248.843 363.843 248 365.878 248 368V400C248 402.122 248.843 404.157 250.343 405.657C251.843 407.157 253.878 408 256 408H416C418.122 408 420.157 407.157 421.657 405.657C423.157 404.157 424 402.122 424 400V368C424 365.878 423.157 363.843 421.657 362.343C420.157 360.843 418.122 360 416 360ZM408 392H264V376H408V392Z" fill="#EC7623"/>
<path d="M416 416H256C253.878 416 251.843 416.843 250.343 418.343C248.843 419.843 248 421.878 248 424C248 426.122 248.843 428.157 250.343 429.657C251.843 431.157 253.878 432 256 432H416C418.122 432 420.157 431.157 421.657 429.657C423.157 428.157 424 426.122 424 424C424 421.878 423.157 419.843 421.657 418.343C420.157 416.843 418.122 416 416 416Z" fill="#EC7623"/>
<path d="M352 440H256C253.878 440 251.843 440.843 250.343 442.343C248.843 443.843 248 445.878 248 448C248 450.122 248.843 452.157 250.343 453.657C251.843 455.157 253.878 456 256 456H352C354.122 456 356.157 455.157 357.657 453.657C359.157 452.157 360 450.122 360 448C360 445.878 359.157 443.843 357.657 442.343C356.157 440.843 354.122 440 352 440Z" fill="#EC7623"/>
<path d="M384 440H376C373.878 440 371.843 440.843 370.343 442.343C368.843 443.843 368 445.878 368 448C368 450.122 368.843 452.157 370.343 453.657C371.843 455.157 373.878 456 376 456H384C386.122 456 388.157 455.157 389.657 453.657C391.157 452.157 392 450.122 392 448C392 445.878 391.157 443.843 389.657 442.343C388.157 440.843 386.122 440 384 440Z" fill="#EC7623"/>
<path d="M144 169.667L143.991 169.667C138.249 169.66 132.744 167.376 128.684 163.316C124.624 159.256 122.34 153.751 122.333 148.009V148C122.333 143.715 123.604 139.526 125.985 135.963C128.366 132.4 131.749 129.623 135.709 127.983C139.668 126.343 144.024 125.914 148.227 126.75C152.43 127.586 156.291 129.649 159.321 132.679C162.351 135.709 164.414 139.57 165.25 143.773C166.086 147.976 165.657 152.332 164.017 156.291C162.377 160.25 159.6 163.634 156.037 166.015C152.474 168.396 148.285 169.667 144 169.667ZM162.334 120.562C156.908 116.936 150.53 115.001 144.004 115C135.254 115.011 126.866 118.492 120.679 124.679C114.492 130.866 111.012 139.253 111 148.003C111.001 154.528 112.936 160.908 116.562 166.334C120.188 171.761 125.342 175.99 131.371 178.488C137.401 180.986 144.037 181.639 150.438 180.366C156.839 179.093 162.719 175.95 167.334 171.334C171.95 166.719 175.093 160.839 176.366 154.438C177.639 148.037 176.986 141.401 174.488 135.371C171.99 129.341 167.761 124.188 162.334 120.562Z" fill="white" stroke="#EC7623" stroke-width="16"/>
<circle r="8" transform="matrix(-1 0 0 1 144.193 175.337)" fill="white" stroke="#EC7623" stroke-width="3.47547"/>
<circle r="8" transform="matrix(-1 0 0 1 144.192 175.337)" fill="white" stroke="#EC7623" stroke-width="3.47547"/>
<circle r="8" transform="matrix(-1 0 0 1 144.192 120.671)" fill="white" stroke="#EC7623" stroke-width="3.47547"/>
<circle r="8" transform="matrix(0.707107 0.707107 0.707107 -0.707107 163.523 128.67)" fill="white" stroke="#EC7623" stroke-width="3.47547"/>
<circle r="8" transform="matrix(0.707107 0.707107 0.707107 -0.707107 124.867 167.325)" fill="white" stroke="#EC7623" stroke-width="3.47547"/>
<circle r="8" transform="matrix(0.707107 -0.707107 -0.707107 -0.707107 124.862 128.67)" fill="white" stroke="#EC7623" stroke-width="3.47547"/>
<circle r="8" transform="matrix(0.707107 -0.707107 -0.707107 -0.707107 163.518 167.325)" fill="white" stroke="#EC7623" stroke-width="3.47547"/>
<circle r="8" transform="matrix(0 -1 -1 0 116.856 148)" fill="white" stroke="#EC7623" stroke-width="3.47547"/>
<circle r="8" transform="matrix(0 -1 -1 0 171.522 148)" fill="white" stroke="#EC7623" stroke-width="3.47547"/>
<path d="M144 429.667L143.991 429.667C138.249 429.66 132.744 427.376 128.684 423.316C124.624 419.256 122.34 413.751 122.333 408.009V408C122.333 403.715 123.604 399.526 125.985 395.963C128.366 392.4 131.749 389.623 135.709 387.983C139.668 386.343 144.024 385.914 148.227 386.75C152.43 387.586 156.291 389.649 159.321 392.679C162.351 395.709 164.414 399.57 165.25 403.773C166.086 407.976 165.657 412.332 164.017 416.291C162.377 420.25 159.6 423.634 156.037 426.015C152.474 428.396 148.285 429.667 144 429.667ZM162.334 380.562C156.908 376.936 150.53 375.001 144.004 375C135.254 375.011 126.866 378.492 120.679 384.679C114.492 390.866 111.012 399.253 111 408.003C111.001 414.528 112.936 420.908 116.562 426.334C120.188 431.761 125.342 435.99 131.371 438.488C137.401 440.986 144.037 441.639 150.438 440.366C156.839 439.093 162.719 435.95 167.334 431.334C171.95 426.719 175.093 420.839 176.366 414.438C177.639 408.037 176.986 401.401 174.488 395.371C171.99 389.341 167.761 384.188 162.334 380.562Z" fill="white" stroke="#EC7623" stroke-width="16"/>
<circle r="8" transform="matrix(-1 0 0 1 144.193 435.337)" fill="white" stroke="#EC7623" stroke-width="3.47547"/>
<circle r="8" transform="matrix(-1 0 0 1 144.192 435.337)" fill="white" stroke="#EC7623" stroke-width="3.47547"/>
<circle r="8" transform="matrix(-1 0 0 1 144.192 380.671)" fill="white" stroke="#EC7623" stroke-width="3.47547"/>
<circle r="8" transform="matrix(0.707107 0.707107 0.707107 -0.707107 163.523 388.67)" fill="white" stroke="#EC7623" stroke-width="3.47547"/>
<circle r="8" transform="matrix(0.707107 0.707107 0.707107 -0.707107 124.867 427.325)" fill="white" stroke="#EC7623" stroke-width="3.47547"/>
<circle r="8" transform="matrix(0.707107 -0.707107 -0.707107 -0.707107 124.862 388.669)" fill="white" stroke="#EC7623" stroke-width="3.47547"/>
<circle r="8" transform="matrix(0.707107 -0.707107 -0.707107 -0.707107 163.518 427.325)" fill="white" stroke="#EC7623" stroke-width="3.47547"/>
<circle r="8" transform="matrix(0 -1 -1 0 116.856 408)" fill="white" stroke="#EC7623" stroke-width="3.47547"/>
<circle r="8" transform="matrix(0 -1 -1 0 171.522 408)" fill="white" stroke="#EC7623" stroke-width="3.47547"/>
<path d="M144 297.167L144.004 297.167C148.554 297.162 152.917 295.352 156.134 292.134C159.352 288.917 161.162 284.554 161.167 280.004V280C161.167 276.605 160.16 273.286 158.274 270.463C156.387 267.64 153.706 265.439 150.569 264.14C147.433 262.841 143.981 262.501 140.651 263.163C137.321 263.826 134.262 265.461 131.861 267.861C129.461 270.262 127.826 273.321 127.163 276.651C126.501 279.981 126.841 283.433 128.14 286.569C129.439 289.706 131.64 292.387 134.463 294.274C137.286 296.16 140.605 297.167 144 297.167ZM123.166 248.82C129.332 244.7 136.582 242.5 143.998 242.5C153.941 242.512 163.473 246.466 170.503 253.497C177.534 260.528 181.489 270.061 181.5 280.004C181.499 287.419 179.3 294.668 175.18 300.834C171.06 307.001 165.203 311.807 158.351 314.645C151.498 317.484 143.958 318.226 136.684 316.779C129.41 315.332 122.728 311.761 117.484 306.516C112.239 301.272 108.668 294.59 107.221 287.316C105.774 280.042 106.516 272.502 109.355 265.649C112.193 258.797 116.999 252.94 123.166 248.82Z" fill="white" stroke="#EC7623" stroke-width="7"/>
</svg>
