<?xml version="1.0"?>
<svg xmlns="http://www.w3.org/2000/svg" xmlns:xlink="http://www.w3.org/1999/xlink" xmlns:svgjs="http://svgjs.com/svgjs" version="1.1" width="512" height="512" x="0" y="0" viewBox="0 0 512 512" style="enable-background:new 0 0 512 512" xml:space="preserve" class=""><g><g xmlns="http://www.w3.org/2000/svg"><path d="m432 108a19.994 19.994 0 0 0 -20-20h-376a19.994 19.994 0 0 0 -20 20v28h416z" fill="#ffffff" data-original="#57a4ff" style="" class=""/><path d="m36 384h299.66l3.05-3.3a80.047 80.047 0 0 1 92.03-99.34l1.26-1.36v-96h-416v180a19.994 19.994 0 0 0 20 20zm12-80h128v48h-128z" fill="#ffffff" data-original="#57a4ff" style="" class=""/><g fill="#004fac"><path d="m176 296h-128a8 8 0 0 0 -8 8v48a8 8 0 0 0 8 8h128a8 8 0 0 0 8-8v-48a8 8 0 0 0 -8-8zm-8 48h-112v-32h112z" fill="#ec7623" data-original="#004fac" style="" class=""/><path d="m461.207 329.926a8 8 0 0 0 -11.281.868l-43.386 50.617-18.1-12.067a8 8 0 1 0 -8.876 13.312l24 16a8 8 0 0 0 10.512-1.45l48-56a8 8 0 0 0 -.869-11.28z" fill="#ec7623" data-original="#004fac" style="" class=""/><path d="m440 275.33v-167.33a28.031 28.031 0 0 0 -28-28h-376a28.031 28.031 0 0 0 -28 28v256a28.031 28.031 0 0 0 28 28h298.02a88 88 0 1 0 105.98-116.67zm-416-167.33a12.01 12.01 0 0 1 12-12h376a12.01 12.01 0 0 1 12 12v20h-400zm0 36h400v32h-400zm305.46 232h-293.46a12.01 12.01 0 0 1 -12-12v-172h400v80.37c-2.64-.24-5.3-.37-8-.37a88.034 88.034 0 0 0 -86.54 104zm86.54 56a72 72 0 1 1 72-72 72.083 72.083 0 0 1 -72 72z" fill="#ec7623" data-original="#004fac" style="" class=""/></g></g></g></svg>
