<svg width="512" height="512" viewBox="0 0 512 512" fill="none" xmlns="http://www.w3.org/2000/svg">
<path d="M204.91 461.28L175.28 495.91L164.89 485.52L108.32 427.95L96.0898 415.72L125.72 382.09L204.91 461.28Z" fill="white"/>
<path d="M256 264C251.582 264 248 267.582 248 272V280C248 284.418 251.582 288 256 288C260.418 288 264 284.418 264 280V272C264 267.582 260.418 264 256 264Z" fill="#EC7623"/>
<path d="M440.49 267.365L429.21 256.095C419.84 246.755 404.68 246.755 395.31 256.095L346.79 304.605C342.803 300.227 338.104 296.035 329.368 296.035L239.207 296.095C233.772 296.049 228.398 297.281 223.55 299.739C220.727 301.17 192.66 323.265 192.66 323.265C192.42 323.449 192.192 323.649 191.98 323.865L135.45 380.405L131.569 376.524C129.049 374.004 123.787 373.28 120.332 376.735C119.637 377.43 90.0898 410.335 90.0898 410.335C87.2998 413.504 87.4488 418.295 90.4298 421.285L169.62 501.475C172.819 504.674 177.5 504.875 181.36 501.015L210.99 466.385C213.708 463.211 213.525 458.48 210.57 455.525L203.24 448.205L215.6 435.835C217.086 434.355 219.093 433.515 221.19 433.495L299.22 432.905C305.493 432.84 311.489 430.315 315.92 425.875L440.49 301.315C449.864 291.939 449.864 276.741 440.49 267.365V267.365ZM174.82 484.045L170.6 479.815L113.98 422.195L107.06 415.275L126.09 393.675L194.02 461.605L174.82 484.045ZM429.18 289.995L304.62 414.555C303.146 416.036 301.149 416.879 299.06 416.905L221.07 417.495C214.766 417.521 208.73 420.05 204.29 424.525L194.67 434.145L149.5 388.985L202.97 335.505C202.97 335.505 227.939 315.888 229.521 314.889C232.592 312.948 236.161 311.934 239.794 311.97H328.693C332.706 311.97 337.001 315.082 337.001 319.905V335.905C336.995 340.321 333.417 343.899 329.001 343.905H257.275C253.014 343.905 249.294 347.12 249.018 351.372C248.716 356.031 252.406 359.905 257.001 359.905H329.001C342.249 359.887 352.983 349.153 353.001 335.905V321.035L406.621 267.405C409.74 264.3 414.782 264.3 417.901 267.405L429.181 278.685C432.302 281.809 432.302 286.871 429.18 289.995V289.995Z" fill="#EC7623"/>
<path d="M264 207.905C264 203.487 260.418 199.905 256 199.905C251.582 199.905 248 203.487 248 207.905V247.905C248 252.323 251.582 255.905 256 255.905C260.418 255.905 264 252.323 264 247.905V207.905Z" fill="#EC7623"/>
<path d="M280 199.905V263.905C280 268.323 283.582 271.905 288 271.905C292.418 271.905 296 268.323 296 263.905V199.905C296 195.487 292.418 191.905 288 191.905C283.582 191.905 280 195.487 280 199.905V199.905Z" fill="#EC7623"/>
<path d="M216 223.905V255.905C216 260.323 219.582 263.905 224 263.905C228.418 263.905 232 260.323 232 255.905V223.905C232 219.487 228.418 215.905 224 215.905C219.582 215.905 216 219.487 216 223.905V223.905Z" fill="#EC7623"/>
<path d="M255.992 41C244.721 41.0016 233.704 44.3445 224.333 50.6063C214.959 56.8695 207.653 65.7717 203.339 76.1871C199.025 86.6025 197.896 98.0632 200.095 109.12C202.295 120.177 207.723 130.333 215.695 138.305C223.667 146.277 233.823 151.705 244.88 153.905C255.937 156.104 267.397 154.975 277.813 150.661C288.228 146.347 297.131 139.041 303.394 129.667C309.654 120.298 312.997 109.284 313 98.0157L255.992 41ZM255.992 41C271.106 41.019 285.595 47.0312 296.282 57.7182C306.97 68.4067 312.983 82.8984 313 98.0142L255.992 41ZM256 135.667H256.008L256.016 135.667C265.998 135.655 275.568 131.685 282.627 124.627C289.685 117.568 293.655 107.998 293.667 98.0157L293.667 98.0079V98C293.667 90.5503 291.458 83.2678 287.319 77.0736C283.18 70.8793 277.297 66.0515 270.414 63.2006C263.532 60.3497 255.958 59.6037 248.652 61.0571C241.345 62.5105 234.633 66.0978 229.366 71.3656C224.098 76.6334 220.51 83.345 219.057 90.6516C217.604 97.9583 218.35 105.532 221.201 112.414C224.051 119.297 228.879 125.18 235.074 129.319C241.268 133.458 248.55 135.667 256 135.667Z" fill="white" stroke="#EC7623" stroke-width="28"/>
<circle cx="255.667" cy="145.34" r="14" fill="white" stroke="#EC7623" stroke-width="5.72582"/>
<circle cx="255.666" cy="145.34" r="14" fill="white" stroke="#EC7623" stroke-width="5.72582"/>
<circle cx="255.666" cy="50.6735" r="14" fill="white" stroke="#EC7623" stroke-width="5.72582"/>
<circle cx="222.192" cy="64.5259" r="14" transform="rotate(135 222.192 64.5259)" fill="white" stroke="#EC7623" stroke-width="5.72582"/>
<circle cx="289.132" cy="131.465" r="14" transform="rotate(135 289.132 131.465)" fill="white" stroke="#EC7623" stroke-width="5.72582"/>
<circle cx="289.142" cy="64.5258" r="14" transform="rotate(-135 289.142 64.5258)" fill="white" stroke="#EC7623" stroke-width="5.72582"/>
<circle cx="222.202" cy="131.465" r="14" transform="rotate(-135 222.202 131.465)" fill="white" stroke="#EC7623" stroke-width="5.72582"/>
<circle cx="303.006" cy="98.0004" r="14" transform="rotate(-90 303.006 98.0004)" fill="white" stroke="#EC7623" stroke-width="5.72582"/>
<circle cx="208.339" cy="98.0004" r="14" transform="rotate(-90 208.339 98.0004)" fill="white" stroke="#EC7623" stroke-width="5.72582"/>
</svg>
