<svg width="512" height="512" viewBox="0 0 512 512" fill="none" xmlns="http://www.w3.org/2000/svg">
<path d="M325.141 272.478L325.15 272.478C343.34 272.458 360.78 265.223 373.643 252.36C386.505 239.498 393.74 222.058 393.761 203.868V203.859C393.761 190.287 389.736 177.02 382.196 165.736C374.656 154.451 363.939 145.656 351.401 140.463C338.862 135.269 325.065 133.91 311.754 136.558C298.443 139.205 286.216 145.741 276.62 155.337C267.023 164.934 260.488 177.161 257.84 190.472C255.192 203.783 256.551 217.58 261.745 230.118C266.939 242.657 275.734 253.374 287.018 260.914C298.303 268.454 311.569 272.478 325.141 272.478ZM228.55 59.3006C257.14 40.1975 290.752 30.0009 325.137 30C371.232 30.053 415.424 48.3876 448.018 80.9818C480.613 113.577 498.948 157.771 499 203.868C498.998 238.251 488.801 271.861 469.699 300.449C450.595 329.04 423.442 351.324 391.674 364.483C359.905 377.642 324.948 381.085 291.223 374.377C288.159 373.767 286.796 372.731 286.091 371.912C285.33 371.028 284.619 369.56 284.31 366.927C283.637 361.2 285.132 353.226 287.409 342.927C287.599 342.067 287.794 341.194 287.992 340.308C290.009 331.263 292.304 320.976 292.671 311.391C293.078 300.771 291.209 289.343 282.573 280.707C275.553 273.687 266.146 267.164 256.402 260.956C251.787 258.016 247.298 255.266 242.827 252.527C237.308 249.146 231.816 245.781 226.146 242.095C216.255 235.666 207.366 229.204 200.585 222.406C193.79 215.596 189.641 208.972 188.313 202.298C184.954 185.41 176.616 175.032 170.443 167.348C169.341 165.976 168.308 164.691 167.385 163.47C164.274 159.354 162.492 156.205 161.843 152.728C161.212 149.349 161.479 144.659 164.517 137.326C177.676 105.557 199.959 78.4044 228.55 59.3006Z" fill="white" stroke="#EC7623" stroke-width="16"/>
<path d="M186.859 377.4H186.867C204.925 377.379 222.238 370.197 235.007 357.428C247.776 344.659 254.958 327.347 254.978 309.289V309.28C254.978 295.807 250.983 282.637 243.498 271.435C236.013 260.233 225.374 251.502 212.927 246.346C200.48 241.19 186.783 239.841 173.569 242.469C160.355 245.098 148.218 251.586 138.691 261.112C129.164 270.639 122.677 282.777 120.048 295.991C117.42 309.205 118.769 322.901 123.925 335.348C129.08 347.796 137.811 358.434 149.014 365.92C160.216 373.405 173.386 377.4 186.859 377.4ZM89.9903 164.306C118.662 145.148 152.371 134.922 186.855 134.921C233.082 134.974 277.401 153.362 310.089 186.05C342.778 218.739 361.166 263.059 361.218 309.289C361.216 343.771 350.99 377.478 331.833 406.149C312.674 434.822 285.443 457.17 253.583 470.367C221.723 483.563 186.665 487.016 152.843 480.289C119.021 473.561 87.9532 456.955 63.5687 432.57C39.1841 408.186 22.578 377.118 15.8503 343.296C9.12264 309.474 12.5756 274.416 25.7724 242.556C38.9692 210.696 61.3172 183.465 89.9903 164.306Z" fill="white" stroke="#EC7623" stroke-width="15"/>
<circle cx="187.5" cy="430.5" r="32" fill="white" stroke="#EC7623" stroke-width="15"/>
<circle cx="187.5" cy="188.5" r="32" fill="white" stroke="#EC7623" stroke-width="15"/>
<circle cx="101.939" cy="223.94" r="32" transform="rotate(135 101.939 223.94)" fill="white" stroke="#EC7623" stroke-width="15"/>
<circle cx="273.059" cy="395.06" r="32" transform="rotate(135 273.059 395.06)" fill="white" stroke="#EC7623" stroke-width="15"/>
<circle cx="273.061" cy="223.94" r="32" transform="rotate(-135 273.061 223.94)" fill="white" stroke="#EC7623" stroke-width="15"/>
<circle cx="101.94" cy="395.06" r="32" transform="rotate(-135 101.94 395.06)" fill="white" stroke="#EC7623" stroke-width="15"/>
<circle cx="308.5" cy="309.5" r="32" transform="rotate(-90 308.5 309.5)" fill="white" stroke="#EC7623" stroke-width="15"/>
<circle cx="66.5" cy="309.5" r="32" transform="rotate(-90 66.5 309.5)" fill="white" stroke="#EC7623" stroke-width="15"/>
</svg>
