<svg width="512" height="512" viewBox="0 0 512 512" fill="none" xmlns="http://www.w3.org/2000/svg">
<path d="M424 16H88C79.5131 16 71.3737 19.3714 65.3726 25.3726C59.3714 31.3737 56 39.5131 56 48V64H456V48C456 39.5131 452.629 31.3737 446.627 25.3726C440.626 19.3714 432.487 16 424 16ZM88 48C86.4177 48 84.871 47.5308 83.5554 46.6518C82.2398 45.7727 81.2145 44.5233 80.609 43.0615C80.0035 41.5997 79.845 39.9911 80.1537 38.4393C80.4624 36.8874 81.2243 35.462 82.3431 34.3431C83.462 33.2243 84.8874 32.4624 86.4393 32.1537C87.9911 31.845 89.5997 32.0035 91.0615 32.609C92.5233 33.2145 93.7727 34.2398 94.6518 35.5554C95.5308 36.871 96 38.4177 96 40C96 42.1217 95.1571 44.1566 93.6569 45.6569C92.1566 47.1571 90.1217 48 88 48ZM112 48C110.418 48 108.871 47.5308 107.555 46.6518C106.24 45.7727 105.214 44.5233 104.609 43.0615C104.003 41.5997 103.845 39.9911 104.154 38.4393C104.462 36.8874 105.224 35.462 106.343 34.3431C107.462 33.2243 108.887 32.4624 110.439 32.1537C111.991 31.845 113.6 32.0035 115.061 32.609C116.523 33.2145 117.773 34.2398 118.652 35.5554C119.531 36.871 120 38.4177 120 40C120 42.1217 119.157 44.1566 117.657 45.6569C116.157 47.1571 114.122 48 112 48ZM136 48C134.418 48 132.871 47.5308 131.555 46.6518C130.24 45.7727 129.214 44.5233 128.609 43.0615C128.003 41.5997 127.845 39.9911 128.154 38.4393C128.462 36.8874 129.224 35.462 130.343 34.3431C131.462 33.2243 132.887 32.4624 134.439 32.1537C135.991 31.845 137.6 32.0035 139.061 32.609C140.523 33.2145 141.773 34.2398 142.652 35.5554C143.531 36.871 144 38.4177 144 40C144 42.1217 143.157 44.1566 141.657 45.6569C140.157 47.1571 138.122 48 136 48Z" fill="white"/>
<path d="M88 48C92.4183 48 96 44.4183 96 40C96 35.5817 92.4183 32 88 32C83.5817 32 80 35.5817 80 40C80 44.4183 83.5817 48 88 48Z" fill="white"/>
<path d="M112 48C116.418 48 120 44.4183 120 40C120 35.5817 116.418 32 112 32C107.582 32 104 35.5817 104 40C104 44.4183 107.582 48 112 48Z" fill="white"/>
<path d="M136 48C140.418 48 144 44.4183 144 40C144 35.5817 140.418 32 136 32C131.582 32 128 35.5817 128 40C128 44.4183 131.582 48 136 48Z" fill="white"/>
<path d="M256 123H416V155H256V123Z" fill="white"/>
<path d="M256 331H416V363H256V331Z" fill="white"/>
<path d="M424 8H88C77.3946 8.01059 67.2266 12.2283 59.7274 19.7274C52.2283 27.2266 48.0106 37.3946 48 48V464C48.0106 474.605 52.2283 484.773 59.7274 492.273C67.2266 499.772 77.3946 503.989 88 504H424C434.605 503.989 444.773 499.772 452.273 492.273C459.772 484.773 463.989 474.605 464 464V48C463.989 37.3946 459.772 27.2266 452.273 19.7274C444.773 12.2283 434.605 8.01059 424 8V8ZM448 464C447.992 470.363 445.46 476.462 440.961 480.961C436.462 485.46 430.363 487.992 424 488H88C81.6374 487.992 75.5378 485.46 71.0388 480.961C66.5397 476.462 64.0085 470.363 64 464V72H448V464ZM448 56H64V48C64.0085 41.6374 66.5397 35.5378 71.0388 31.0388C75.5378 26.5397 81.6374 24.0085 88 24H424C430.363 24.0085 436.462 26.5397 440.961 31.0388C445.46 35.5378 447.992 41.6374 448 48V56Z" fill="#EC7623"/>
<path d="M88 48C92.4183 48 96 44.4183 96 40C96 35.5817 92.4183 32 88 32C83.5817 32 80 35.5817 80 40C80 44.4183 83.5817 48 88 48Z" fill="#EC7623"/>
<path d="M112 48C116.418 48 120 44.4183 120 40C120 35.5817 116.418 32 112 32C107.582 32 104 35.5817 104 40C104 44.4183 107.582 48 112 48Z" fill="#EC7623"/>
<path d="M136 48C140.418 48 144 44.4183 144 40C144 35.5817 140.418 32 136 32C131.582 32 128 35.5817 128 40C128 44.4183 131.582 48 136 48Z" fill="#EC7623"/>
<path d="M416 116H256C253.878 116 251.843 116.843 250.343 118.343C248.843 119.843 248 121.878 248 124V156C248 158.122 248.843 160.157 250.343 161.657C251.843 163.157 253.878 164 256 164H416C418.122 164 420.157 163.157 421.657 161.657C423.157 160.157 424 158.122 424 156V124C424 121.878 423.157 119.843 421.657 118.343C420.157 116.843 418.122 116 416 116ZM408 148H264V132H408V148Z" fill="#EC7623"/>
<path d="M416 172H256C253.878 172 251.843 172.843 250.343 174.343C248.843 175.843 248 177.878 248 180C248 182.122 248.843 184.157 250.343 185.657C251.843 187.157 253.878 188 256 188H416C418.122 188 420.157 187.157 421.657 185.657C423.157 184.157 424 182.122 424 180C424 177.878 423.157 175.843 421.657 174.343C420.157 172.843 418.122 172 416 172Z" fill="#EC7623"/>
<path d="M416 196H256C253.878 196 251.843 196.843 250.343 198.343C248.843 199.843 248 201.878 248 204C248 206.122 248.843 208.157 250.343 209.657C251.843 211.157 253.878 212 256 212H416C418.122 212 420.157 211.157 421.657 209.657C423.157 208.157 424 206.122 424 204C424 201.878 423.157 199.843 421.657 198.343C420.157 196.843 418.122 196 416 196Z" fill="#EC7623"/>
<path d="M256 236H352C354.122 236 356.157 235.157 357.657 233.657C359.157 232.157 360 230.122 360 228C360 225.878 359.157 223.843 357.657 222.343C356.157 220.843 354.122 220 352 220H256C253.878 220 251.843 220.843 250.343 222.343C248.843 223.843 248 225.878 248 228C248 230.122 248.843 232.157 250.343 233.657C251.843 235.157 253.878 236 256 236Z" fill="#EC7623"/>
<path d="M384 236C386.122 236 388.157 235.157 389.657 233.657C391.157 232.157 392 230.122 392 228C392 225.878 391.157 223.843 389.657 222.343C388.157 220.843 386.122 220 384 220H376C373.878 220 371.843 220.843 370.343 222.343C368.843 223.843 368 225.878 368 228C368 230.122 368.843 232.157 370.343 233.657C371.843 235.157 373.878 236 376 236H384Z" fill="#EC7623"/>
<path d="M416 323H256C253.878 323 251.843 323.843 250.343 325.343C248.843 326.843 248 328.878 248 331V363C248 365.122 248.843 367.157 250.343 368.657C251.843 370.157 253.878 371 256 371H416C418.122 371 420.157 370.157 421.657 368.657C423.157 367.157 424 365.122 424 363V331C424 328.878 423.157 326.843 421.657 325.343C420.157 323.843 418.122 323 416 323ZM408 355H264V339H408V355Z" fill="#EC7623"/>
<path d="M416 380H256C253.878 380 251.843 380.843 250.343 382.343C248.843 383.843 248 385.878 248 388C248 390.122 248.843 392.157 250.343 393.657C251.843 395.157 253.878 396 256 396H416C418.122 396 420.157 395.157 421.657 393.657C423.157 392.157 424 390.122 424 388C424 385.878 423.157 383.843 421.657 382.343C420.157 380.843 418.122 380 416 380Z" fill="#EC7623"/>
<path d="M416 404H256C253.878 404 251.843 404.843 250.343 406.343C248.843 407.843 248 409.878 248 412C248 414.122 248.843 416.157 250.343 417.657C251.843 419.157 253.878 420 256 420H416C418.122 420 420.157 419.157 421.657 417.657C423.157 416.157 424 414.122 424 412C424 409.878 423.157 407.843 421.657 406.343C420.157 404.843 418.122 404 416 404Z" fill="#EC7623"/>
<path d="M256 444H352C354.122 444 356.157 443.157 357.657 441.657C359.157 440.157 360 438.122 360 436C360 433.878 359.157 431.843 357.657 430.343C356.157 428.843 354.122 428 352 428H256C253.878 428 251.843 428.843 250.343 430.343C248.843 431.843 248 433.878 248 436C248 438.122 248.843 440.157 250.343 441.657C251.843 443.157 253.878 444 256 444Z" fill="#EC7623"/>
<path d="M384 444C386.122 444 388.157 443.157 389.657 441.657C391.157 440.157 392 438.122 392 436C392 433.878 391.157 431.843 389.657 430.343C388.157 428.843 386.122 428 384 428H376C373.878 428 371.843 428.843 370.343 430.343C368.843 431.843 368 433.878 368 436C368 438.122 368.843 440.157 370.343 441.657C371.843 443.157 373.878 444 376 444H384Z" fill="#EC7623"/>
<path d="M152 208L151.987 208C143.506 207.99 135.376 204.617 129.379 198.621C123.382 192.624 120.01 184.494 120 176.013V176C120 169.671 121.877 163.484 125.393 158.222C128.909 152.959 133.907 148.858 139.754 146.436C145.601 144.014 152.035 143.38 158.243 144.615C164.45 145.85 170.152 148.897 174.627 153.373C179.103 157.848 182.15 163.55 183.385 169.757C184.62 175.965 183.986 182.399 181.564 188.246C179.142 194.093 175.041 199.091 169.778 202.607C164.516 206.123 158.329 208 152 208ZM178.667 136.089C170.776 130.816 161.498 128.001 152.007 128C139.28 128.016 127.078 133.079 118.079 142.079C109.079 151.078 104.016 163.28 104 176.007C104.001 185.498 106.816 194.776 112.089 202.667C117.364 210.561 124.86 216.713 133.631 220.346C142.402 223.979 152.053 224.93 161.364 223.078C170.675 221.226 179.228 216.654 185.941 209.941C192.654 203.228 197.226 194.675 199.078 185.364C200.93 176.053 199.979 166.402 196.346 157.631C192.713 148.86 186.561 141.364 178.667 136.089Z" fill="white" stroke="#EC7623" stroke-width="24"/>
<circle r="12" transform="matrix(-1 0 0 1 152.282 216.006)" fill="white" stroke="#EC7623" stroke-width="4.50069"/>
<circle r="12" transform="matrix(-1 0 0 1 152.282 216.006)" fill="white" stroke="#EC7623" stroke-width="4.50069"/>
<circle r="12" transform="matrix(-1 0 0 1 152.282 136.006)" fill="white" stroke="#EC7623" stroke-width="4.50069"/>
<circle r="12" transform="matrix(0.707107 0.707107 0.707107 -0.707107 180.569 147.712)" fill="white" stroke="#EC7623" stroke-width="4.50069"/>
<circle r="12" transform="matrix(0.707107 0.707107 0.707107 -0.707107 124.001 204.28)" fill="white" stroke="#EC7623" stroke-width="4.50069"/>
<circle r="12" transform="matrix(0.707107 -0.707107 -0.707107 -0.707107 123.993 147.712)" fill="white" stroke="#EC7623" stroke-width="4.50069"/>
<circle r="12" transform="matrix(0.707107 -0.707107 -0.707107 -0.707107 180.562 204.28)" fill="white" stroke="#EC7623" stroke-width="4.50069"/>
<circle r="12" transform="matrix(0 -1 -1 0 112.276 176)" fill="white" stroke="#EC7623" stroke-width="4.50069"/>
<circle r="12" transform="matrix(0 -1 -1 0 192.276 176)" fill="white" stroke="#EC7623" stroke-width="4.50069"/>
<path d="M152 410L152.007 410C158.898 409.992 165.505 407.251 170.378 402.378C175.251 397.505 177.992 390.898 178 384.007V384C178 378.858 176.475 373.831 173.618 369.555C170.761 365.279 166.701 361.947 161.95 359.979C157.199 358.011 151.971 357.496 146.928 358.5C141.884 359.503 137.251 361.979 133.615 365.615C129.979 369.251 127.503 373.884 126.5 378.928C125.496 383.971 126.011 389.199 127.979 393.95C129.947 398.701 133.28 402.761 137.555 405.618C141.831 408.475 146.858 410 152 410ZM121.999 339.101C130.879 333.168 141.318 330.001 151.997 330C166.314 330.017 180.04 335.712 190.164 345.836C200.287 355.959 205.982 369.684 206 384C206 394.68 202.833 405.121 196.899 414.001C190.966 422.881 182.532 429.802 172.665 433.889C162.798 437.977 151.94 439.046 141.465 436.962C130.99 434.879 121.368 429.736 113.816 422.184C106.264 414.632 101.121 405.01 99.0376 394.535C96.954 384.06 98.0234 373.202 102.111 363.335C106.198 353.468 113.119 345.034 121.999 339.101Z" fill="white" stroke="#EC7623" stroke-width="12"/>
</svg>
