<svg width="512" height="512" viewBox="0 0 512 512" fill="none" xmlns="http://www.w3.org/2000/svg">
<path d="M64 128V294.67C76.1742 289.361 89.4788 287.166 102.713 288.284C115.948 289.402 128.696 293.797 139.807 301.073C150.918 308.349 160.043 318.277 166.358 329.962C172.673 341.646 175.98 354.718 175.98 368C175.98 381.282 172.673 394.354 166.358 406.038C160.043 417.723 150.918 427.651 139.807 434.927C128.696 442.203 115.948 446.598 102.713 447.716C89.4788 448.834 76.1742 446.639 64 441.33V496H496V128H64ZM144 224C139.253 224 134.613 222.592 130.666 219.955C126.72 217.318 123.643 213.57 121.827 209.184C120.01 204.799 119.535 199.973 120.461 195.318C121.387 190.662 123.673 186.386 127.029 183.029C130.386 179.673 134.662 177.387 139.318 176.461C143.973 175.535 148.799 176.01 153.184 177.827C157.57 179.643 161.318 182.72 163.955 186.666C166.592 190.613 168 195.253 168 200C167.998 206.365 165.469 212.468 160.969 216.969C156.468 221.469 150.365 223.998 144 224V224ZM304 224C299.253 224 294.613 222.592 290.666 219.955C286.72 217.318 283.643 213.57 281.827 209.184C280.01 204.799 279.535 199.973 280.461 195.318C281.387 190.662 283.673 186.386 287.029 183.029C290.386 179.673 294.662 177.387 299.318 176.461C303.973 175.535 308.799 176.01 313.184 177.827C317.57 179.643 321.318 182.72 323.955 186.666C326.592 190.613 328 195.253 328 200C327.998 206.365 325.469 212.468 320.969 216.969C316.468 221.469 310.365 223.998 304 224V224Z" fill="white"/>
<path d="M400 128H496V496H400V128Z" fill="white"/>
<path d="M496 120H432V95.9999C432.009 78.8543 427.007 62.0798 417.608 47.7397C408.21 33.3996 394.825 22.1193 379.1 15.2863C363.374 8.45327 345.995 6.36555 329.099 9.27992C312.203 12.1943 296.527 19.9837 284 31.6899C271.472 19.9837 255.796 12.1943 238.9 9.27992C222.004 6.36555 204.625 8.45327 188.9 15.2863C173.174 22.1193 159.789 33.3996 150.391 47.7397C140.992 62.0798 135.99 78.8543 136 95.9999V120H63.9996C61.8779 120 59.843 120.843 58.3428 122.343C56.8425 123.843 55.9996 125.878 55.9996 128V289.63C41.5528 297 29.4241 308.219 20.9535 322.049C12.4829 335.879 8 351.782 8 368C8 384.218 12.4829 400.12 20.9535 413.95C29.4241 427.781 41.5528 439 55.9996 446.37V496C55.9996 498.122 56.8425 500.156 58.3428 501.657C59.843 503.157 61.8779 504 63.9996 504H496C498.121 504 500.156 503.157 501.656 501.657C503.157 500.156 504 498.122 504 496V128C504 125.878 503.157 123.843 501.656 122.343C500.156 120.843 498.121 120 496 120ZM296 95.9999V120H272V95.9999C271.988 81.859 276.164 68.0312 284 56.2599C291.836 68.0312 296.011 81.859 296 95.9999ZM304 208C306.121 208 308.156 207.157 309.656 205.657C311.157 204.156 312 202.122 312 200V186.17C315.05 187.931 317.434 190.649 318.782 193.903C320.13 197.157 320.366 200.765 319.454 204.167C318.543 207.57 316.534 210.576 313.74 212.72C310.945 214.864 307.522 216.026 304 216.026C300.477 216.026 297.054 214.864 294.259 212.72C291.465 210.576 289.456 207.57 288.545 204.167C287.633 200.765 287.87 197.157 289.218 193.903C290.565 190.649 292.949 187.931 296 186.17V200C296 202.122 296.842 204.156 298.343 205.657C299.843 207.157 301.878 208 304 208ZM152 95.9999C151.99 81.9429 156.098 68.1909 163.817 56.4426C171.535 44.6943 182.526 35.4643 195.432 29.8927C208.337 24.3211 222.593 22.652 236.436 25.0916C250.28 27.5311 263.106 33.9724 273.33 43.6199C262.061 58.7569 255.982 77.1289 256 95.9999V120H152V95.9999ZM144 208C146.121 208 148.156 207.157 149.656 205.657C151.157 204.156 152 202.122 152 200V186.17C155.05 187.931 157.434 190.649 158.782 193.903C160.13 197.157 160.366 200.765 159.454 204.167C158.543 207.57 156.534 210.576 153.74 212.72C150.945 214.864 147.522 216.026 144 216.026C140.477 216.026 137.054 214.864 134.259 212.72C131.465 210.576 129.456 207.57 128.545 204.167C127.633 200.765 127.87 197.157 129.218 193.903C130.565 190.649 132.949 187.931 136 186.17V200C136 202.122 136.842 204.156 138.343 205.657C139.843 207.157 141.878 208 144 208ZM23.9996 368C23.9996 353.76 28.2223 339.839 36.1338 327.999C44.0453 316.159 55.2901 306.93 68.4464 301.481C81.6027 296.031 96.0795 294.605 110.046 297.383C124.013 300.161 136.842 307.019 146.911 317.088C156.981 327.158 163.838 339.987 166.616 353.953C169.394 367.92 167.968 382.397 162.519 395.553C157.069 408.709 147.841 419.954 136.001 427.866C124.16 435.777 110.24 440 95.9996 440C76.9108 439.978 58.61 432.385 45.1122 418.887C31.6143 405.389 24.0216 387.089 23.9996 368ZM392 488H71.9996V452.67C85.0883 456.377 98.8582 456.999 112.228 454.487C125.597 451.975 138.202 446.398 149.053 438.193C159.904 429.988 168.705 419.38 174.765 407.201C180.825 395.022 183.979 381.603 183.979 368C183.979 354.396 180.825 340.978 174.765 328.799C168.705 316.62 159.904 306.011 149.053 297.807C138.202 289.602 125.597 284.025 112.228 281.513C98.8582 279.001 85.0883 279.623 71.9996 283.33V136H136V169.01C128.458 170.957 121.886 175.588 117.515 182.034C113.143 188.48 111.273 196.299 112.255 204.026C113.236 211.752 117.002 218.856 122.846 224.004C128.69 229.153 136.211 231.994 144 231.994C151.788 231.994 159.309 229.153 165.153 224.004C170.998 218.856 174.763 211.752 175.745 204.026C176.726 196.299 174.856 188.48 170.484 182.034C166.113 175.588 159.541 170.957 152 169.01V136H296V169.01C288.458 170.957 281.886 175.588 277.515 182.034C273.144 188.48 271.273 196.299 272.255 204.026C273.236 211.752 277.002 218.856 282.846 224.004C288.69 229.153 296.211 231.994 304 231.994C311.788 231.994 319.309 229.153 325.153 224.004C330.998 218.856 334.763 211.752 335.745 204.026C336.726 196.299 334.856 188.48 330.484 182.034C326.113 175.588 319.541 170.957 312 169.01V136H392V488ZM312 120V95.9999C312.017 77.1289 305.938 58.7569 294.67 43.6199C304.893 33.9724 317.719 27.5311 331.563 25.0916C345.407 22.652 359.662 24.3211 372.567 29.8927C385.473 35.4643 396.464 44.6943 404.183 56.4426C411.901 68.1909 416.009 81.9429 416 95.9999V120H312ZM488 488H408V136H488V488Z" fill="#EC7623"/>
<path d="M448 432C450.122 432 452.157 431.157 453.657 429.657C455.157 428.157 456 426.122 456 424V152C456 149.878 455.157 147.843 453.657 146.343C452.157 144.843 450.122 144 448 144C445.878 144 443.843 144.843 442.343 146.343C440.843 147.843 440 149.878 440 152V424C440 426.122 440.843 428.157 442.343 429.657C443.843 431.157 445.878 432 448 432Z" fill="#EC7623"/>
<path d="M448 472C450.122 472 452.157 471.157 453.657 469.657C455.157 468.157 456 466.122 456 464V448C456 445.878 455.157 443.843 453.657 442.343C452.157 440.843 450.122 440 448 440C445.878 440 443.843 440.843 442.343 442.343C440.843 443.843 440 445.878 440 448V464C440 466.122 440.843 468.157 442.343 469.657C443.843 471.157 445.878 472 448 472Z" fill="#EC7623"/>
<path d="M97 415.167H97.0104L97.0208 415.167C109.785 415.152 122.023 410.075 131.049 401.049C140.075 392.023 145.152 379.785 145.167 367.021L145.167 367.01V367C145.167 357.474 142.342 348.161 137.049 340.24C131.757 332.319 124.234 326.145 115.433 322.5C106.631 318.854 96.9467 317.9 87.6031 319.759C78.2598 321.617 69.6773 326.205 62.941 332.941C56.2048 339.677 51.6174 348.26 49.7589 357.603C47.9003 366.947 48.8543 376.631 52.4999 385.433C56.1455 394.234 62.3191 401.756 70.2401 407.049C78.1611 412.342 87.4736 415.167 97 415.167ZM57.8323 308.381C69.4231 300.637 83.0496 296.502 96.9895 296.5C115.683 296.524 133.604 303.96 146.822 317.178C160.039 330.396 167.476 348.316 167.5 367.008C167.498 380.949 163.364 394.576 155.619 406.168C147.872 417.761 136.861 426.797 123.979 432.133C111.097 437.469 96.9218 438.866 83.2462 436.145C69.5706 433.425 57.0087 426.711 47.149 416.851C37.2894 406.991 30.5749 394.429 27.8547 380.754C25.1344 367.078 26.5306 352.903 31.8666 340.021C37.2026 327.139 46.2387 316.128 57.8323 308.381Z" fill="white" stroke="#EC7623" stroke-width="37"/>
<circle cx="97.1905" cy="425.333" r="18.5" fill="white" stroke="#EC7623" stroke-width="4.98844"/>
<circle cx="97.1886" cy="425.333" r="18.5" fill="white" stroke="#EC7623" stroke-width="4.98844"/>
<circle cx="97.1886" cy="307.473" r="18.5" fill="white" stroke="#EC7623" stroke-width="4.98844"/>
<circle cx="55.5157" cy="324.719" r="18.5" transform="rotate(135 55.5157 324.719)" fill="white" stroke="#EC7623" stroke-width="4.98844"/>
<circle cx="138.855" cy="408.058" r="18.5" transform="rotate(135 138.855 408.058)" fill="white" stroke="#EC7623" stroke-width="4.98844"/>
<circle cx="138.865" cy="324.719" r="18.5" transform="rotate(-135 138.865 324.719)" fill="white" stroke="#EC7623" stroke-width="4.98844"/>
<circle cx="55.5264" cy="408.059" r="18.5" transform="rotate(-135 55.5264 408.059)" fill="white" stroke="#EC7623" stroke-width="4.98844"/>
<circle cx="156.128" cy="366.394" r="18.5" transform="rotate(-90 156.128 366.394)" fill="white" stroke="#EC7623" stroke-width="4.98844"/>
<circle cx="38.2686" cy="366.394" r="18.5" transform="rotate(-90 38.2686 366.394)" fill="white" stroke="#EC7623" stroke-width="4.98844"/>
</svg>
