<svg width="493" height="512" viewBox="0 0 493 512" fill="none" xmlns="http://www.w3.org/2000/svg">
<path d="M333.616 116.722H16.1119L0.346837 386.595C-0.881168 407.608 6.39786 427.612 20.8399 442.923C35.283 458.235 54.8291 466.667 75.8771 466.667H272.563L343.447 285.005L333.616 116.722Z" fill="#211061"/>
<path d="M343.446 285.005L333.615 116.722H174.864V466.667H272.562L343.446 285.005Z" fill="#211061"/>
<path d="M262.635 184.31H232.635V87.771C232.635 55.916 206.719 30 174.864 30C143.009 30 117.092 55.916 117.092 87.771V184.309H87.0918V87.771C87.0908 39.374 126.466 0 174.864 0C223.262 0 262.635 39.374 262.635 87.771V184.31Z" fill="#F9F9F9"/>
<path d="M174.864 0V30C206.719 30 232.635 55.916 232.635 87.771V184.309H262.635V87.771C262.635 39.374 223.261 0 174.864 0V0Z" fill="#F9F9F9"/>
<path d="M437.567 475.86C485.724 427.703 485.724 349.625 437.567 301.467C389.41 253.31 311.331 253.31 263.174 301.467C215.017 349.625 215.017 427.703 263.174 475.86C311.331 524.018 389.41 524.018 437.567 475.86Z" fill="#F8F8F8"/>
<path d="M350.451 265.332V511.999C418.458 511.999 473.785 456.672 473.785 388.666C473.785 320.659 418.458 265.332 350.451 265.332V265.332Z" fill="#F9F9F9"/>
<path d="M334.132 443.797L285.407 388.689L307.882 368.817L335.099 399.602L391.467 341.214L413.05 362.05L334.132 443.797Z" fill="#EC7623"/>
<path d="M391.467 341.214L350.451 383.699V426.892L413.05 362.05L391.467 341.214Z" fill="#EC7623"/>
</svg>
