<svg width="512" height="512" viewBox="0 0 512 512" fill="none" xmlns="http://www.w3.org/2000/svg">
<path d="M354.1 399.602L326.882 368.817L304.407 388.689L353.132 443.797L432.051 362.05L410.468 341.214L354.1 399.602Z" fill="#EC7623"/>
<path d="M369.452 265.332C366.717 265.332 364.005 265.431 361.314 265.607L352.616 116.721H281.637V87.7713C281.636 39.3742 242.262 0 193.865 0C145.468 0 106.093 39.3742 106.093 87.7713V116.721H35.1132L19.3471 386.596C18.1201 407.609 25.3982 427.614 39.8412 442.925C54.2843 458.236 73.8304 466.668 94.8784 466.668H273.991C296.627 494.32 331.012 512 369.452 512C437.459 512 492.786 456.673 492.786 388.667C492.786 320.659 437.459 265.332 369.452 265.332V265.332ZM136.093 87.7713C136.093 55.9162 162.009 30.0001 193.864 30.0001C225.719 30.0001 251.636 55.9162 251.636 87.7713V116.721H136.093V87.7713ZM94.8784 436.668C82.1764 436.668 70.3803 431.579 61.6643 422.339C52.9483 413.099 48.5563 401.026 49.2963 388.346L63.4113 146.723H106.092V184.311H136.093V146.723H251.636V184.311H281.636V146.723H324.317L331.594 271.285C282.053 287.301 246.119 333.863 246.119 388.668C246.119 405.685 249.584 421.908 255.844 436.669H94.8784V436.668ZM369.452 482C317.988 482 276.119 440.131 276.119 388.667C276.119 337.201 317.988 295.332 369.452 295.332C420.917 295.332 462.786 337.201 462.786 388.667C462.786 440.131 420.917 482 369.452 482V482Z" fill="#EC7623"/>
</svg>
