<?xml version="1.0"?>
<svg xmlns="http://www.w3.org/2000/svg" xmlns:xlink="http://www.w3.org/1999/xlink" xmlns:svgjs="http://svgjs.com/svgjs" version="1.1" width="512" height="512" x="0" y="0" viewBox="0 0 512 512" style="enable-background:new 0 0 512 512" xml:space="preserve" class=""><g><g xmlns="http://www.w3.org/2000/svg"><g fill="#57a4ff"><path d="m176 344v80h208a40 40 0 0 0 80 0h32v-80zm248 96a16 16 0 1 1 16-16 16 16 0 0 1 -16 16z" fill="#f9f9f9" data-original="#57a4ff" style="" class=""/><path d="m96 384a40 40 0 1 0 40 40 40 40 0 0 0 -40-40zm0 56a16 16 0 1 1 16-16 16 16 0 0 1 -16 16z" fill="#f9f9f9" data-original="#57a4ff" style="" class=""/><path d="m16 312h128v-72h-80z" fill="#f9f9f9" data-original="#57a4ff" style="" class=""/><path d="m40 344h-24v32h24a16 16 0 0 0 0-32z" fill="#f9f9f9" data-original="#57a4ff" style="" class=""/><path d="m272 200h128v-48h-128v-24l-64 48 64 48z" fill="#f9f9f9" data-original="#57a4ff" style="" class=""/><path d="m272 272 64 48v-24h128v-48h-128v-24z" fill="#f9f9f9" data-original="#57a4ff" style="" class=""/></g><g fill="#004fac"><path d="m96 400a24 24 0 1 0 24 24 24.027 24.027 0 0 0 -24-24zm0 32a8 8 0 1 1 8-8 8.009 8.009 0 0 1 -8 8z" fill="#ec7623" data-original="#004fac" style="" class=""/><path d="m424 400a24 24 0 1 0 24 24 24.027 24.027 0 0 0 -24-24zm0 32a8 8 0 1 1 8-8 8.009 8.009 0 0 1 -8 8z" fill="#ec7623" data-original="#004fac" style="" class=""/><path d="m120 344h24a8 8 0 0 0 0-16h-24a8 8 0 0 0 0 16z" fill="#ec7623" data-original="#004fac" style="" class=""/><path d="m476 88h-280a28.031 28.031 0 0 0 -28 28v92h-88a8.033 8.033 0 0 0 -6.66 3.56l-64 96a8.066 8.066 0 0 0 -1.34 4.44v112a8 8 0 0 0 8 8h32.68a47.99 47.99 0 0 0 94.64 0h233.36a47.99 47.99 0 0 0 94.64 0h24.68a8 8 0 0 0 8-8v-308a28.031 28.031 0 0 0 -28-28zm-407.72 160h67.72v56h-105.05zm-44.28 104h16a8 8 0 0 1 0 16h-16zm72 104a32 32 0 1 1 32-32 32.036 32.036 0 0 1 -32 32zm72-40h-24.68a47.99 47.99 0 0 0 -94.64 0h-24.68v-32h16a24 24 0 0 0 0-48h-16v-16h120a8 8 0 0 0 8-8v-72a8 8 0 0 0 -8-8h-65.05l5.33-8h83.72zm256 40a32 32 0 1 1 32-32 32.036 32.036 0 0 1 -32 32zm64-40h-16.68a47.99 47.99 0 0 0 -94.64 0h-192.68v-64h304zm0-80h-304v-220a12.01 12.01 0 0 1 12-12h280a12.01 12.01 0 0 1 12 12z" fill="#ec7623" data-original="#004fac" style="" class=""/><path d="m203.2 182.4 64 48a8 8 0 0 0 12.8-6.4v-16h120a8 8 0 0 0 8-8v-48a8 8 0 0 0 -8-8h-120v-16a8 8 0 0 0 -12.8-6.4l-64 48a8 8 0 0 0 0 12.8zm60.8-38.4v8a8 8 0 0 0 8 8h120v32h-120a8 8 0 0 0 -8 8v8l-42.667-32z" fill="#ec7623" data-original="#004fac" style="" class=""/><path d="m344 224a8 8 0 0 0 -12.8-6.4l-64 48a8 8 0 0 0 0 12.8l64 48a8 8 0 0 0 12.8-6.4v-16h120a8 8 0 0 0 8-8v-48a8 8 0 0 0 -8-8h-120zm112 32v32h-120a8 8 0 0 0 -8 8v8l-42.667-32 42.667-32v8a8 8 0 0 0 8 8z" fill="#ec7623" data-original="#004fac" style="" class=""/></g></g></g></svg>
