<svg width="64" height="64" viewBox="0 0 64 64" fill="none" xmlns="http://www.w3.org/2000/svg">
<circle cx="32" cy="32" r="32" fill="white"/>
<path d="M9.80646 16.0968V53.1936H53.3549V16.0968H9.80646ZM17.871 50.7742H12.2258V45.9355H17.871V50.7742ZM17.871 25.7742C17.3925 25.7742 16.9247 25.6323 16.5269 25.3665C16.129 25.1006 15.8189 24.7228 15.6358 24.2807C15.4527 23.8386 15.4048 23.3522 15.4981 22.8828C15.5915 22.4135 15.8219 21.9824 16.1602 21.6441C16.4986 21.3057 16.9297 21.0753 17.399 20.982C17.8683 20.8886 18.3547 20.9365 18.7968 21.1196C19.2389 21.3028 19.6168 21.6129 19.8826 22.0107C20.1484 22.4086 20.2903 22.8763 20.2903 23.3548C20.2902 23.9964 20.0352 24.6117 19.5815 25.0654C19.1279 25.5191 18.5126 25.774 17.871 25.7742V25.7742ZM34 25.7742C33.5215 25.7742 33.0538 25.6323 32.6559 25.3665C32.258 25.1006 31.9479 24.7228 31.7648 24.2807C31.5817 23.8386 31.5338 23.3522 31.6271 22.8828C31.7205 22.4135 31.9509 21.9824 32.2893 21.6441C32.6276 21.3057 33.0587 21.0753 33.528 20.982C33.9973 20.8886 34.4838 20.9365 34.9259 21.1196C35.3679 21.3028 35.7458 21.6129 36.0116 22.0107C36.2775 22.4086 36.4194 22.8763 36.4194 23.3548C36.4192 23.9964 36.1643 24.6117 35.7106 25.0654C35.2569 25.5191 34.6416 25.774 34 25.7742V25.7742Z" fill="white"/>
<path d="M43.6774 16.0968H53.3549V53.1936H43.6774V16.0968Z" fill="white"/>
<path d="M53.3548 15.2903H46.9032V12.871C46.9042 11.1426 46.3999 9.4516 45.4525 8.00602C44.5051 6.56044 43.1558 5.42332 41.5706 4.7345C39.9854 4.04569 38.2334 3.83524 36.5302 4.12902C34.8269 4.42281 33.2467 5.20803 31.9839 6.3881C30.721 5.20803 29.1408 4.42281 27.4376 4.12902C25.7343 3.83524 23.9824 4.04569 22.3972 4.7345C20.812 5.42332 19.4627 6.56044 18.5152 8.00602C17.5678 9.4516 17.0636 11.1426 17.0645 12.871V15.2903H9.80645C9.59257 15.2903 9.38744 15.3753 9.2362 15.5265C9.08497 15.6778 9 15.8829 9 16.0968V53.1935C9 53.4074 9.08497 53.6126 9.2362 53.7638C9.38744 53.915 9.59257 54 9.80645 54H53.3548C53.5687 54 53.7739 53.915 53.9251 53.7638C54.0763 53.6126 54.1613 53.4074 54.1613 53.1935V16.0968C54.1613 15.8829 54.0763 15.6778 53.9251 15.5265C53.7739 15.3753 53.5687 15.2903 53.3548 15.2903ZM33.1936 12.871V15.2903H30.7742V12.871C30.773 11.4455 31.194 10.0515 31.9839 8.86491C32.7738 10.0515 33.1947 11.4455 33.1936 12.871ZM34 24.1613C34.2139 24.1613 34.419 24.0763 34.5703 23.9251C34.7215 23.7738 34.8065 23.5687 34.8065 23.3548V21.9607C35.1139 22.1382 35.3543 22.4122 35.4901 22.7403C35.626 23.0683 35.6498 23.432 35.5579 23.7749C35.4661 24.1179 35.2636 24.421 34.9819 24.6371C34.7002 24.8532 34.3551 24.9704 34 24.9704C33.645 24.9704 33.2998 24.8532 33.0181 24.6371C32.7364 24.421 32.534 24.1179 32.4421 23.7749C32.3502 23.432 32.374 23.0683 32.5099 22.7403C32.6458 22.4122 32.8861 22.1382 33.1936 21.9607V23.3548C33.1936 23.5687 33.2785 23.7738 33.4298 23.9251C33.581 24.0763 33.7861 24.1613 34 24.1613ZM18.6774 12.871C18.6764 11.4539 19.0906 10.0676 19.8686 8.88333C20.6467 7.69902 21.7547 6.76858 23.0557 6.20693C24.3566 5.64528 25.7936 5.47702 27.1892 5.72294C28.5847 5.96886 29.8776 6.61819 30.9083 7.59072C29.7723 9.11663 29.1596 10.9686 29.1613 12.871V15.2903H18.6774V12.871ZM17.871 24.1613C18.0849 24.1613 18.29 24.0763 18.4412 23.9251C18.5925 23.7738 18.6774 23.5687 18.6774 23.3548V21.9607C18.9849 22.1382 19.2252 22.4122 19.3611 22.7403C19.497 23.0683 19.5208 23.432 19.4289 23.7749C19.337 24.1179 19.1345 24.421 18.8528 24.6371C18.5712 24.8532 18.226 24.9704 17.871 24.9704C17.5159 24.9704 17.1708 24.8532 16.8891 24.6371C16.6074 24.421 16.4049 24.1179 16.313 23.7749C16.2211 23.432 16.245 23.0683 16.3808 22.7403C16.5167 22.4122 16.757 22.1382 17.0645 21.9607V23.3548C17.0645 23.5687 17.1495 23.7738 17.3007 23.9251C17.452 24.0763 17.6571 24.1613 17.871 24.1613ZM42.871 52.3871H10.6129V16.9032H17.0645V20.2308C16.3043 20.4271 15.6418 20.8939 15.2011 21.5437C14.7605 22.1936 14.5719 22.9818 14.6709 23.7607C14.7698 24.5396 15.1494 25.2556 15.7385 25.7746C16.3276 26.2937 17.0858 26.58 17.871 26.58C18.6561 26.58 19.4143 26.2937 20.0034 25.7746C20.5925 25.2556 20.9721 24.5396 21.0711 23.7607C21.17 22.9818 20.9815 22.1936 20.5408 21.5437C20.1002 20.8939 19.4376 20.4271 18.6774 20.2308V16.9032H33.1936V20.2308C32.4333 20.4271 31.7708 20.8939 31.3302 21.5437C30.8895 22.1936 30.701 22.9818 30.7999 23.7607C30.8988 24.5396 31.2784 25.2556 31.8676 25.7746C32.4567 26.2937 33.2149 26.58 34 26.58C34.7851 26.58 35.5433 26.2937 36.1325 25.7746C36.7216 25.2556 37.1012 24.5396 37.2001 23.7607C37.299 22.9818 37.1105 22.1936 36.6698 21.5437C36.2292 20.8939 35.5667 20.4271 34.8065 20.2308V16.9032H42.871V52.3871ZM34.8065 15.2903V12.871C34.8082 10.9686 34.1955 9.11663 33.0595 7.59072C34.0901 6.61819 35.383 5.96886 36.7786 5.72294C38.1741 5.47702 39.6111 5.64528 40.9121 6.20693C42.2131 6.76858 43.321 7.69902 44.0991 8.88333C44.8772 10.0676 45.2913 11.4539 45.2903 12.871V15.2903H34.8065ZM52.5484 52.3871H44.4839V16.9032H52.5484V52.3871Z" fill="#EC7623"/>
<path d="M48.5161 46.7419C48.73 46.7419 48.9351 46.657 49.0864 46.5057C49.2376 46.3545 49.3226 46.1494 49.3226 45.9355V18.5161C49.3226 18.3022 49.2376 18.0971 49.0864 17.9459C48.9351 17.7946 48.73 17.7097 48.5161 17.7097C48.3022 17.7097 48.0971 17.7946 47.9459 17.9459C47.7946 18.0971 47.7097 18.3022 47.7097 18.5161V45.9355C47.7097 46.1494 47.7946 46.3545 47.9459 46.5057C48.0971 46.657 48.3022 46.7419 48.5161 46.7419Z" fill="#EC7623"/>
<path d="M48.5161 50.7742C48.73 50.7742 48.9351 50.6892 49.0864 50.538C49.2376 50.3868 49.3226 50.1816 49.3226 49.9678V48.3549C49.3226 48.141 49.2376 47.9358 49.0864 47.7846C48.9351 47.6334 48.73 47.5484 48.5161 47.5484C48.3022 47.5484 48.0971 47.6334 47.9459 47.7846C47.7946 47.9358 47.7097 48.141 47.7097 48.3549V49.9678C47.7097 50.1816 47.7946 50.3868 47.9459 50.538C48.0971 50.6892 48.3022 50.7742 48.5161 50.7742Z" fill="#EC7623"/>
<path d="M17.871 45.129H12.2258C12.0119 45.129 11.8068 45.2139 11.6556 45.3652C11.5043 45.5164 11.4194 45.7215 11.4194 45.9354V50.7741C11.4194 50.988 11.5043 51.1931 11.6556 51.3444C11.8068 51.4956 12.0119 51.5806 12.2258 51.5806H17.871C18.0849 51.5806 18.29 51.4956 18.4412 51.3444C18.5925 51.1931 18.6774 50.988 18.6774 50.7741V45.9354C18.6774 45.7215 18.5925 45.5164 18.4412 45.3652C18.29 45.2139 18.0849 45.129 17.871 45.129ZM17.0645 49.9677H13.0323V46.7419H17.0645V49.9677Z" fill="#EC7623"/>
<path d="M28.3548 45.129H20.2903C20.0764 45.129 19.8713 45.2139 19.7201 45.3652C19.5688 45.5164 19.4839 45.7215 19.4839 45.9354C19.4839 46.1493 19.5688 46.3544 19.7201 46.5057C19.8713 46.6569 20.0764 46.7419 20.2903 46.7419H28.3548C28.5687 46.7419 28.7739 46.6569 28.9251 46.5057C29.0763 46.3544 29.1613 46.1493 29.1613 45.9354C29.1613 45.7215 29.0763 45.5164 28.9251 45.3652C28.7739 45.2139 28.5687 45.129 28.3548 45.129Z" fill="#EC7623"/>
<path d="M28.3548 47.5484H20.2903C20.0764 47.5484 19.8713 47.6334 19.7201 47.7846C19.5688 47.9358 19.4839 48.141 19.4839 48.3549C19.4839 48.5687 19.5688 48.7739 19.7201 48.9251C19.8713 49.0763 20.0764 49.1613 20.2903 49.1613H28.3548C28.5687 49.1613 28.7739 49.0763 28.9251 48.9251C29.0763 48.7739 29.1613 48.5687 29.1613 48.3549C29.1613 48.141 29.0763 47.9358 28.9251 47.7846C28.7739 47.6334 28.5687 47.5484 28.3548 47.5484Z" fill="#EC7623"/>
<path d="M24.3226 49.9677H20.2903C20.0764 49.9677 19.8713 50.0527 19.7201 50.2039C19.5688 50.3552 19.4839 50.5603 19.4839 50.7742C19.4839 50.988 19.5688 51.1932 19.7201 51.3444C19.8713 51.4957 20.0764 51.5806 20.2903 51.5806H24.3226C24.5365 51.5806 24.7416 51.4957 24.8928 51.3444C25.0441 51.1932 25.129 50.988 25.129 50.7742C25.129 50.5603 25.0441 50.3552 24.8928 50.2039C24.7416 50.0527 24.5365 49.9677 24.3226 49.9677Z" fill="#EC7623"/>
<path d="M27.5484 49.9677H26.7419C26.5281 49.9677 26.3229 50.0527 26.1717 50.2039C26.0205 50.3552 25.9355 50.5603 25.9355 50.7742C25.9355 50.988 26.0205 51.1932 26.1717 51.3444C26.3229 51.4957 26.5281 51.5806 26.7419 51.5806H27.5484C27.7623 51.5806 27.9674 51.4957 28.1186 51.3444C28.2699 51.1932 28.3548 50.988 28.3548 50.7742C28.3548 50.5603 28.2699 50.3552 28.1186 50.2039C27.9674 50.0527 27.7623 49.9677 27.5484 49.9677Z" fill="#EC7623"/>
</svg>
