<svg width="58" height="64" viewBox="0 0 58 64" fill="none" xmlns="http://www.w3.org/2000/svg">
<path d="M1.03226 15.4839V62.9677H56.7742V15.4839H1.03226ZM11.3548 59.871H4.12903V53.6774H11.3548V59.871ZM11.3548 27.871C10.7424 27.871 10.1436 27.6893 9.63436 27.3491C9.1251 27.0088 8.72818 26.5251 8.49379 25.9593C8.25941 25.3934 8.19808 24.7707 8.31757 24.17C8.43706 23.5693 8.732 23.0175 9.16509 22.5844C9.59818 22.1513 10.15 21.8564 10.7507 21.7369C11.3514 21.6174 11.9741 21.6787 12.5399 21.9131C13.1058 22.1475 13.5894 22.5444 13.9297 23.0537C14.27 23.563 14.4516 24.1617 14.4516 24.7742C14.4514 25.5954 14.1251 26.383 13.5444 26.9637C12.9637 27.5444 12.1761 27.8708 11.3548 27.871V27.871ZM32 27.871C31.3875 27.871 30.7888 27.6893 30.2795 27.3491C29.7703 27.0088 29.3733 26.5251 29.139 25.9593C28.9046 25.3934 28.8432 24.7707 28.9627 24.17C29.0822 23.5693 29.3772 23.0175 29.8103 22.5844C30.2433 22.1513 30.7951 21.8564 31.3959 21.7369C31.9966 21.6174 32.6192 21.6787 33.1851 21.9131C33.7509 22.1475 34.2346 22.5444 34.5749 23.0537C34.9152 23.563 35.0968 24.1617 35.0968 24.7742C35.0966 25.5954 34.7702 26.383 34.1895 26.9637C33.6088 27.5444 32.8213 27.8708 32 27.871V27.871Z" fill="white"/>
<path d="M44.3871 15.4839H56.7742V62.9677H44.3871V15.4839Z" fill="white"/>
<path d="M56.7742 14.4516H48.5161V11.3548C48.5174 9.14249 47.8719 6.97804 46.6592 5.12771C45.4465 3.27737 43.7194 1.82185 41.6903 0.940166C39.6613 0.0584863 37.4188 -0.210897 35.2386 0.165152C33.0585 0.5412 31.0358 1.54628 29.4194 3.05676C27.8029 1.54628 25.7802 0.5412 23.6001 0.165152C21.42 -0.210897 19.1774 0.0584863 17.1484 0.940166C15.1193 1.82185 13.3922 3.27737 12.1795 5.12771C10.9668 6.97804 10.3214 9.14249 10.3226 11.3548V14.4516H1.03226C0.758486 14.4516 0.495928 14.5604 0.302342 14.7539C0.108756 14.9475 0 15.2101 0 15.4839V62.9677C0 63.2415 0.108756 63.5041 0.302342 63.6977C0.495928 63.8912 0.758486 64 1.03226 64H56.7742C57.048 64 57.3105 63.8912 57.5041 63.6977C57.6977 63.5041 57.8065 63.2415 57.8065 62.9677V15.4839C57.8065 15.2101 57.6977 14.9475 57.5041 14.7539C57.3105 14.5604 57.048 14.4516 56.7742 14.4516ZM30.9677 11.3548V14.4516H27.871V11.3548C27.8695 9.53019 28.4083 7.74596 29.4194 6.22709C30.4305 7.74596 30.9692 9.53019 30.9677 11.3548ZM32 25.8064C32.2738 25.8064 32.5363 25.6977 32.7299 25.5041C32.9235 25.3105 33.0323 25.048 33.0323 24.7742V22.9897C33.4258 23.2169 33.7335 23.5677 33.9074 23.9875C34.0813 24.4074 34.1118 24.8729 33.9942 25.3119C33.8765 25.7509 33.6174 26.1388 33.2568 26.4155C32.8962 26.6921 32.4545 26.8421 32 26.8421C31.5455 26.8421 31.1038 26.6921 30.7432 26.4155C30.3827 26.1388 30.1235 25.7509 30.0058 25.3119C29.8882 24.8729 29.9187 24.4074 30.0926 23.9875C30.2666 23.5677 30.5742 23.2169 30.9677 22.9897V24.7742C30.9677 25.048 31.0765 25.3105 31.2701 25.5041C31.4637 25.6977 31.7262 25.8064 32 25.8064ZM12.3871 11.3548C12.3858 9.54102 12.9159 7.76657 13.9119 6.25066C14.9078 4.73475 16.326 3.54378 17.9912 2.82487C19.6565 2.10595 21.4959 1.89059 23.2822 2.20537C25.0684 2.52014 26.7234 3.35128 28.0426 4.59612C26.5885 6.54928 25.8042 8.91985 25.8065 11.3548V14.4516H12.3871V11.3548ZM11.3548 25.8064C11.6286 25.8064 11.8912 25.6977 12.0848 25.5041C12.2783 25.3105 12.3871 25.048 12.3871 24.7742V22.9897C12.7807 23.2169 13.0883 23.5677 13.2622 23.9875C13.4361 24.4074 13.4666 24.8729 13.349 25.3119C13.2314 25.7509 12.9722 26.1388 12.6116 26.4155C12.2511 26.6921 11.8093 26.8421 11.3548 26.8421C10.9004 26.8421 10.4586 26.6921 10.098 26.4155C9.73749 26.1388 9.4783 25.7509 9.36067 25.3119C9.24305 24.8729 9.27356 24.4074 9.44748 23.9875C9.62139 23.5677 9.929 23.2169 10.3226 22.9897V24.7742C10.3226 25.048 10.4313 25.3105 10.6249 25.5041C10.8185 25.6977 11.0811 25.8064 11.3548 25.8064ZM43.3548 61.9355H2.06452V16.5161H10.3226V20.7755C9.34952 21.0267 8.50148 21.6242 7.93744 22.456C7.37341 23.2878 7.13209 24.2967 7.25872 25.2937C7.38535 26.2906 7.87124 27.2072 8.62531 27.8716C9.37938 28.5359 10.3499 28.9024 11.3548 28.9024C12.3598 28.9024 13.3303 28.5359 14.0844 27.8716C14.8384 27.2072 15.3243 26.2906 15.451 25.2937C15.5776 24.2967 15.3363 23.2878 14.7722 22.456C14.2082 21.6242 13.3602 21.0267 12.3871 20.7755V16.5161H30.9677V20.7755C29.9947 21.0267 29.1466 21.6242 28.5826 22.456C28.0186 23.2878 27.7773 24.2967 27.9039 25.2937C28.0305 26.2906 28.5164 27.2072 29.2705 27.8716C30.0245 28.5359 30.995 28.9024 32 28.9024C33.005 28.9024 33.9755 28.5359 34.7295 27.8716C35.4836 27.2072 35.9695 26.2906 36.0961 25.2937C36.2228 24.2967 35.9814 23.2878 35.4174 22.456C34.8534 21.6242 34.0053 21.0267 33.0323 20.7755V16.5161H43.3548V61.9355ZM33.0323 14.4516V11.3548C33.0345 8.91985 32.2502 6.54928 30.7961 4.59612C32.1153 3.35128 33.7703 2.52014 35.5566 2.20537C37.3429 1.89059 39.1822 2.10595 40.8475 2.82487C42.5127 3.54378 43.9309 4.73475 44.9269 6.25066C45.9228 7.76657 46.4529 9.54102 46.4516 11.3548V14.4516H33.0323ZM55.7419 61.9355H45.4194V16.5161H55.7419V61.9355Z" fill="#EC7623"/>
<path d="M50.5806 54.7096C50.8544 54.7096 51.117 54.6009 51.3106 54.4073C51.5041 54.2137 51.6129 53.9512 51.6129 53.6774V18.5806C51.6129 18.3068 51.5041 18.0443 51.3106 17.8507C51.117 17.6571 50.8544 17.5483 50.5806 17.5483C50.3069 17.5483 50.0443 17.6571 49.8507 17.8507C49.6571 18.0443 49.5484 18.3068 49.5484 18.5806V53.6774C49.5484 53.9512 49.6571 54.2137 49.8507 54.4073C50.0443 54.6009 50.3069 54.7096 50.5806 54.7096Z" fill="#EC7623"/>
<path d="M50.5806 59.871C50.8544 59.871 51.117 59.7622 51.3106 59.5686C51.5041 59.3751 51.6129 59.1125 51.6129 58.8387V56.7742C51.6129 56.5004 51.5041 56.2379 51.3106 56.0443C51.117 55.8507 50.8544 55.7419 50.5806 55.7419C50.3069 55.7419 50.0443 55.8507 49.8507 56.0443C49.6571 56.2379 49.5484 56.5004 49.5484 56.7742V58.8387C49.5484 59.1125 49.6571 59.3751 49.8507 59.5686C50.0443 59.7622 50.3069 59.871 50.5806 59.871Z" fill="#EC7623"/>
<path d="M11.3548 52.6451H4.12903C3.85526 52.6451 3.5927 52.7538 3.39911 52.9474C3.20553 53.141 3.09677 53.4036 3.09677 53.6773V59.8709C3.09677 60.1447 3.20553 60.4072 3.39911 60.6008C3.5927 60.7944 3.85526 60.9031 4.12903 60.9031H11.3548C11.6286 60.9031 11.8912 60.7944 12.0848 60.6008C12.2783 60.4072 12.3871 60.1447 12.3871 59.8709V53.6773C12.3871 53.4036 12.2783 53.141 12.0848 52.9474C11.8912 52.7538 11.6286 52.6451 11.3548 52.6451ZM10.3226 58.8386H5.16129V54.7096H10.3226V58.8386Z" fill="#EC7623"/>
<path d="M24.7742 52.6451H14.4516C14.1778 52.6451 13.9153 52.7538 13.7217 52.9474C13.5281 53.141 13.4194 53.4036 13.4194 53.6773C13.4194 53.9511 13.5281 54.2137 13.7217 54.4073C13.9153 54.6008 14.1778 54.7096 14.4516 54.7096H24.7742C25.048 54.7096 25.3105 54.6008 25.5041 54.4073C25.6977 54.2137 25.8065 53.9511 25.8065 53.6773C25.8065 53.4036 25.6977 53.141 25.5041 52.9474C25.3105 52.7538 25.048 52.6451 24.7742 52.6451Z" fill="#EC7623"/>
<path d="M24.7742 55.7419H14.4516C14.1778 55.7419 13.9153 55.8507 13.7217 56.0443C13.5281 56.2379 13.4194 56.5004 13.4194 56.7742C13.4194 57.048 13.5281 57.3105 13.7217 57.5041C13.9153 57.6977 14.1778 57.8065 14.4516 57.8065H24.7742C25.048 57.8065 25.3105 57.6977 25.5041 57.5041C25.6977 57.3105 25.8065 57.048 25.8065 56.7742C25.8065 56.5004 25.6977 56.2379 25.5041 56.0443C25.3105 55.8507 25.048 55.7419 24.7742 55.7419Z" fill="#EC7623"/>
<path d="M19.6129 58.8387H14.4516C14.1778 58.8387 13.9153 58.9474 13.7217 59.141C13.5281 59.3346 13.4194 59.5972 13.4194 59.8709C13.4194 60.1447 13.5281 60.4073 13.7217 60.6009C13.9153 60.7944 14.1778 60.9032 14.4516 60.9032H19.6129C19.8867 60.9032 20.1492 60.7944 20.3428 60.6009C20.5364 60.4073 20.6452 60.1447 20.6452 59.8709C20.6452 59.5972 20.5364 59.3346 20.3428 59.141C20.1492 58.9474 19.8867 58.8387 19.6129 58.8387Z" fill="#EC7623"/>
<path d="M23.7419 58.8387H22.7097C22.4359 58.8387 22.1734 58.9474 21.9798 59.141C21.7862 59.3346 21.6774 59.5972 21.6774 59.8709C21.6774 60.1447 21.7862 60.4073 21.9798 60.6009C22.1734 60.7944 22.4359 60.9032 22.7097 60.9032H23.7419C24.0157 60.9032 24.2783 60.7944 24.4719 60.6009C24.6654 60.4073 24.7742 60.1447 24.7742 59.8709C24.7742 59.5972 24.6654 59.3346 24.4719 59.141C24.2783 58.9474 24.0157 58.8387 23.7419 58.8387Z" fill="#EC7623"/>
</svg>
