<svg width="368" height="368" viewBox="0 0 368 368" fill="none" xmlns="http://www.w3.org/2000/svg">
<path d="M183.903 0.00100177C285.469 0.00100177 367.805 82.337 367.805 183.903C367.805 285.469 285.469 367.805 183.903 367.805C82.3368 367.805 0.000762803 285.469 0.000762803 183.903C-0.288237 82.625 81.5788 0.290002 182.856 0.00100177C183.205 1.76998e-06 183.554 1.76998e-06 183.903 0.00100177Z" fill="white"/>
<path d="M285.78 133.225L155.168 263.837L82.0248 191.217L111.805 161.96L155.168 204.801L256.001 103.968L285.78 133.225Z" fill="white"/>
<path d="M285.78 133.225L155.168 263.837L82.0248 191.217L111.805 161.96L155.168 204.801L256.001 103.968L285.78 133.225Z" fill="url(#paint0_linear)"/>
<defs>
<linearGradient id="paint0_linear" x1="82" y1="191" x2="286" y2="134" gradientUnits="userSpaceOnUse">
<stop stop-color="#EC7623"/>
<stop offset="1" stop-color="#F29954" stop-opacity="0.85"/>
</linearGradient>
</defs>
</svg>
