<svg width="512" height="512" viewBox="0 0 512 512" fill="none" xmlns="http://www.w3.org/2000/svg">
<g clip-path="url(#clip0)">
<path d="M20.271 112.971L252.739 0.745012C254.8 -0.248988 257.2 -0.248988 259.26 0.745012L491.729 112.971C494.321 114.222 495.968 116.847 495.968 119.725V392.274C495.968 395.152 494.321 397.777 491.729 399.028L259.261 511.254C258.231 511.751 257.115 512 256 512C254.885 512 253.77 511.751 252.739 511.254L20.271 399.028C17.679 397.777 16.032 395.152 16.032 392.274V119.726C16.032 116.846 17.68 114.223 20.271 112.971ZM256 15.828L40.783 119.725L103.17 149.843C103.565 149.542 103.982 149.264 104.44 149.043L318.195 45.853L256 15.828ZM335.133 54.333L120.229 158.079L164.244 179.328L379.059 75.624L335.133 54.333ZM115.201 172.307V250.853L156.314 270.701V192.155L115.201 172.307ZM31.032 387.568L248.5 492.55V236.658L196.627 211.616C192.897 209.815 191.333 205.332 193.134 201.601C194.935 197.872 199.418 196.306 203.149 198.108L256 223.623L276.796 213.583C280.527 211.78 285.01 213.346 286.811 217.076C288.612 220.806 287.048 225.29 283.318 227.091L263.5 236.658V492.55L480.968 387.566V131.674L315.368 211.619C314.317 212.127 313.206 212.367 312.113 212.367C309.325 212.367 306.647 210.805 305.354 208.126C303.553 204.396 305.117 199.912 308.847 198.111L471.217 119.725L396.712 83.757L171.418 192.52C171.385 192.566 171.348 192.607 171.314 192.652V282.651C171.314 285.232 169.987 287.631 167.801 289.004C166.587 289.766 165.202 290.151 163.813 290.151C162.701 290.151 161.586 289.904 160.553 289.405L104.44 262.316C101.848 261.065 100.201 258.441 100.201 255.562V165.067L31.032 131.675V387.568V387.568Z" fill="#EC7623" stroke="#EC7623" stroke-width="2"/>
</g>
<defs>
<clipPath id="clip0">
<rect width="512" height="512" fill="white"/>
</clipPath>
</defs>
</svg>
