<svg width="490" height="512" viewBox="0 0 490 512" fill="none" xmlns="http://www.w3.org/2000/svg">
<path d="M9.27103 112.971L241.739 0.745012C243.8 -0.248988 246.2 -0.248988 248.26 0.745012L480.729 112.971C483.321 114.222 484.968 116.847 484.968 119.725V392.274C484.968 395.152 483.321 397.777 480.729 399.028L248.261 511.254C247.231 511.751 246.115 512 245 512C243.885 512 242.77 511.751 241.739 511.254L9.27103 399.028C6.67903 397.777 5.03204 395.152 5.03204 392.274V119.726C5.03204 116.846 6.68003 114.223 9.27103 112.971ZM245 15.828L29.783 119.725L92.17 149.843C92.565 149.542 92.982 149.264 93.44 149.043L307.195 45.853L245 15.828ZM324.133 54.333L109.229 158.079L153.244 179.328L368.059 75.624L324.133 54.333ZM104.201 172.307V250.853L145.314 270.701V192.155L104.201 172.307ZM20.032 387.568L237.5 492.55V236.658L185.627 211.616C181.897 209.815 180.333 205.332 182.134 201.601C183.935 197.872 188.418 196.306 192.149 198.108L245 223.623L265.796 213.583C269.527 211.78 274.01 213.346 275.811 217.076C277.612 220.806 276.048 225.29 272.318 227.091L252.5 236.658V492.55L469.968 387.566V131.674L304.368 211.619C303.317 212.127 302.206 212.367 301.113 212.367C298.325 212.367 295.647 210.805 294.354 208.126C292.553 204.396 294.117 199.912 297.847 198.111L460.217 119.725L385.712 83.757L160.418 192.52C160.385 192.566 160.348 192.607 160.314 192.652V282.651C160.314 285.232 158.987 287.631 156.801 289.004C155.587 289.766 154.202 290.151 152.813 290.151C151.701 290.151 150.586 289.904 149.553 289.405L93.44 262.316C90.848 261.065 89.201 258.441 89.201 255.562V165.067L20.032 131.675V387.568V387.568Z" fill="#2B0BF1" stroke="#2B0BF1" stroke-width="10"/>
</svg>
