<svg width="482" height="512" viewBox="0 0 482 512" fill="none" xmlns="http://www.w3.org/2000/svg">
<path d="M5.271 112.971L237.739 0.745012C239.8 -0.248988 242.2 -0.248988 244.26 0.745012L476.729 112.971C479.321 114.222 480.968 116.847 480.968 119.725V392.274C480.968 395.152 479.321 397.777 476.729 399.028L244.261 511.254C243.231 511.751 242.115 512 241 512C239.885 512 238.77 511.751 237.739 511.254L5.271 399.028C2.679 397.777 1.03201 395.152 1.03201 392.274V119.726C1.03201 116.846 2.68 114.223 5.271 112.971ZM241 15.828L25.783 119.725L88.17 149.843C88.565 149.542 88.982 149.264 89.44 149.043L303.195 45.853L241 15.828ZM320.133 54.333L105.229 158.079L149.244 179.328L364.059 75.624L320.133 54.333ZM100.201 172.307V250.853L141.314 270.701V192.155L100.201 172.307ZM16.032 387.568L233.5 492.55V236.658L181.627 211.616C177.897 209.815 176.333 205.332 178.134 201.601C179.935 197.872 184.418 196.306 188.149 198.108L241 223.623L261.796 213.583C265.527 211.78 270.01 213.346 271.811 217.076C273.612 220.806 272.048 225.29 268.318 227.091L248.5 236.658V492.55L465.968 387.566V131.674L300.368 211.619C299.317 212.127 298.206 212.367 297.113 212.367C294.325 212.367 291.647 210.805 290.354 208.126C288.553 204.396 290.117 199.912 293.847 198.111L456.217 119.725L381.712 83.757L156.418 192.52C156.385 192.566 156.348 192.607 156.314 192.652V282.651C156.314 285.232 154.987 287.631 152.801 289.004C151.587 289.766 150.202 290.151 148.813 290.151C147.701 290.151 146.586 289.904 145.553 289.405L89.44 262.316C86.848 261.065 85.201 258.441 85.201 255.562V165.067L16.032 131.675V387.568V387.568Z" fill="#EC7623" stroke="#EC7623" stroke-width="2"/>
</svg>
