<?xml version="1.0" encoding="utf-8"?>
<!-- Generator: Adobe Illustrator 19.2.1, SVG Export Plug-In . SVG Version: 6.00 Build 0)  -->
<svg version="1.1" id="layer" xmlns="http://www.w3.org/2000/svg" xmlns:xlink="http://www.w3.org/1999/xlink" x="0px" y="0px"
	 viewBox="0 0 652 652" style="enable-background:new 0 0 652 652;" xml:space="preserve">
<style type="text/css">
	.st0{fill:#001652;}
	.st1{fill-rule:evenodd;clip-rule:evenodd;fill:#001652;}
	.st2{fill-rule:evenodd;clip-rule:evenodd;fill:#FEBE10;}
</style>
<polygon class="st0" points="489.7,271.7 463.9,405.1 525.9,405.1 532,371.8 504,371.8 523.5,271.7 "/>
<g>
	<path class="st1" d="M604,301.2c5.6,0,13.5,1.4,18.4,3l5.8-30.6c-7.1-1.2-14.7-2-23.2-2c-36.9,0-54.2,22-54.2,46.7
		c0,32.2,32.8,31.8,32.8,45.5c0,6.9-4.9,10.7-15.4,10.7c-7.1,0-17.3-1.7-23.2-3.9l-6.3,33c6.8,1.3,16.4,2.2,26.2,2.2
		c32.8,0,56-21.9,56-48.4c0-31.3-33-31.8-33-45.7C588,305.6,592.1,301.2,604,301.2"/>
</g>
<g>
	<path class="st1" d="M437.2,271.7c-50.8,0-83.3,37.9-83.3,84.5c0,29.1,15.4,49.3,54,49.3c15.4,0,31.5-2.7,44.5-8.3l12.4-64.5h-34
		l-7.3,39.3c-3,0.8-6.6,1-9.3,1c-17.1,0-23.2-9.5-23.2-21.8c0-23.2,14.2-47.2,43.2-47.2c8.1,0,17.1,1.5,25.1,4.1
		c0.8,0.2,1.7,0.5,2.6,0.7c2.9,1,5.2,2.2,7.1,3l6.8-34.9C464.1,273.7,450,271.7,437.2,271.7"/>
	<path class="st2" d="M182.5,272l-9.1,44.4h63c-52.3,77.2-155.8,64.2-183.2,32.2C29.7,321,50,273.7,119.9,244.4
		c-69.3,21-108,76.4-85.2,113.6c25.9,42.2,106.5,59.8,178.1,39.3c47.9-16.9,68.2-40.5,75.8-53.2l-11.8,61.3h47.1L349.5,272H182.5z"
		/>
</g>
</svg>
