<svg width="259" height="193" viewBox="0 0 259 193" fill="none" xmlns="http://www.w3.org/2000/svg">
<path fill-rule="evenodd" clip-rule="evenodd" d="M157.365 118.105C157.466 118.363 157.659 118.666 157.803 118.907C158.983 120.882 159.712 122.05 161.178 123.938L162.798 125.934C163.819 127.029 164.547 127.913 165.714 128.984L166.661 129.888C166.769 129.993 166.873 130.052 166.983 130.156C167.682 130.816 168.822 131.735 169.605 132.323C170.071 132.673 170.509 133.005 170.985 133.339C172.817 134.629 174.771 135.821 176.985 136.921C181.315 139.072 186.314 140.709 191.76 141.35C202.91 142.661 213.345 140.063 222.356 134.237C224.198 133.047 224.945 132.396 226.514 131.164C226.993 130.789 227.472 130.31 227.797 130.052C228.576 129.432 230.685 127.268 231.385 126.454C231.576 126.232 231.787 126.039 231.96 125.81L233.044 124.497C234.082 123.272 235.691 120.867 236.487 119.535C243.475 107.842 244.828 93.6415 240.104 80.7137C239.664 79.5109 239.177 78.421 238.68 77.3017C237.273 74.1321 234.84 70.3776 232.661 67.7288C232.464 67.4898 232.307 67.2903 232.102 67.0681C231.925 66.8765 231.731 66.6011 231.542 66.4067L230.976 65.7998C230.469 65.2093 229.506 64.2306 228.895 63.6757C228.645 63.4488 228.667 63.4162 228.269 63.0816L227.338 62.2496C224.326 59.6666 222.367 58.346 218.808 56.3635C217.372 55.5632 215.444 54.7001 213.884 54.1025C207.372 51.61 200.428 50.5483 193.19 51.2016C183.694 52.0586 174.812 55.861 167.796 61.8249C167.562 62.0239 167.358 62.1986 167.14 62.3894L165.295 64.1137C165.078 64.3251 164.896 64.5067 164.686 64.7251C164.484 64.936 164.335 65.1301 164.111 65.3249C163.876 65.5295 163.753 65.746 163.525 65.9592L162.971 66.5804C162.867 66.7118 162.78 66.7822 162.677 66.9189C162.589 67.0371 162.503 67.1183 162.407 67.2371C162.225 67.4638 162.063 67.6466 161.872 67.8763C161.39 68.4585 158.156 72.8184 157.981 73.5321C164.416 73.5813 170.871 73.533 177.308 73.533C183.74 73.533 190.173 73.5367 196.605 73.533C201.41 73.5301 204.352 74.9188 207.412 77.8824C207.517 77.9841 207.59 78.0876 207.684 78.1998C208.36 79.0013 208.589 79.231 209.231 80.267C211.313 83.6251 211.887 88.0156 210.575 91.9947C210.076 93.507 209.752 93.9517 209.023 95.2438C209.164 95.4943 209.364 95.7579 209.534 96.0091C210.787 97.8633 211.589 100.24 211.795 102.52C212.084 105.715 211.325 108.356 210.066 110.739C209.172 112.43 207.997 113.693 206.637 114.856C204.301 116.851 200.931 118.114 197.419 118.104C184.07 118.066 170.715 118.105 157.365 118.105V118.105Z" fill="#E92B90"/>
<path fill-rule="evenodd" clip-rule="evenodd" d="M156.048 77.1016C155.937 77.4688 155.65 78.0062 155.485 78.3924C155.196 79.0702 153.991 81.999 154.003 82.387L196.46 82.3887L197.319 82.387C197.448 82.3867 200.918 82.4568 202.071 85.8934C202.465 87.0689 202.37 88.3166 201.945 89.4199C201.125 91.5443 199.216 92.6463 196.967 92.6406L155.977 92.6408C154.667 92.6408 153.226 92.5838 151.933 92.6458C151.806 93.2269 151.685 97.584 151.819 98.0481C152.281 98.1224 192.107 98.0722 193.804 98.0722C194.966 98.0722 196.175 98.0378 197.33 98.0644C198.36 98.088 199.283 98.3883 200.037 98.8168C204.38 101.285 203.733 107.824 198.856 109.336C197.701 109.566 197.367 109.537 196.521 109.531C196.284 109.529 195.97 109.548 195.702 109.548L153.743 109.55C154.039 110.958 155.146 113.427 155.701 114.808C168.372 114.814 181.042 114.807 193.713 114.807C197.102 114.807 199.19 115.126 202.069 113.721C203.186 113.176 204.133 112.444 204.859 111.768C207.542 109.271 208.858 105.033 207.918 101.196C207.442 99.2496 206.331 97.2559 204.901 95.8971C204.703 95.7093 204.464 95.5574 204.301 95.3341C204.472 95.1003 204.986 94.6686 205.403 94.1442C208.18 90.6556 208.476 85.7186 206.12 82.0221C205.019 80.2944 203.362 78.738 201.122 77.8468C198.562 76.828 195.637 77.1018 192.719 77.1018C180.495 77.1018 168.271 77.0841 156.048 77.1016V77.1016Z" fill="#373435"/>
<path fill-rule="evenodd" clip-rule="evenodd" d="M24.3453 106.235L24.3262 99.5175H29.8549C33.7781 99.5175 33.8128 106.242 29.8549 106.242L24.3453 106.235V106.235ZM28.2654 91.4101H24.2693L24.2973 85.6222L28.2907 85.6129C32.1846 85.6129 32.3828 91.4101 28.2654 91.4101V91.4101ZM16 114.808H28.2654C41.1997 114.808 44.4309 100.519 35.3616 94.5411C43.1501 88.3968 39.4308 77.1804 28.2654 77.1804H16V114.808Z" fill="#373435"/>
<path fill-rule="evenodd" clip-rule="evenodd" d="M60.2446 92.0373L72.2275 114.808H78.8932V77.1804H71.4399V100.546L59.3898 77.1804H52.7627V114.808H60.2446V92.0373Z" fill="#373435"/>
<path fill-rule="evenodd" clip-rule="evenodd" d="M111.579 85.6129H125.548V77.1804H103.374V114.808H125.548V106.242H111.579L111.575 99.8678H123.278V91.4101H111.579V85.6129Z" fill="#373435"/>
<path fill-rule="evenodd" clip-rule="evenodd" d="M101.485 84.3843L101.479 77.1806L80.3346 77.1687L80.3345 85.6039L91.7715 85.6285L80.3345 108.739V114.808H101.479V106.243H90.9178L101.485 84.3843Z" fill="#373435"/>
<path fill-rule="evenodd" clip-rule="evenodd" d="M127.648 114.808H146.113V106.243L136.244 106.266L136.222 77.1806L127.648 77.1694V114.808Z" fill="#373435"/>
<path fill-rule="evenodd" clip-rule="evenodd" d="M42.0472 114.808H50.5789V77.1565L42.0046 77.1806L42.0472 114.808Z" fill="#373435"/>
<path fill-rule="evenodd" clip-rule="evenodd" d="M47.9808 64.1341C50.579 64.1341 53.4057 63.8145 53.3797 66.6092C53.3554 69.2311 50.579 68.905 47.9807 68.9572L47.9808 64.1341ZM47.9806 55.397H48.8063C50.579 55.397 51.7681 55.845 51.7786 57.5415C51.789 59.2364 50.5106 59.7268 48.8063 59.7264L47.9808 59.7254L47.9806 55.397V55.397ZM42.0474 73.649H50.579C59.3886 73.649 59.8167 63.2222 54.8438 61.3955C58.2304 59.7362 58.4761 50.8648 50.579 50.8645L42.0474 50.8648V73.649Z" fill="#E92B90"/>
<path fill-rule="evenodd" clip-rule="evenodd" d="M123.278 55.3971L124.145 55.3974C126.403 55.398 128.14 56.2359 127.846 58.6362C127.59 60.725 125.51 60.9989 123.28 61.0042L123.278 55.3971ZM117.262 73.6492H123.278L123.287 64.9896L128.965 73.6492H136.222L129.245 64.3004C130.304 63.6663 131.047 63.723 132.08 62.8337C134.378 60.8549 134.832 55.6352 132.459 53.1825C130.725 51.3901 128.709 50.8608 126.129 50.863L117.262 50.865V73.6492V73.6492Z" fill="#E92B90"/>
<path fill-rule="evenodd" clip-rule="evenodd" d="M27.797 58.1078L30.2401 65.043H25.5084L27.797 58.1078ZM16 73.649H22.1598L23.9471 69.5749H31.6613L33.4656 73.649H39.6664L31.2176 50.8654L24.7416 50.8647L16 73.649Z" fill="#E92B90"/>
<path fill-rule="evenodd" clip-rule="evenodd" d="M87.7127 73.0893L87.7024 66.0202C85.7465 67.7276 83.7594 69.0518 80.6451 68.0653C78.3129 67.3266 76.5473 65.3789 76.5373 62.3264C76.5212 57.4273 80.7992 54.9934 84.7595 56.3746C86.2889 56.9078 86.8254 57.6605 87.7041 58.4079L87.7121 51.6062C87.4968 50.8401 81.4679 48.7522 75.7984 52.2174C73.039 53.9037 70.4473 57.356 70.3605 61.9921C70.23 68.9535 75.5066 73.399 81.1108 74.0237C83.9859 74.3442 85.3043 73.6508 87.7127 73.0893V73.0893Z" fill="#E92B90"/>
<path fill-rule="evenodd" clip-rule="evenodd" d="M61.84 73.4907L67.6631 73.482C67.9887 67.593 67.619 58.643 67.6845 52.0973C67.702 50.3418 67.8247 50.8781 61.8901 50.8633C61.6497 51.7659 61.6365 71.8054 61.84 73.4907V73.4907Z" fill="#E92B90"/>
<path fill-rule="evenodd" clip-rule="evenodd" d="M142.328 84.1662C141.914 83.874 142.127 84.4941 142.023 83.6039L142.039 78.9508C143.638 78.7132 145.057 78.7303 146.098 79.6004C146.353 81.0529 145.977 81.5545 144.639 81.7837L146.055 84.1386L145.388 84.1553C143.83 82.22 144.589 81.5911 142.701 81.7864C142.701 82.2247 142.703 82.6593 142.708 83.0975C142.724 84.3309 142.636 84.0177 142.328 84.1662V84.1662ZM139.738 81.9397C139.886 84.0011 141.826 85.7789 144.148 85.5931C149.5 85.165 148.763 76.8581 143.317 77.4882C141.204 77.7327 139.568 79.5754 139.738 81.9397V81.9397Z" fill="#FEFEFE"/>
<path fill-rule="evenodd" clip-rule="evenodd" d="M142.7 81.136L143.316 81.2104L144.142 81.1975C145.025 81.1967 146.044 80.7422 145.346 79.7546C144.948 79.1919 143.399 79.3901 142.7 79.4776L142.7 81.136V81.136Z" fill="#FEFEFE"/>
<path fill-rule="evenodd" clip-rule="evenodd" d="M102.728 50C109.491 50 114.974 55.4828 114.974 62.2462C114.974 69.0097 109.491 74.4924 102.728 74.4924C95.9645 74.4924 90.4817 69.0097 90.4817 62.2462C90.4817 55.4828 95.9645 50 102.728 50ZM102.728 55.8499C106.261 55.8499 109.124 58.7137 109.124 62.2462C109.124 65.7787 106.261 68.6425 102.728 68.6425C99.1954 68.6425 96.3316 65.7787 96.3316 62.2462C96.3316 58.7137 99.1954 55.8499 102.728 55.8499Z" fill="#E92B90"/>
<path fill-rule="evenodd" clip-rule="evenodd" d="M143.832 76.8442C146.433 76.8442 148.541 78.9528 148.541 81.5539C148.541 84.155 146.433 86.2635 143.832 86.2635C141.231 86.2635 139.122 84.155 139.122 81.5539C139.122 78.9528 141.231 76.8442 143.832 76.8442ZM143.832 77.4479C146.1 77.4479 147.938 79.2862 147.938 81.5539C147.938 83.8216 146.1 85.6599 143.832 85.6599C141.564 85.6599 139.726 83.8216 139.726 81.5539C139.726 79.2862 141.564 77.4479 143.832 77.4479V77.4479Z" fill="#373435"/>
<path d="M142.069 83.8541V79.2146H144.125C144.539 79.2146 144.853 79.2566 145.068 79.3398C145.283 79.4229 145.454 79.5699 145.583 79.7805C145.711 79.991 145.775 80.2244 145.775 80.4791C145.775 80.8086 145.668 81.0862 145.455 81.3119C145.243 81.5376 144.914 81.6801 144.469 81.7417C144.632 81.8194 144.756 81.8973 144.84 81.9728C145.019 82.137 145.189 82.3432 145.347 82.5906L146.15 83.8541H145.383L144.77 82.8886C144.591 82.6089 144.444 82.3961 144.328 82.2481C144.211 82.1003 144.108 81.9977 144.016 81.9383C143.925 81.88 143.831 81.8389 143.736 81.815C143.667 81.8011 143.554 81.7935 143.395 81.7935H142.684V83.8541H142.069V83.8541ZM142.684 81.2622H144.002C144.283 81.2622 144.501 81.233 144.658 81.1748C144.816 81.1174 144.936 81.0246 145.017 80.896C145.099 80.7687 145.14 80.6304 145.14 80.4803C145.14 80.261 145.061 80.0796 144.903 79.9381C144.744 79.7966 144.493 79.7264 144.151 79.7264H142.684V81.2622Z" fill="#373435"/>
</svg>
