<svg width="46" height="46" viewBox="0 0 46 46" fill="none" xmlns="http://www.w3.org/2000/svg">
<g clip-path="url(#clip0)">
<path d="M22.979 0C10.287 0 0 10.288 0 22.979C0 35.67 10.287 45.958 22.979 45.958C35.671 45.958 45.958 35.669 45.958 22.979C45.958 10.289 35.67 0 22.979 0ZM24.37 33.215V35.875C24.37 36.29 24.047 36.592 23.631 36.592H21.858C21.442 36.592 21.107 36.29 21.107 35.875V33.449C19.475 33.375 17.829 33.027 16.583 32.553C15.908 32.297 15.532 31.574 15.711 30.874L16 29.748C16.101 29.353 16.365 29.023 16.726 28.838C17.087 28.65 17.511 28.631 17.89 28.776C19.077 29.235 20.479 29.569 21.976 29.569C23.882 29.569 25.187 28.833 25.187 27.495C25.187 26.224 24.117 25.421 21.641 24.584C18.062 23.38 15.611 21.708 15.611 18.463C15.611 15.52 17.694 13.212 21.255 12.509V10.083C21.255 9.668 21.61 9.296 22.026 9.296H23.799C24.215 9.296 24.52 9.668 24.52 10.083V12.274C26.077 12.341 27.201 12.572 28.141 12.878C28.852 13.11 29.272 13.855 29.085 14.581L28.831 15.589C28.732 15.973 28.478 16.299 28.13 16.487C27.782 16.675 27.371 16.709 26.995 16.58C26.141 16.287 25.027 16.021 23.615 16.021C21.441 16.021 20.738 16.958 20.738 17.895C20.738 18.999 21.909 19.701 24.752 20.772C28.732 22.177 30.331 24.017 30.331 27.026C30.33 30.003 28.227 32.547 24.37 33.215Z" fill="white"/>
</g>
<defs>
<clipPath id="clip0">
<rect width="45.958" height="45.958" fill="white"/>
</clipPath>
</defs>
</svg>
