<svg width="512" height="512" viewBox="0 0 512 512" fill="none" xmlns="http://www.w3.org/2000/svg">
<path d="M319.328 341.28C304.704 349.792 288 354.272 271.024 354.272C217.824 354.272 174.528 310.992 174.528 257.808C174.528 204.624 217.808 161.344 271.024 161.344C288 161.344 304.688 165.84 319.344 174.32C327.024 178.768 336.784 176.16 341.216 168.496C345.648 160.864 343.04 151.056 335.392 146.64C315.872 135.328 293.616 129.36 271.024 129.36C200.176 129.36 142.528 186.992 142.528 257.824C142.528 328.656 200.176 386.288 271.024 386.288C293.648 386.288 315.92 380.304 335.408 368.928C343.04 364.496 345.632 354.688 341.2 347.056C336.768 339.424 326.976 336.832 319.328 341.28Z" fill="white"/>
<path d="M256 208H128C119.168 208 112 215.152 112 224C112 232.848 119.168 240 128 240H256C264.832 240 272 232.848 272 224C272 215.152 264.832 208 256 208Z" fill="white"/>
<path d="M256 272H128C119.168 272 112 279.152 112 288C112 296.848 119.168 304 128 304H256C264.832 304 272 296.848 272 288C272 279.152 264.832 272 256 272Z" fill="white"/>
<path d="M256 0C114.848 0 0 114.848 0 256C0 397.152 114.848 512 256 512C397.152 512 512 397.152 512 256C512 114.848 397.152 0 256 0ZM256 480C132.48 480 32 379.52 32 256C32 132.48 132.48 32 256 32C379.52 32 480 132.48 480 256C480 379.52 379.52 480 256 480Z" fill="white"/>
</svg>
