<svg width="259" height="193" viewBox="0 0 259 193" fill="none" xmlns="http://www.w3.org/2000/svg">
<path fill-rule="evenodd" clip-rule="evenodd" d="M177.419 70.1664C177.419 70.1664 159.447 70.073 151.706 70.4297C146.587 70.6744 141.607 71.5136 136.878 73.6684C132.157 76.0911 128.522 79.8804 126.227 84.5977C124.883 87.4267 124.072 90.3934 123.667 93.6268C123.26 95.9135 123.26 98.0741 123.26 100.224C123.533 105.617 124.883 111.004 127.984 115.717C128.115 115.991 128.253 116.259 128.387 116.526C131.216 120.568 134.995 123.065 139.442 124.812C140.522 125.224 141.466 125.493 142.543 125.766C144.833 126.297 146.994 126.534 149.282 126.806C151.037 126.94 152.79 126.94 154.539 126.94C177.345 126.94 177.338 126.952 177.416 126.952V118.886H159.26C157.506 118.753 155.893 118.814 154.135 118.681C153.059 118.548 151.974 118.413 150.899 118.14C148.879 117.6 147.125 116.932 145.376 115.991C142.946 114.505 141.055 112.487 139.845 109.931C137.832 105.616 137.281 100.763 137.693 96.0482C137.964 91.3367 138.769 86.4863 142.271 82.986C143.889 81.5008 145.644 80.6708 147.668 79.9995C150.362 79.057 153.059 78.6531 155.893 78.6531C162.903 78.3795 177.419 78.518 177.419 78.518V70.166V70.1664ZM8.93181 70.1788C13.2494 70.1788 17.8289 69.9048 21.4681 72.7384C23.357 74.2198 24.574 75.9692 25.9239 77.8566C35.2206 91.8654 42.9085 105.253 51.6716 118.596V70.042H60.0892V126.977C54.1537 126.709 46.5783 127.945 42.0969 124.791C39.621 123.043 38.0502 120.75 36.3011 118.323C27.5422 104.713 20.124 92.2697 11.3618 78.6627C11.2216 78.5291 11.3618 123.388 11.3618 126.892H3V70.1796L8.93181 70.1788ZM221.359 70.1044V94.4465H193.377V70.104H181.781V126.893H193.377V102.555H221.358V126.893H232.955V70.104L221.359 70.1044ZM253.975 126.893H242.372V81.185L253.974 69.536L253.976 126.893H253.975ZM256 59.8216C256 64.1421 252.492 67.6424 248.174 67.6424C243.853 67.6424 240.346 64.1421 240.346 59.8216C240.346 55.5008 243.853 52 248.174 52C252.492 52 256 55.5008 256 59.8216H256ZM93.0652 63.854C104.924 84.7333 116.255 105.885 127.984 126.898H113.29C112.881 125.824 93.0652 86.4868 93.0652 86.4868C87.5322 97.3974 82.5485 108.037 77.2856 118.944C77.2856 118.944 77.4209 119.214 77.5587 119.214H103.312L107.082 126.898C107.082 126.898 73.1265 126.909 72.7004 126.898C71.8978 126.898 71.0862 126.898 70.1397 126.764C67.1744 126.091 64.6141 124.343 64.0751 121.242C63.8082 119.356 64.0751 117.469 65.0183 115.717C72.5696 101.038 91.5817 66.9529 93.0652 63.854" fill="#EE333F"/>
</svg>
