<?xml version="1.0" encoding="utf-8"?>
<!-- Generator: Adobe Illustrator 24.1.2, SVG Export Plug-In . SVG Version: 6.00 Build 0)  -->
<svg version="1.1" id="Ebene_1" xmlns="http://www.w3.org/2000/svg" xmlns:xlink="http://www.w3.org/1999/xlink" x="0px" y="0px"
	 viewBox="0 0 448 261" style="enable-background:new 0 0 448 261;" xml:space="preserve">
<style type="text/css">
	.st0{fill:#224A85;}
	.st1{fill-rule:evenodd;clip-rule:evenodd;}
	.st2{fill:#FFCC00;}
</style>
<g>
	<path class="st0" d="M117.46,163.85c1.97,1.98,2.99,2.21,4.13,2.21c2.52,0,3.77-1.26,3.77-4.06l0.07-63.37
		c0-3.68,3.3-6.54,7.02-6.54h16.45c3.88,0,7.04,3.15,7.04,7.03l-0.12,82.7c0,10.24-8.3,18.54-18.54,18.54l-8.88,0.03
		c-7.63,0-16.01-3.86-22.9-10.59c0,0-55.36-59.06-56.93-60.72c-1.52-1.6-2.51-1.56-3.65-1.56c-1.97,0.01-3.58,0.61-3.58,3.24v62.41
		c0,3.74-3.29,6.58-7.02,6.58H18.03c-3.64,0-7-2.74-7-6.3L11,110.54C11,100.3,19.32,92.21,29.54,92l9.04,0
		c8.23,0,16.26,2.95,23.05,10.55C61.62,102.55,114.49,160.87,117.46,163.85L117.46,163.85z"/>
	<path class="st0" d="M345.43,166.24c0,4.2,3.4,7.96,7.6,7.96l79.25,0.04c3.36,0,5.93,3.3,5.93,6.77v12.2c0,3.46-2.81,6.76-5.9,6.76
		h-76.56c-10.48,0-18.11-2.24-24.4-7.63c-3.74-2.99-7.48-7.18-10.03-11.52c-2.7-4.64-3.89-8.98-3.89-15.12v-39.06
		c0-10.77,3.29-18.26,11.08-25.29c7.63-6.88,14.82-9.28,27.84-9.28l75.76,0c3.56,0.19,6.39,3.14,6.39,6.75v12.06
		c0,3.73-3.03,6.76-6.76,6.76l-78.71,0c-4.2,0-7.6,3.58-7.6,7.78l0,8.12h83.21c3.84,0,5.79,3.46,5.79,6.92v10.44
		c0,3.55-2.45,6.96-6.05,6.96l-82.95,0.43L345.43,166.24L345.43,166.24z"/>
	<path class="st0" d="M296.1,186.3l-38.22-39.89l38.76-40.48l4.23-4.17c5.47-5.37,5.48-9.67,0.13-9.67h-17.26
		c-7.97,0.6-10.21,1.66-18.24,8.59l-3.26,3.07l-2.32,2.18l-26.46,27.78v-0.05c-1.89,1.99-4.78,3.27-8.01,3.27
		c-5.63,0-10.2-3.85-10.31-8.64h-0.03l-0.04-29.34c0-4.92-3.75-6.86-7.73-6.86h-15.47c-3.8,0-7.65,1.9-7.65,6.32v93.98
		c0.14,4.18,3.57,7.52,7.78,7.52h15.47c3.98,0,7.73-2.89,7.73-6.84l-0.04-28.39h0.02c0,0,0,0,0-0.01c0-4.87,4.62-8.82,10.32-8.82
		c3.26,0,6.16,1.29,8.05,3.3l25.95,27.13l3.24,3.2l1.63,1.53c8.53,7.4,10.68,8.5,18.85,9.12h17.26c5.34,0,5.42-4.12-0.14-9.67
		L296.1,186.3L296.1,186.3z"/>
	<path class="st1" d="M11.73,217.69h10.87c2.15,0,3.75,0.09,4.81,0.28c1.06,0.17,2.01,0.54,2.84,1.11c0.84,0.57,1.54,1.33,2.1,2.28
		c0.56,0.94,0.84,2,0.84,3.17c0,1.27-0.35,2.44-1.04,3.51c-0.68,1.06-1.61,1.86-2.78,2.39c1.66,0.48,2.93,1.31,3.82,2.47
		c0.89,1.16,1.34,2.53,1.34,4.1c0,1.24-0.29,2.44-0.87,3.62c-0.57,1.16-1.35,2.1-2.36,2.8c-0.99,0.69-2.21,1.12-3.67,1.28
		c-0.92,0.1-3.12,0.16-6.62,0.19h-9.26V217.69L11.73,217.69z M17.23,222.21v6.29h3.6c2.14,0,3.47-0.03,3.99-0.09
		c0.94-0.11,1.68-0.43,2.21-0.96c0.54-0.54,0.82-1.25,0.82-2.13c0-0.84-0.24-1.52-0.71-2.04c-0.46-0.53-1.14-0.85-2.06-0.96
		c-0.54-0.06-2.11-0.09-4.69-0.09H17.23L17.23,222.21z M17.23,233.03v7.27h5.08c1.98,0,3.23-0.06,3.77-0.17
		c0.82-0.15,1.48-0.51,1.99-1.08c0.52-0.58,0.78-1.35,0.78-2.32c0-0.82-0.2-1.51-0.59-2.08c-0.4-0.57-0.97-0.98-1.73-1.24
		c-0.74-0.26-2.36-0.39-4.86-0.39H17.23L17.23,233.03z"/>
	<polygon points="72.22,244.89 72.22,217.69 92.39,217.69 92.39,222.29 77.71,222.29 77.71,228.32 91.37,228.32 91.37,232.9 
		77.71,232.9 77.71,240.3 92.91,240.3 92.91,244.89 72.22,244.89 	"/>
	<path class="st1" d="M155.15,244.89h-5.97l-2.38-6.18h-10.87l-2.25,6.18h-5.83l10.59-27.2h5.81L155.15,244.89L155.15,244.89z
		 M145.04,234.13l-3.75-10.09l-3.67,10.09H145.04L145.04,234.13z"/>
	<path class="st1" d="M191.14,244.89v-27.2h11.56c2.91,0,5.02,0.25,6.33,0.74c1.32,0.48,2.38,1.35,3.17,2.6
		c0.79,1.25,1.19,2.68,1.19,4.29c0,2.04-0.6,3.73-1.8,5.07c-1.2,1.32-2.99,2.16-5.38,2.5c1.19,0.69,2.16,1.45,2.93,2.28
		c0.78,0.83,1.82,2.3,3.14,4.42l3.32,5.31h-6.57l-3.97-5.92c-1.41-2.12-2.38-3.44-2.89-3.99c-0.52-0.56-1.07-0.93-1.65-1.13
		c-0.58-0.21-1.5-0.31-2.76-0.32h-1.11v11.36H191.14L191.14,244.89z M196.64,229.19h4.06c2.63,0,4.28-0.11,4.94-0.33
		c0.66-0.22,1.17-0.61,1.54-1.15c0.37-0.54,0.56-1.22,0.56-2.04c0-0.92-0.25-1.65-0.74-2.21c-0.48-0.57-1.17-0.93-2.06-1.08
		c-0.45-0.06-1.78-0.09-4.01-0.09h-4.29V229.19L196.64,229.19z"/>
	<polygon points="251.46,244.89 251.46,217.69 256.95,217.69 256.95,244.89 251.46,244.89 	"/>
	<polygon points="295.3,244.89 295.3,217.69 300.64,217.69 311.78,235.85 311.78,217.69 316.88,217.69 316.88,244.89 311.37,244.89 
		300.4,227.15 300.4,244.89 295.3,244.89 	"/>
	<path d="M368.4,234.89v-4.58h11.84v10.84c-1.15,1.11-2.82,2.1-5.01,2.95c-2.18,0.84-4.38,1.26-6.62,1.26
		c-2.84,0-5.33-0.59-7.44-1.78c-2.12-1.2-3.71-2.91-4.77-5.12c-1.06-2.23-1.6-4.64-1.6-7.25c0-2.83,0.59-5.35,1.78-7.55
		c1.19-2.2,2.93-3.89,5.21-5.07c1.74-0.9,3.91-1.35,6.51-1.35c3.38,0,6.01,0.71,7.9,2.13c1.91,1.41,3.13,3.37,3.67,5.86l-5.46,1.02
		c-0.38-1.34-1.11-2.39-2.17-3.15c-1.05-0.78-2.37-1.17-3.95-1.17c-2.4,0-4.31,0.76-5.73,2.28c-1.41,1.52-2.12,3.78-2.12,6.77
		c0,3.23,0.72,5.65,2.15,7.27c1.43,1.61,3.32,2.41,5.64,2.41c1.15,0,2.3-0.22,3.45-0.67c1.16-0.46,2.16-1.01,2.99-1.65v-3.45H368.4
		L368.4,234.89z"/>
	<path d="M416.97,236.04l5.34-0.52c0.32,1.79,0.97,3.11,1.95,3.95c0.99,0.84,2.32,1.26,3.99,1.26c1.77,0,3.1-0.37,3.99-1.11
		c0.9-0.75,1.35-1.63,1.35-2.63c0-0.64-0.19-1.19-0.58-1.63c-0.37-0.46-1.03-0.85-1.97-1.19c-0.64-0.22-2.11-0.62-4.4-1.19
		c-2.95-0.73-5.01-1.63-6.2-2.69c-1.67-1.5-2.51-3.32-2.51-5.47c0-1.38,0.39-2.68,1.17-3.88c0.79-1.21,1.92-2.13,3.39-2.76
		c1.49-0.63,3.27-0.95,5.36-0.95c3.41,0,5.98,0.75,7.7,2.25c1.73,1.5,2.64,3.5,2.73,5.99l-5.49,0.24c-0.24-1.4-0.74-2.4-1.52-3.01
		c-0.77-0.62-1.92-0.93-3.47-0.93c-1.59,0-2.84,0.33-3.75,0.98c-0.58,0.42-0.87,0.98-0.87,1.69c0,0.64,0.27,1.19,0.82,1.65
		c0.69,0.58,2.37,1.19,5.05,1.82c2.67,0.63,4.65,1.29,5.92,1.97c1.29,0.67,2.29,1.59,3.01,2.76c0.73,1.16,1.09,2.6,1.09,4.32
		c0,1.56-0.43,3.02-1.3,4.38c-0.87,1.36-2.09,2.38-3.67,3.04c-1.58,0.66-3.56,0.98-5.92,0.98c-3.44,0-6.08-0.79-7.92-2.38
		C418.43,241.4,417.33,239.08,416.97,236.04L416.97,236.04z"/>
</g>
<rect x="11" y="10.49" class="st2" width="427.5" height="27.66"/>
</svg>
