<svg width="259" height="193" viewBox="0 0 259 193" fill="none" xmlns="http://www.w3.org/2000/svg">
<path d="M72.6628 114.261C73.7138 115.316 74.2579 115.438 74.8661 115.438C76.2105 115.438 76.8773 114.767 76.8773 113.276L76.9147 79.5271C76.9147 77.5672 78.6751 76.0441 80.6597 76.0441H89.4355C91.5054 76.0441 93.1912 77.7217 93.1912 79.788L93.1272 123.831C93.1272 129.285 88.6993 133.705 83.2364 133.705L78.4991 133.721C74.4286 133.721 69.958 131.665 66.2824 128.081C66.2824 128.081 36.7488 96.6278 35.9112 95.7437C35.1003 94.8916 34.5722 94.9129 33.964 94.9129C32.913 94.9183 32.0541 95.2378 32.0541 96.6385V129.876C32.0541 131.868 30.299 133.38 28.3091 133.38H19.6187C17.6768 133.38 15.8843 131.921 15.8843 130.025L15.8683 85.8699C15.8683 80.4165 20.3069 76.108 25.759 75.9962H30.5817C34.9723 75.9962 39.2561 77.5672 42.8785 81.6147C42.8732 81.6147 71.0784 112.674 72.6628 114.261Z" fill="#224A85"/>
<path d="M194.281 115.534C194.281 117.771 196.095 119.773 198.335 119.773L240.614 119.794C242.406 119.794 243.777 121.552 243.777 123.4V129.897C243.777 131.74 242.278 133.497 240.63 133.497H199.786C194.195 133.497 190.125 132.304 186.769 129.434C184.774 127.842 182.779 125.61 181.419 123.299C179.978 120.828 179.343 118.516 179.343 115.246V94.4443C179.343 88.7085 181.098 84.7196 185.254 80.9756C189.325 77.3116 193.16 76.0334 200.106 76.0334H240.523C242.422 76.1346 243.932 77.7057 243.932 79.6282V86.051C243.932 88.0375 242.315 89.6512 240.326 89.6512H198.335C196.095 89.6512 194.281 91.5577 194.281 93.7945V98.119H238.672C240.72 98.119 241.761 99.9617 241.761 101.804V107.364C241.761 109.255 240.454 111.071 238.533 111.071L194.281 111.3V115.534Z" fill="#224A85"/>
<path d="M167.964 126.217L147.574 104.973L168.252 83.4148L170.509 81.194C173.427 78.3341 173.432 76.0441 170.578 76.0441H161.37C157.118 76.3636 155.923 76.9281 151.64 80.6188L149.9 82.2538L148.663 83.4148L134.547 98.2095V98.1829C133.538 99.2427 131.997 99.9244 130.274 99.9244C127.27 99.9244 124.832 97.874 124.773 95.323H124.757L124.736 79.6975C124.736 77.0772 122.735 76.0441 120.612 76.0441H112.359C110.332 76.0441 108.278 77.0559 108.278 79.4099V129.461C108.353 131.687 110.183 133.465 112.429 133.465H120.682C122.805 133.465 124.805 131.926 124.805 129.823L124.784 114.703H124.795C124.795 114.703 124.795 114.703 124.795 114.698C124.795 112.104 127.259 110.001 130.3 110.001C132.039 110.001 133.586 110.688 134.595 111.758L148.439 126.207L150.167 127.911L151.037 128.726C155.587 132.667 156.734 133.252 161.093 133.583H170.301C173.15 133.583 173.192 131.388 170.226 128.433L167.964 126.217Z" fill="#224A85"/>
<path fill-rule="evenodd" clip-rule="evenodd" d="M16.2577 142.935H22.0566C23.2036 142.935 24.0572 142.982 24.6227 143.084C25.1882 143.174 25.695 143.371 26.1378 143.675C26.5859 143.978 26.9593 144.383 27.2581 144.889C27.5568 145.39 27.7062 145.954 27.7062 146.577C27.7062 147.254 27.5195 147.877 27.1514 148.447C26.7886 149.011 26.2925 149.437 25.6683 149.719C26.5539 149.975 27.2314 150.417 27.7062 151.035C28.181 151.653 28.4211 152.382 28.4211 153.218C28.4211 153.879 28.2664 154.518 27.957 155.146C27.6529 155.764 27.2368 156.265 26.6979 156.637C26.1698 157.005 25.5189 157.234 24.7401 157.319C24.2493 157.372 23.0756 157.404 21.2084 157.42H16.2684V142.935H16.2577ZM19.1918 145.342V148.692H21.1124C22.254 148.692 22.9636 148.676 23.241 148.644C23.7424 148.585 24.1372 148.415 24.42 148.132C24.708 147.845 24.8574 147.467 24.8574 146.998C24.8574 146.551 24.7294 146.188 24.4787 145.912C24.2332 145.629 23.8705 145.459 23.3797 145.4C23.0916 145.368 22.254 145.352 20.8776 145.352H19.1918V145.342ZM19.1918 151.104V154.976H21.9019C22.9582 154.976 23.6251 154.944 23.9132 154.885C24.3506 154.805 24.7027 154.614 24.9748 154.31C25.2522 154.001 25.3909 153.591 25.3909 153.075C25.3909 152.638 25.2842 152.27 25.0762 151.967C24.8628 151.663 24.5587 151.445 24.1532 151.306C23.7584 151.168 22.8942 151.099 21.5605 151.099H19.1918V151.104Z" fill="black"/>
<path d="M48.5281 157.42V142.935H59.2884V145.384H51.4569V148.596H58.7443V151.035H51.4569V154.976H59.5658V157.42H48.5281Z" fill="black"/>
<path fill-rule="evenodd" clip-rule="evenodd" d="M92.7697 157.42H89.5849L88.3152 154.129H82.5162L81.3159 157.42H78.2057L83.8553 142.935H86.9548L92.7697 157.42ZM87.3762 151.69L85.3757 146.316L83.4178 151.69H87.3762Z" fill="black"/>
<path fill-rule="evenodd" clip-rule="evenodd" d="M111.97 157.42V142.935H118.137C119.689 142.935 120.815 143.068 121.514 143.329C122.218 143.584 122.783 144.048 123.205 144.713C123.626 145.379 123.84 146.141 123.84 146.998C123.84 148.084 123.52 148.984 122.879 149.698C122.239 150.401 121.284 150.848 120.009 151.03C120.644 151.397 121.162 151.802 121.572 152.244C121.989 152.686 122.543 153.469 123.248 154.598L125.019 157.426H121.514L119.396 154.273C118.644 153.144 118.126 152.441 117.854 152.148C117.577 151.85 117.283 151.653 116.974 151.546C116.664 151.434 116.174 151.381 115.501 151.376H114.909V157.426H111.97V157.42ZM114.904 149.059H117.07C118.473 149.059 119.353 149 119.705 148.883C120.057 148.766 120.329 148.558 120.527 148.271C120.724 147.983 120.826 147.621 120.826 147.184C120.826 146.694 120.692 146.306 120.431 146.007C120.175 145.704 119.807 145.512 119.332 145.432C119.092 145.4 118.382 145.384 117.193 145.384H114.904V149.059Z" fill="black"/>
<path d="M144.149 157.42V142.935H147.078V157.42H144.149Z" fill="black"/>
<path d="M167.537 157.42V142.935H170.386L176.329 152.606V142.935H179.05V157.42H176.11L170.258 147.973V157.42H167.537Z" fill="black"/>
<path d="M206.535 152.095V149.655H212.851V155.429C212.238 156.02 211.347 156.547 210.178 157C209.015 157.447 207.842 157.671 206.647 157.671C205.132 157.671 203.803 157.356 202.678 156.723C201.547 156.084 200.698 155.173 200.133 153.996C199.568 152.808 199.279 151.525 199.279 150.135C199.279 148.628 199.594 147.286 200.229 146.114C200.864 144.942 201.792 144.042 203.008 143.414C203.937 142.935 205.094 142.695 206.481 142.695C208.285 142.695 209.688 143.073 210.696 143.829C211.715 144.58 212.366 145.624 212.654 146.95L209.741 147.493C209.538 146.78 209.149 146.22 208.583 145.816C208.023 145.4 207.319 145.193 206.476 145.193C205.196 145.193 204.177 145.597 203.419 146.407C202.667 147.216 202.288 148.42 202.288 150.012C202.288 151.733 202.672 153.021 203.435 153.884C204.198 154.742 205.206 155.168 206.444 155.168C207.058 155.168 207.671 155.05 208.285 154.811C208.903 154.566 209.437 154.273 209.88 153.932V152.095H206.535V152.095Z" fill="black"/>
<path d="M232.446 152.707L235.295 152.43C235.466 153.383 235.812 154.086 236.335 154.534C236.863 154.981 237.573 155.205 238.464 155.205C239.408 155.205 240.118 155.008 240.592 154.614C241.072 154.214 241.313 153.746 241.313 153.213C241.313 152.872 241.211 152.579 241.003 152.345C240.806 152.1 240.454 151.892 239.952 151.711C239.611 151.594 238.827 151.381 237.605 151.077C236.031 150.689 234.932 150.209 234.297 149.645C233.406 148.846 232.958 147.877 232.958 146.732C232.958 145.997 233.166 145.304 233.582 144.665C234.004 144.021 234.607 143.531 235.391 143.195C236.186 142.86 237.135 142.69 238.25 142.69C240.07 142.69 241.441 143.089 242.358 143.888C243.281 144.687 243.767 145.752 243.815 147.078L240.886 147.206C240.758 146.46 240.491 145.928 240.075 145.603C239.664 145.272 239.051 145.107 238.224 145.107C237.375 145.107 236.709 145.283 236.223 145.629C235.914 145.853 235.759 146.151 235.759 146.529C235.759 146.87 235.903 147.163 236.196 147.408C236.565 147.717 237.461 148.042 238.891 148.377C240.315 148.713 241.371 149.064 242.049 149.426C242.737 149.783 243.27 150.273 243.655 150.896C244.044 151.514 244.236 152.281 244.236 153.197C244.236 154.028 244.007 154.805 243.542 155.53C243.078 156.254 242.428 156.797 241.585 157.149C240.742 157.5 239.685 157.671 238.426 157.671C236.591 157.671 235.183 157.25 234.201 156.403C233.225 155.562 232.638 154.326 232.446 152.707Z" fill="black"/>
<path d="M243.932 32.5866H15.8683V47.3174H243.932V32.5866Z" fill="#FFCC00"/>
</svg>
