<svg width="627" height="121" viewBox="0 0 627 121" fill="none" xmlns="http://www.w3.org/2000/svg">
<path d="M0 92.6L22.6 110.7V56.3L91.5 111V10.7H68.4V62.8L0 8.79999V92.6Z" fill="black"/>
<path d="M100.8 10.7V32.4H131.8V91.8L156.4 111.5V41.2L145 32.4H187.1V10.7" fill="black"/>
<path d="M196.6 8.79999V92.6L219.3 110.7V56.3L288.1 111V10.7H265.1V62.8" fill="black"/>
<path d="M306.9 92.9C308 92.9 308.5 92.5 308.5 91.5C308.5 91 308.3 90.2 307 90.2H304.4V92.9H306.9ZM302.3 88.5H307.4C310.1 88.5 310.6 90.5 310.6 91.3C310.6 92.4 310 93.4 309 93.7C309.8 94.1 310.3 94.4 310.3 96.2C310.3 97.7 310.3 98 310.7 98.2V98.5H308.4C308.3 98 308.2 97.5 308.2 96.5C308.2 95.1 308.1 94.6 306.5 94.6H304.3V98.5H302.2" fill="black"/>
<path d="M306.3 101C304.2 101 302.3 100.2 300.8 98.7C299.3 97.3 298.5 95.3 298.5 93.3C298.5 91.2 299.3 89.3 300.8 87.9C302.3 86.5 304.2 85.7 306.3 85.7C308.4 85.7 310.3 86.5 311.8 87.9C313.3 89.3 314.1 91.3 314.1 93.3C314.1 97.6 310.6 101 306.3 101ZM312.7 87C311 85.3 308.7 84.4 306.3 84.4C301.3 84.4 297.3 88.4 297.3 93.3C297.3 95.7 298.2 97.9 299.9 99.6C301.6 101.3 303.9 102.2 306.3 102.2C308.7 102.2 311 101.3 312.7 99.6C314.4 97.9 315.3 95.7 315.3 93.3C315.3 91 314.4 88.7 312.7 87Z" fill="black"/>
<path d="M482.4 119.2C415.5 119.2 361.3 92.8 361.3 60.2C361.3 27.6 415.5 1.20001 482.4 1.20001C549.3 1.20001 603.1 27.6 603.1 60.2C603.1 92.8 549.3 119.2 482.4 119.2ZM359.5 120.4H604.3V0H359.5V120.4Z" fill="black"/>
<path d="M445.4 34.2H468.1L490.7 61.2V34H511.2V86.4H489L465.5 58.5V86.4H445.4" fill="black"/>
<path d="M560.5 53.4C560.5 53.4 563.7 53.6001 563.7 50.2001C563.7 46.8001 560.6 47 560.6 47H539.7V53.4H560.5ZM518.7 86.4V34.1H566.8C566.8 34.1 586.1 33.5 586.1 50.4C586.1 63.9 574 65.4 574 65.4L587.8 86.6H564.2L551.2 67.1H539.7V86.4" fill="black"/>
<path d="M373.8 70.4L401.2 70.5C401.2 70.5 402.6 74 410 74C410 74 417.2 74.2 417.2 71.1C417.2 67.9 413.7 68 410.1 67.7C406.5 67.3 393.9 66.5 389.8 65.5C385.7 64.4 374.1 62.7 374.1 50.9C374.1 39.1 386.2 32.8 406.4 32.8C406.4 32.8 415.7 32.5 424.3 34.7C432.3 36.7 439.6 40.9 439.6 49.1H413.9C413.9 49.1 412.6 45.3 404.8 45.3C397.5 45.3 397.7 47.8 397.7 48.4C397.7 49 397.2 52 414.1 52.5C414.1 52.5 428 53.7 432.8 56.3C439.2 59.8 441.1 63.8 441.4 69.1C441.9 77.8 433.9 81.9 431.9 83C429.9 84 421 87.6 406.5 87.6C392.1 87.6 384.7 85 380.9 82.5C377 79.9 373.8 76.3 373.8 70.4Z" fill="black"/>
<path d="M617.9 92.9C619 92.9 619.5 92.5 619.5 91.5C619.5 91 619.3 90.2 618 90.2H615.4V92.9H617.9ZM613.4 88.5H618.5C621.2 88.5 621.7 90.5 621.7 91.3C621.7 92.4 621.1 93.4 620.1 93.7C620.9 94.1 621.4 94.4 621.4 96.2C621.4 97.7 621.4 98 621.9 98.2V98.5H619.6C619.5 98 619.4 97.5 619.4 96.5C619.4 95.1 619.3 94.6 617.7 94.6H615.5V98.5H613.4" fill="black"/>
<path d="M617.3 101C615.2 101 613.3 100.2 611.8 98.7C610.3 97.3 609.5 95.3 609.5 93.3C609.5 91.2 610.3 89.3 611.8 87.9C613.3 86.5 615.2 85.7 617.3 85.7C619.4 85.7 621.3 86.5 622.8 87.9C624.3 89.3 625.1 91.3 625.1 93.3C625.1 97.6 621.6 101 617.3 101ZM623.7 87C622 85.3 619.7 84.4 617.3 84.4C612.3 84.4 608.3 88.4 608.3 93.3C608.3 95.7 609.2 97.9 610.9 99.6C612.6 101.3 614.9 102.2 617.3 102.2C619.7 102.2 622 101.3 623.7 99.6C625.4 97.9 626.3 95.7 626.3 93.3C626.3 91 625.4 88.7 623.7 87Z" fill="black"/>
</svg>
