<?xml version="1.0" encoding="utf-8"?>
<!-- Generator: Adobe Illustrator 19.2.1, SVG Export Plug-In . SVG Version: 6.00 Build 0)  -->
<svg version="1.1" id="layer" xmlns="http://www.w3.org/2000/svg" xmlns:xlink="http://www.w3.org/1999/xlink" x="0px" y="0px"
	 viewBox="0 0 652 652" style="enable-background:new 0 0 652 652;" xml:space="preserve">
<polygon points="14.7,358.6 37.3,376.7 37.3,322.3 106.2,377 106.2,276.7 83.1,276.7 83.1,328.8 14.7,274.8 "/>
<polyline points="115.5,276.7 115.5,298.4 146.5,298.4 146.5,357.8 171.1,377.5 171.1,307.2 159.7,298.4 201.8,298.4 201.8,276.7 
	"/>
<polyline points="211.3,274.8 211.3,358.6 234,376.7 234,322.3 302.8,377 302.8,276.7 279.8,276.7 279.8,328.8 "/>
<g>
	<path d="M318.9,358.8c1.1,0,1.6-0.4,1.6-1.4c0-0.5-0.2-1.3-1.5-1.3h-2.6v2.7H318.9z M314.3,354.4h5.1c2.7,0,3.2,2,3.2,2.8
		c0,1.1-0.6,2.1-1.6,2.4c0.8,0.4,1.3,0.7,1.3,2.5c0,1.5,0,1.8,0.4,2v0.3h-2.3c-0.1-0.5-0.2-1-0.2-2c0-1.4-0.1-1.9-1.7-1.9h-2.2v3.9
		h-2.1"/>
	<path d="M318.3,366.9c-2.1,0-4-0.8-5.5-2.3c-1.5-1.4-2.3-3.4-2.3-5.4c0-2.1,0.8-4,2.3-5.4c1.5-1.4,3.4-2.2,5.5-2.2
		c2.1,0,4,0.8,5.5,2.2c1.5,1.4,2.3,3.4,2.3,5.4C326.1,363.5,322.6,366.9,318.3,366.9 M324.7,352.9c-1.7-1.7-4-2.6-6.4-2.6
		c-5,0-9,4-9,8.9c0,2.4,0.9,4.6,2.6,6.3c1.7,1.7,4,2.6,6.4,2.6s4.7-0.9,6.4-2.6c1.7-1.7,2.6-3.9,2.6-6.3
		C327.3,356.9,326.4,354.6,324.7,352.9"/>
	<path d="M494.4,385.1c-66.9,0-121.1-26.4-121.1-59s54.2-59,121.1-59c66.9,0,120.7,26.4,120.7,59S561.3,385.1,494.4,385.1
		 M371.5,386.3h244.8V265.9H371.5V386.3z"/>
	<polyline points="457.4,300.1 480.1,300.1 502.7,327.1 502.7,299.9 523.2,299.9 523.2,352.3 501,352.3 477.5,324.4 477.5,352.3 
		457.4,352.3 	"/>
	<path d="M572.5,319.3c0,0,3.2,0.2,3.2-3.2c0-3.4-3.1-3.2-3.1-3.2h-20.9v6.4H572.5z M530.7,352.3V300h48.1c0,0,19.3-0.6,19.3,16.3
		c0,13.5-12.1,15-12.1,15l13.8,21.2h-23.6l-13-19.5h-11.5v19.3"/>
	<path d="M385.8,336.3l27.4,0.1c0,0,1.4,3.5,8.8,3.5c0,0,7.2,0.2,7.2-2.9c0-3.2-3.5-3.1-7.1-3.4c-3.6-0.4-16.2-1.2-20.3-2.2
		c-4.1-1.1-15.7-2.8-15.7-14.6c0-11.8,12.1-18.1,32.3-18.1c0,0,9.3-0.3,17.9,1.9c8,2,15.3,6.2,15.3,14.4h-25.7c0,0-1.3-3.8-9.1-3.8
		c-7.3,0-7.1,2.5-7.1,3.1c0,0.6-0.5,3.6,16.4,4.1c0,0,13.9,1.2,18.7,3.8c6.4,3.5,8.3,7.5,8.6,12.8c0.5,8.7-7.5,12.8-9.5,13.9
		c-2,1-10.9,4.6-25.4,4.6c-14.4,0-21.8-2.6-25.6-5.1C389,345.8,385.8,342.2,385.8,336.3"/>
	<path d="M629.9,358.8c1.1,0,1.6-0.4,1.6-1.4c0-0.5-0.2-1.3-1.5-1.3h-2.6v2.7H629.9z M625.4,354.4h5.1c2.7,0,3.2,2,3.2,2.8
		c0,1.1-0.6,2.1-1.6,2.4c0.8,0.4,1.3,0.7,1.3,2.5c0,1.5,0,1.8,0.5,2v0.3h-2.3c-0.1-0.5-0.2-1-0.2-2c0-1.4-0.1-1.9-1.7-1.9h-2.2v3.9
		h-2.1"/>
	<path d="M629.3,366.9c-2.1,0-4-0.8-5.5-2.3c-1.5-1.4-2.3-3.4-2.3-5.4c0-2.1,0.8-4,2.3-5.4c1.5-1.4,3.4-2.2,5.5-2.2
		c2.1,0,4,0.8,5.5,2.2c1.5,1.4,2.3,3.4,2.3,5.4C637.1,363.5,633.6,366.9,629.3,366.9 M635.7,352.9c-1.7-1.7-4-2.6-6.4-2.6
		c-5,0-9,4-9,8.9c0,2.4,0.9,4.6,2.6,6.3c1.7,1.7,4,2.6,6.4,2.6c2.4,0,4.7-0.9,6.4-2.6c1.7-1.7,2.6-3.9,2.6-6.3
		C638.3,356.9,637.4,354.6,635.7,352.9"/>
</g>
</svg>
