<svg width="511" height="511" viewBox="0 0 511 511" fill="none" xmlns="http://www.w3.org/2000/svg">
<g clip-path="url(#clip0)">
<path d="M509.663 195.998C506.299 185.651 497.121 178.325 486.306 177.347L338.796 163.955L280.499 27.4697C276.195 17.4423 266.401 10.9705 255.5 10.9705C244.6 10.9705 234.802 17.4423 230.525 27.4697L172.228 163.955L24.6943 177.347C13.8793 178.345 4.72131 185.671 1.33725 195.998C-2.02731 206.345 1.07994 217.694 9.25938 224.868L120.766 322.643L87.8881 467.448C85.4826 478.095 89.6152 489.105 98.4496 495.491C103.198 498.942 108.777 500.665 114.376 500.665C119.187 500.665 124.002 499.386 128.302 496.813L255.5 420.757L382.676 496.813C392.005 502.388 403.736 501.877 412.551 495.491C421.386 489.105 425.518 478.095 423.113 467.448L390.235 322.643L501.741 224.868C509.917 217.694 513.028 206.369 509.663 195.998V195.998Z" fill="white"/>
</g>
<defs>
<clipPath id="clip0">
<rect width="511" height="511" fill="white"/>
</clipPath>
</defs>
</svg>
