<svg width="40" height="40" viewBox="0 0 40 40" fill="none" xmlns="http://www.w3.org/2000/svg">
<path d="M40 20C40 31.055 31.0535 40 20 40C8.94501 40 0 31.0535 0 20C0 8.94501 8.94653 0 20 0C31.055 0 40 8.94653 40 20ZM36.875 20C36.875 10.6723 29.3265 3.125 20 3.125C10.6723 3.125 3.125 10.6735 3.125 20C3.125 29.3277 10.6735 36.875 20 36.875C29.3277 36.875 36.875 29.3265 36.875 20Z" fill="#EC7623"/>
<path d="M18 10.262C18 8.86494 18.8615 8 20 8C21.1108 8 21.9999 8.89811 22 10.262V23.0761C22 24.4386 21.1108 25.3367 20 25.3367C18.8613 25.3367 18 24.4746 18 23.0761V10.262Z" fill="#EC7623"/>
<circle cx="20" cy="30" r="2" fill="#EC7623"/>
</svg>
