<svg width="512" height="512" viewBox="0 0 512 512" fill="none" xmlns="http://www.w3.org/2000/svg">
<path d="M255.859 323.978H255.867C273.925 323.958 291.238 316.776 304.007 304.007C316.776 291.238 323.958 273.925 323.978 255.867V255.859C323.978 242.386 319.983 229.216 312.498 218.014C305.013 206.811 294.374 198.08 281.927 192.925C269.48 187.769 255.783 186.42 242.569 189.048C229.355 191.676 217.218 198.164 207.691 207.691C198.164 217.218 191.677 229.355 189.048 242.569C186.42 255.783 187.769 269.48 192.925 281.927C198.08 294.374 206.811 305.013 218.014 312.498C229.216 319.983 242.386 323.978 255.859 323.978ZM158.99 110.885C187.662 91.7268 221.371 81.5008 255.855 81.5C302.082 81.553 346.401 99.9403 379.089 132.628C411.778 165.317 430.166 209.638 430.218 255.867C430.216 290.349 419.99 324.056 400.833 352.727C381.674 381.4 354.443 403.748 322.583 416.945C290.723 430.142 255.665 433.595 221.843 426.867C188.021 420.14 156.953 403.534 132.569 379.149C108.184 354.764 91.578 323.697 84.8503 289.874C78.1226 256.052 81.5756 220.995 94.7724 189.135C107.969 157.275 130.317 130.044 158.99 110.885Z" fill="white" stroke="#EC7623" stroke-width="15"/>
<circle cx="256.5" cy="377.079" r="32" fill="white" stroke="#EC7623" stroke-width="15"/>
<circle cx="256.5" cy="135.079" r="32" fill="white" stroke="#EC7623" stroke-width="15"/>
<circle cx="170.939" cy="170.519" r="32" transform="rotate(135 170.939 170.519)" fill="white" stroke="#EC7623" stroke-width="15"/>
<circle cx="342.059" cy="341.639" r="32" transform="rotate(135 342.059 341.639)" fill="white" stroke="#EC7623" stroke-width="15"/>
<circle cx="342.061" cy="170.519" r="32" transform="rotate(-135 342.061 170.519)" fill="white" stroke="#EC7623" stroke-width="15"/>
<circle cx="170.94" cy="341.639" r="32" transform="rotate(-135 170.94 341.639)" fill="white" stroke="#EC7623" stroke-width="15"/>
<circle cx="377.5" cy="256.079" r="32" transform="rotate(-90 377.5 256.079)" fill="white" stroke="#EC7623" stroke-width="15"/>
<circle cx="135.5" cy="256.079" r="32" transform="rotate(-90 135.5 256.079)" fill="white" stroke="#EC7623" stroke-width="15"/>
</svg>
