<svg width="479" height="244" viewBox="0 0 479 244" fill="none" xmlns="http://www.w3.org/2000/svg">
<g clip-path="url(#clip0)">
<g filter="url(#filter0_d)">
<rect x="35" width="409" height="215.542" rx="5" fill="#39245A" fill-opacity="0.05"/>
<rect x="47.3672" y="15.0171" width="384.266" height="190.808" rx="5" fill="white"/>
<circle cx="50.459" cy="8.09179" r="3.09179" fill="#FF0000"/>
<circle cx="59.2925" cy="8.09179" r="3.09179" fill="#FF981F"/>
<circle cx="68.1265" cy="8.09179" r="3.09179" fill="#3EFF1F"/>
</g>
<rect x="115" y="119" width="207" height="67" rx="5" fill="#3B393F" fill-opacity="0.05"/>
<g filter="url(#filter1_d)">
<rect x="238" y="164" width="80" height="14" rx="5" fill="#3EFF1F" fill-opacity="0.28"/>
</g>
<rect x="115" y="28" width="207" height="73" rx="5" fill="#3B393F" fill-opacity="0.05"/>
<rect x="120" y="58" width="198" height="14" rx="5" fill="#3B393F" fill-opacity="0.05"/>
<rect x="120" y="80" width="198" height="14" rx="5" fill="#3B393F" fill-opacity="0.05"/>
<rect x="120" y="36" width="198" height="14" rx="5" fill="#3B393F" fill-opacity="0.05"/>
<rect x="120" y="126" width="60" height="5" rx="2.5" fill="#3B393F" fill-opacity="0.05"/>
<rect x="258" y="126" width="60" height="5" rx="2.5" fill="#3B393F" fill-opacity="0.05"/>
<rect x="258" y="144" width="60" height="5" rx="2.5" fill="#3B393F" fill-opacity="0.05"/>
<rect x="258" y="153" width="60" height="5" rx="2.5" fill="#3B393F" fill-opacity="0.05"/>
<rect x="258" y="135" width="60" height="5" rx="2.5" fill="#3B393F" fill-opacity="0.05"/>
<rect x="120" y="135" width="60" height="5" rx="2.5" fill="#3B393F" fill-opacity="0.05"/>
<rect x="120" y="144" width="60" height="5" rx="2.5" fill="#3B393F" fill-opacity="0.05"/>
<rect x="120" y="153" width="60" height="5" rx="2.5" fill="#3B393F" fill-opacity="0.05"/>
<rect x="120" y="164" width="109" height="14" rx="5" fill="#3B393F" fill-opacity="0.05"/>
<g filter="url(#filter2_d)">
<circle cx="378" cy="48" r="20" fill="#3EFF1F" fill-opacity="0.28"/>
<path d="M374.705 58.0057C374.438 58.2705 374.074 58.4184 373.696 58.4184C373.317 58.4184 372.953 58.2705 372.687 58.0057L364.627 50.0524C363.791 49.2271 363.791 47.8891 364.627 47.0652L365.637 46.0694C366.473 45.2441 367.828 45.2441 368.664 46.0694L373.696 51.0341L387.292 37.619C388.128 36.7937 389.484 36.7937 390.319 37.619L391.329 38.6147C392.165 39.4401 392.165 40.7781 391.329 41.602L374.705 58.0057Z" fill="white"/>
</g>
</g>
<defs>
<filter id="filter0_d" x="17" y="-18" width="465" height="271.542" filterUnits="userSpaceOnUse" color-interpolation-filters="sRGB">
<feFlood flood-opacity="0" result="BackgroundImageFix"/>
<feColorMatrix in="SourceAlpha" type="matrix" values="0 0 0 0 0 0 0 0 0 0 0 0 0 0 0 0 0 0 127 0"/>
<feOffset dx="10" dy="10"/>
<feGaussianBlur stdDeviation="14"/>
<feColorMatrix type="matrix" values="0 0 0 0 0 0 0 0 0 0 0 0 0 0 0 0 0 0 0.1 0"/>
<feBlend mode="normal" in2="BackgroundImageFix" result="effect1_dropShadow"/>
<feBlend mode="normal" in="SourceGraphic" in2="effect1_dropShadow" result="shape"/>
</filter>
<filter id="filter1_d" x="233" y="159" width="110" height="44" filterUnits="userSpaceOnUse" color-interpolation-filters="sRGB">
<feFlood flood-opacity="0" result="BackgroundImageFix"/>
<feColorMatrix in="SourceAlpha" type="matrix" values="0 0 0 0 0 0 0 0 0 0 0 0 0 0 0 0 0 0 127 0"/>
<feOffset dx="10" dy="10"/>
<feGaussianBlur stdDeviation="7.5"/>
<feColorMatrix type="matrix" values="0 0 0 0 0 0 0 0 0 0 0 0 0 0 0 0 0 0 0.07 0"/>
<feBlend mode="normal" in2="BackgroundImageFix" result="effect1_dropShadow"/>
<feBlend mode="normal" in="SourceGraphic" in2="effect1_dropShadow" result="shape"/>
</filter>
<filter id="filter2_d" x="340" y="10" width="96" height="96" filterUnits="userSpaceOnUse" color-interpolation-filters="sRGB">
<feFlood flood-opacity="0" result="BackgroundImageFix"/>
<feColorMatrix in="SourceAlpha" type="matrix" values="0 0 0 0 0 0 0 0 0 0 0 0 0 0 0 0 0 0 127 0"/>
<feOffset dx="10" dy="10"/>
<feGaussianBlur stdDeviation="14"/>
<feColorMatrix type="matrix" values="0 0 0 0 0 0 0 0 0 0 0 0 0 0 0 0 0 0 0.1 0"/>
<feBlend mode="normal" in2="BackgroundImageFix" result="effect1_dropShadow"/>
<feBlend mode="normal" in="SourceGraphic" in2="effect1_dropShadow" result="shape"/>
</filter>
<clipPath id="clip0">
<rect width="479" height="244" fill="white"/>
</clipPath>
</defs>
</svg>
