<svg width="512" height="512" viewBox="0 0 512 512" fill="none" xmlns="http://www.w3.org/2000/svg">
<path d="M152 400H120C120 395.757 118.314 391.687 115.314 388.686C112.313 385.686 108.243 384 104 384C99.7565 384 95.6869 385.686 92.6863 388.686C89.6857 391.687 88 395.757 88 400H56C56 387.27 61.0571 375.061 70.0589 366.059C79.0606 357.057 91.2696 352 104 352C116.73 352 128.939 357.057 137.941 366.059C146.943 375.061 152 387.27 152 400Z" fill="white"/>
<path d="M456 400H424C424 395.757 422.314 391.687 419.314 388.686C416.313 385.686 412.243 384 408 384C403.757 384 399.687 385.686 396.686 388.686C393.686 391.687 392 395.757 392 400H360C360 387.27 365.057 375.061 374.059 366.059C383.061 357.057 395.27 352 408 352C420.73 352 432.939 357.057 441.941 366.059C450.943 375.061 456 387.27 456 400Z" fill="white"/>
<path d="M496 272H360V184H439.43L496 272Z" fill="white"/>
<path d="M472 304H496V336H472C467.757 336 463.687 334.314 460.686 331.314C457.686 328.313 456 324.243 456 320C456 315.757 457.686 311.687 460.686 308.686C463.687 305.686 467.757 304 472 304Z" fill="white"/>
<path d="M104 352C94.5065 352 85.2262 354.815 77.3326 360.089C69.4391 365.364 63.2868 372.86 59.6538 381.631C56.0208 390.402 55.0702 400.053 56.9223 409.364C58.7744 418.675 63.346 427.228 70.0589 433.941C76.7718 440.654 85.3246 445.226 94.6357 447.078C103.947 448.93 113.598 447.979 122.369 444.346C131.14 440.713 138.636 434.561 143.911 426.667C149.185 418.774 152 409.494 152 400C152 387.27 146.943 375.061 137.941 366.059C128.939 357.057 116.73 352 104 352ZM104 416C100.836 416 97.7421 415.062 95.1109 413.304C92.4797 411.545 90.429 409.047 89.2179 406.123C88.0069 403.199 87.6901 399.982 88.3075 396.879C88.9248 393.775 90.4487 390.924 92.6863 388.686C94.924 386.449 97.7749 384.925 100.879 384.307C103.982 383.69 107.199 384.007 110.123 385.218C113.047 386.429 115.545 388.48 117.304 391.111C119.062 393.742 120 396.835 120 400C120 404.243 118.314 408.313 115.314 411.314C112.313 414.314 108.243 416 104 416Z" fill="white"/>
<path d="M408 352C398.507 352 389.226 354.815 381.333 360.089C373.439 365.364 367.287 372.86 363.654 381.631C360.021 390.402 359.07 400.053 360.922 409.364C362.774 418.675 367.346 427.228 374.059 433.941C380.772 440.654 389.325 445.226 398.636 447.078C407.947 448.93 417.598 447.979 426.369 444.346C435.14 440.713 442.636 434.561 447.911 426.667C453.185 418.774 456 409.494 456 400C456 387.27 450.943 375.061 441.941 366.059C432.939 357.057 420.73 352 408 352ZM408 416C404.836 416 401.742 415.062 399.111 413.304C396.48 411.545 394.429 409.047 393.218 406.123C392.007 403.199 391.69 399.982 392.307 396.879C392.925 393.775 394.449 390.924 396.686 388.686C398.924 386.449 401.775 384.925 404.879 384.307C407.982 383.69 411.199 384.007 414.123 385.218C417.047 386.429 419.545 388.48 421.304 391.111C423.062 393.742 424 396.835 424 400C424 404.243 422.314 408.313 419.314 411.314C416.313 414.314 412.243 416 408 416Z" fill="white"/>
<path d="M320 108V304H16V108C15.9992 105.373 16.516 102.772 17.5208 100.345C18.5256 97.9185 19.9988 95.7134 21.8561 93.8561C23.7134 91.9988 25.9185 90.5256 28.3454 89.5208C30.7723 88.516 33.3733 87.9992 36 88H300C302.627 87.9992 305.228 88.516 307.655 89.5208C310.081 90.5256 312.287 91.9988 314.144 93.8561C316.001 95.7134 317.474 97.9185 318.479 100.345C319.484 102.772 320.001 105.373 320 108Z" fill="white"/>
<path d="M496 272H360V184H439.43L496 272Z" fill="white"/>
<path d="M496 304V336H472C467.757 336 463.687 334.314 460.686 331.314C457.686 328.313 456 324.243 456 320C456 315.757 457.686 311.687 460.686 308.686C463.687 305.686 467.757 304 472 304H496Z" fill="white"/>
<path d="M104 376C99.2533 376 94.6131 377.408 90.6663 380.045C86.7195 382.682 83.6434 386.43 81.8269 390.816C80.0104 395.201 79.5351 400.027 80.4612 404.682C81.3872 409.338 83.673 413.614 87.0294 416.971C90.3859 420.327 94.6623 422.613 99.3178 423.539C103.973 424.465 108.799 423.99 113.184 422.173C117.57 420.357 121.318 417.28 123.955 413.334C126.592 409.387 128 404.747 128 400C127.993 393.637 125.462 387.537 120.963 383.037C116.463 378.538 110.363 376.007 104 376ZM104 408C102.418 408 100.871 407.531 99.5554 406.652C98.2399 405.773 97.2145 404.523 96.609 403.061C96.0035 401.6 95.845 399.991 96.1537 398.439C96.4624 396.887 97.2243 395.462 98.3432 394.343C99.462 393.224 100.887 392.462 102.439 392.154C103.991 391.845 105.6 392.003 107.061 392.609C108.523 393.214 109.773 394.24 110.652 395.555C111.531 396.871 112 398.418 112 400C111.998 402.121 111.154 404.154 109.654 405.654C108.154 407.154 106.121 407.998 104 408Z" fill="#EC7623"/>
<path d="M408 376C403.253 376 398.613 377.408 394.666 380.045C390.72 382.682 387.643 386.43 385.827 390.816C384.01 395.201 383.535 400.027 384.461 404.682C385.387 409.338 387.673 413.614 391.029 416.971C394.386 420.327 398.662 422.613 403.318 423.539C407.973 424.465 412.799 423.99 417.184 422.173C421.57 420.357 425.318 417.28 427.955 413.334C430.592 409.387 432 404.747 432 400C431.993 393.637 429.462 387.537 424.963 383.037C420.463 378.538 414.363 376.007 408 376ZM408 408C406.418 408 404.871 407.531 403.555 406.652C402.24 405.773 401.214 404.523 400.609 403.061C400.003 401.6 399.845 399.991 400.154 398.439C400.462 396.887 401.224 395.462 402.343 394.343C403.462 393.224 404.887 392.462 406.439 392.154C407.991 391.845 409.6 392.003 411.061 392.609C412.523 393.214 413.773 394.24 414.652 395.555C415.531 396.871 416 398.418 416 400C415.998 402.121 415.154 404.154 413.654 405.654C412.154 407.154 410.121 407.998 408 408Z" fill="#EC7623"/>
<path d="M502.73 267.67L430.73 155.67C430.005 154.544 429.009 153.618 427.833 152.976C426.657 152.335 425.339 151.999 424 152H328V108C327.992 100.576 325.039 93.4593 319.79 88.2101C314.541 82.9608 307.424 80.0082 300 80H36C28.5765 80.0082 21.4593 82.9608 16.2101 88.2101C10.9608 93.4593 8.00821 100.576 8 108V400C8 402.122 8.84285 404.157 10.3431 405.657C11.8434 407.157 13.8783 408 16 408H48.58C50.5031 421.327 57.1641 433.515 67.3425 442.33C77.5209 451.145 90.535 455.997 104 455.997C117.465 455.997 130.479 451.145 140.658 442.33C150.836 433.515 157.497 421.327 159.42 408H352.58C354.503 421.327 361.164 433.515 371.342 442.33C381.521 451.145 394.535 455.997 408 455.997C421.465 455.997 434.479 451.145 444.658 442.33C454.836 433.515 461.497 421.327 463.42 408H496C498.122 408 500.157 407.157 501.657 405.657C503.157 404.157 504 402.122 504 400V272C504 270.465 503.559 268.962 502.73 267.67ZM104 440C96.0887 440 88.3552 437.654 81.7772 433.259C75.1992 428.864 70.0723 422.616 67.0448 415.307C64.0173 407.998 63.2252 399.956 64.7686 392.196C66.312 384.437 70.1216 377.31 75.7157 371.716C81.3098 366.122 88.4371 362.312 96.1964 360.769C103.956 359.225 111.998 360.017 119.307 363.045C126.616 366.072 132.864 371.199 137.259 377.777C141.654 384.355 144 392.089 144 400C143.989 410.605 139.772 420.773 132.273 428.273C124.773 435.772 114.605 439.989 104 440ZM312 392H159.42C157.497 378.673 150.836 366.485 140.658 357.67C130.479 348.855 117.465 344.003 104 344.003C90.535 344.003 77.5209 348.855 67.3425 357.67C57.1641 366.485 50.5031 378.673 48.58 392H24V312H312V392ZM312 296H24V108C24.0026 104.818 25.2678 101.768 27.5176 99.5176C29.7675 97.2678 32.8182 96.0026 36 96H300C303.182 96.0026 306.232 97.2678 308.482 99.5176C310.732 101.768 311.997 104.818 312 108V296ZM435.06 192L481.35 264H368V192H435.06ZM408 440C400.089 440 392.355 437.654 385.777 433.259C379.199 428.864 374.072 422.616 371.045 415.307C368.017 407.998 367.225 399.956 368.769 392.196C370.312 384.437 374.122 377.31 379.716 371.716C385.31 366.122 392.437 362.312 400.196 360.769C407.956 359.225 415.998 360.017 423.307 363.045C430.616 366.072 436.864 371.199 441.259 377.777C445.654 384.355 448 392.089 448 400C447.989 410.605 443.772 420.773 436.273 428.273C428.773 435.772 418.605 439.989 408 440ZM488 328H472C469.878 328 467.843 327.157 466.343 325.657C464.843 324.157 464 322.122 464 320C464 317.878 464.843 315.843 466.343 314.343C467.843 312.843 469.878 312 472 312H488V328ZM488 296H472C465.635 296 459.53 298.529 455.029 303.029C450.529 307.53 448 313.635 448 320C448 326.365 450.529 332.47 455.029 336.971C459.53 341.471 465.635 344 472 344H488V392H463.42C461.497 378.673 454.836 366.485 444.658 357.67C434.479 348.855 421.465 344.003 408 344.003C394.535 344.003 381.521 348.855 371.342 357.67C361.164 366.485 354.503 378.673 352.58 392H328V168H419.63L424.78 176H360C357.878 176 355.843 176.843 354.343 178.343C352.843 179.843 352 181.878 352 184V272C352 274.122 352.843 276.157 354.343 277.657C355.843 279.157 357.878 280 360 280H488V296Z" fill="#EC7623"/>
<path d="M384 296H360C357.878 296 355.843 296.843 354.343 298.343C352.843 299.843 352 301.878 352 304C352 306.122 352.843 308.157 354.343 309.657C355.843 311.157 357.878 312 360 312H384C386.122 312 388.157 311.157 389.657 309.657C391.157 308.157 392 306.122 392 304C392 301.878 391.157 299.843 389.657 298.343C388.157 296.843 386.122 296 384 296Z" fill="#EC7623"/>
<path d="M216 344H280C282.122 344 284.157 343.157 285.657 341.657C287.157 340.157 288 338.122 288 336C288 333.878 287.157 331.843 285.657 330.343C284.157 328.843 282.122 328 280 328H216C213.878 328 211.843 328.843 210.343 330.343C208.843 331.843 208 333.878 208 336C208 338.122 208.843 340.157 210.343 341.657C211.843 343.157 213.878 344 216 344Z" fill="#EC7623"/>
<path d="M280 352H256C253.878 352 251.843 352.843 250.343 354.343C248.843 355.843 248 357.878 248 360C248 362.122 248.843 364.157 250.343 365.657C251.843 367.157 253.878 368 256 368H280C282.122 368 284.157 367.157 285.657 365.657C287.157 364.157 288 362.122 288 360C288 357.878 287.157 355.843 285.657 354.343C284.157 352.843 282.122 352 280 352Z" fill="#EC7623"/>
<path d="M65.0977 236H99.2773C117.246 236 126.816 226.625 126.816 213.891C126.816 202.055 118.34 194.906 109.238 194.477V193.695C117.559 191.82 123.691 185.922 123.691 176.508C123.691 164.516 114.785 156 97.1289 156H65.0977V236ZM82.0117 222.172V200.922H96.1914C104.316 200.922 109.355 205.609 109.355 212.211C109.355 218.227 105.254 222.172 95.8008 222.172H82.0117ZM82.0117 189.477V169.672H94.8633C102.363 169.672 106.621 173.539 106.621 179.32C106.621 185.648 101.465 189.477 94.5508 189.477H82.0117ZM137.822 236H191.885V222.055H154.736V202.953H188.955V189.008H154.736V169.945H191.729V156H137.822V236ZM221.035 156H201.855L226.426 196L201.387 236H220.762L237.168 208.695H237.793L254.199 236H273.652L248.691 196L273.105 156H254.004L237.793 183.266H237.168L221.035 156Z" fill="#EC7623"/>
</svg>
