<svg width="86" height="86" viewBox="0 0 86 86" fill="none" xmlns="http://www.w3.org/2000/svg">
<rect width="86" height="86" rx="43" fill="#EC7623"/>
<g clip-path="url(#clip0)">
<path d="M25.4407 54.3899H60.5932V71.9662H25.4407V54.3899Z" fill="#D6D9DB"/>
<path d="M37.8474 71.9662H60.5932V54.3899H55.4237L37.8474 71.9662Z" fill="#CED2D4"/>
<path d="M41.983 58.5254H44.0508V60.5932H41.983V58.5254Z" fill="white"/>
<path d="M37.8475 58.5254H39.9153V60.5932H37.8475V58.5254Z" fill="white"/>
<path d="M33.7119 58.5254H35.7797V60.5932H33.7119V58.5254Z" fill="white"/>
<path d="M29.5763 58.5254H31.6441V60.5932H29.5763V58.5254Z" fill="white"/>
<path d="M54.3899 58.5254H56.4577V60.5932H54.3899V58.5254Z" fill="white"/>
<path d="M50.2543 58.5254H52.3221V60.5932H50.2543V58.5254Z" fill="white"/>
<path d="M46.1187 58.5254H48.1865V60.5932H46.1187V58.5254Z" fill="white"/>
<path d="M41.983 62.6609H44.0508V64.7287H41.983V62.6609Z" fill="white"/>
<path d="M37.8475 62.6609H39.9153V64.7287H37.8475V62.6609Z" fill="white"/>
<path d="M33.7119 62.6609H35.7797V64.7287H33.7119V62.6609Z" fill="white"/>
<path d="M29.5763 62.6609H31.6441V64.7287H29.5763V62.6609Z" fill="white"/>
<path d="M54.3899 62.6609H56.4577V64.7287H54.3899V62.6609Z" fill="white"/>
<path d="M50.2543 62.6609H52.3221V64.7287H50.2543V62.6609Z" fill="white"/>
<path d="M46.1187 62.6609H48.1865V64.7287H46.1187V62.6609Z" fill="white"/>
<path d="M29.5763 66.7966H31.6441V68.8644H29.5763V66.7966Z" fill="white"/>
<path d="M54.3899 66.7966H56.4577V68.8644H54.3899V66.7966Z" fill="white"/>
<path d="M37.8475 66.7966H48.1865V68.8644H37.8475V66.7966Z" fill="white"/>
<path d="M33.1859 65.6643L29.5763 67.8305V61.6271C29.5763 60.4852 28.6504 59.5593 27.5085 59.5593C26.3666 59.5593 25.4407 60.4852 25.4407 61.6271C25.4407 60.4852 24.5149 59.5593 23.3729 59.5593C22.231 59.5593 21.3051 60.4852 21.3051 61.6271C21.3051 60.4852 20.3793 59.5593 19.2373 59.5593C18.0954 59.5593 17.1695 60.4852 17.1695 61.6271C17.1695 60.4852 16.2437 59.5593 15.1017 59.5593C13.9598 59.5593 13.0339 60.4852 13.0339 61.6271V73H29.5763L30.6102 71.9661L35.2254 68.8892C36.0841 68.3131 36.3274 67.1581 35.7752 66.2842C35.2224 65.4103 34.0739 65.1357 33.1859 65.6643V65.6643Z" fill="#FEC9A3"/>
<path d="M70.9322 59.5593C69.7903 59.5593 68.8644 60.4852 68.8644 61.6271C68.8644 60.4852 67.9386 59.5593 66.7966 59.5593C65.6547 59.5593 64.7289 60.4852 64.7289 61.6271C64.7289 60.4852 63.803 59.5593 62.6611 59.5593C61.5191 59.5593 60.5933 60.4852 60.5933 61.6271C60.5933 60.4852 59.6674 59.5593 58.5255 59.5593C57.3835 59.5593 56.4577 60.4852 56.4577 61.6271V67.8305L52.8481 65.6643C51.9601 65.1357 50.8116 65.4103 50.2588 66.2842C49.7065 67.1581 49.9499 68.3131 50.8086 68.8892L55.4238 71.9661L56.4577 73H73V61.6271C73 60.4852 72.0742 59.5593 70.9322 59.5593Z" fill="#FEC9A3"/>
<path d="M22.339 12H63.6949C65.4078 12 66.7966 13.3888 66.7966 15.1017V41.9831C66.7966 43.696 65.4078 45.0847 63.6949 45.0847H22.339C20.6261 45.0847 19.2373 43.696 19.2373 41.9831V15.1017C19.2373 13.3888 20.6261 12 22.339 12Z" fill="#39245A"/>
<path d="M63.6949 12H57.4915L24.4067 45.0847H63.6949C65.4078 45.0847 66.7966 43.696 66.7966 41.9831V15.1017C66.7966 13.3888 65.4078 12 63.6949 12Z" fill="#39245A"/>
<path d="M23.3729 16.1355H62.6611V32.6779H23.3729V16.1355Z" fill="white"/>
<path d="M26.4746 19.2373H36.8136V29.5763H26.4746V19.2373Z" fill="#EC7623"/>
<path d="M39.9153 19.2373H44.0509V21.3051H39.9153V19.2373Z" fill="#EC7623"/>
<path d="M47.1526 19.2373H58.5255V21.3051H47.1526V19.2373Z" fill="#EC7623"/>
<path d="M39.9153 23.3728H58.5255V25.4406H39.9153V23.3728Z" fill="#EC7623"/>
<path d="M39.9153 27.5085H52.3221V29.5763H39.9153V27.5085Z" fill="#EC7623"/>
<path d="M54.3898 27.5085H58.5254V29.5763H54.3898V27.5085Z" fill="#EC7623"/>
<path d="M23.3729 36.8135H62.6611V41.983H23.3729V36.8135Z" fill="white"/>
<path d="M48.8761 50.2542L47.1526 45.0847H38.8814L37.1579 50.2542H33.7119V52.322H52.3221V50.2542H48.8761Z" fill="#D6D9DB"/>
<path d="M25.4407 56.4576H15.6186C13.62 56.4576 12 54.8376 12 52.839C12 50.8403 13.62 49.2203 15.6186 49.2203H25.9576C26.8143 49.2203 27.5085 48.5262 27.5085 47.6695V45.0847H29.5763V47.6695C29.5763 49.6681 27.9563 51.2881 25.9576 51.2881H15.6186C14.7619 51.2881 14.0678 51.9823 14.0678 52.839C14.0678 53.6957 14.7619 54.3898 15.6186 54.3898H25.4407V56.4576Z" fill="#D6D9DB"/>
<path d="M26.4746 41.9831V39.9153H36.8136V41.9831" fill="#EC7623"/>
<path d="M39.9153 39.9153H51.2882V41.9831H39.9153V39.9153Z" fill="#EC7623"/>
<path d="M53.356 39.9153H58.5254V41.9831H53.356V39.9153Z" fill="#EC7623"/>
<path d="M17.1695 66.7966C16.5986 66.7966 16.1356 66.3337 16.1356 65.7627V60.5932C16.1356 60.0223 16.5986 59.5593 17.1695 59.5593C17.7405 59.5593 18.2034 60.0223 18.2034 60.5932V65.7627C18.2034 66.3337 17.7405 66.7966 17.1695 66.7966Z" fill="#F0A789"/>
<path d="M21.3051 66.7966C20.7342 66.7966 20.2712 66.3337 20.2712 65.7627V60.5932C20.2712 60.0223 20.7342 59.5593 21.3051 59.5593C21.8761 59.5593 22.339 60.0223 22.339 60.5932V65.7627C22.339 66.3337 21.8761 66.7966 21.3051 66.7966Z" fill="#F0A789"/>
<path d="M25.4406 66.7966C24.8697 66.7966 24.4067 66.3337 24.4067 65.7627V60.5932C24.4067 60.0223 24.8697 59.5593 25.4406 59.5593C26.0116 59.5593 26.4745 60.0223 26.4745 60.5932V65.7627C26.4745 66.3337 26.0116 66.7966 25.4406 66.7966Z" fill="#F0A789"/>
<path d="M60.5932 66.7966C60.0223 66.7966 59.5593 66.3337 59.5593 65.7627V60.5932C59.5593 60.0223 60.0223 59.5593 60.5932 59.5593C61.1642 59.5593 61.6271 60.0223 61.6271 60.5932V65.7627C61.6271 66.3337 61.1642 66.7966 60.5932 66.7966Z" fill="#F0A789"/>
<path d="M64.7288 66.7966C64.1579 66.7966 63.6949 66.3337 63.6949 65.7627V60.5932C63.6949 60.0223 64.1579 59.5593 64.7288 59.5593C65.2998 59.5593 65.7627 60.0223 65.7627 60.5932V65.7627C65.7627 66.3337 65.2998 66.7966 64.7288 66.7966Z" fill="#F0A789"/>
<path d="M68.8645 66.7966C68.2935 66.7966 67.8306 66.3337 67.8306 65.7627V60.5932C67.8306 60.0223 68.2935 59.5593 68.8645 59.5593C69.4354 59.5593 69.8984 60.0223 69.8984 60.5932V65.7627C69.8984 66.3337 69.4354 66.7966 68.8645 66.7966Z" fill="#F0A789"/>
<path d="M48.1864 48.1864L47.1525 45.0847H38.8813L37.8474 48.1864H48.1864Z" fill="#C7CACC"/>
<path d="M27.5084 45.0847H29.5762V47.1525H27.5084V45.0847Z" fill="#C7CACC"/>
</g>
<defs>
<clipPath id="clip0">
<rect width="61" height="61" fill="white" transform="translate(12 12)"/>
</clipPath>
</defs>
</svg>
