<svg width="86" height="86" viewBox="0 0 86 86" fill="none" xmlns="http://www.w3.org/2000/svg">
<g clip-path="url(#clip0)">
<path d="M18.9491 59.7627H68.5084V84.5424H18.9491V59.7627Z" fill="#D6D9DB"/>
<path d="M36.4407 84.5424H68.5085V59.7627H61.2203L36.4407 84.5424Z" fill="#CED2D4"/>
<path d="M42.2711 65.5933H45.1864V68.5085H42.2711V65.5933Z" fill="white"/>
<path d="M36.4407 65.5933H39.3559V68.5085H36.4407V65.5933Z" fill="white"/>
<path d="M30.6102 65.5933H33.5255V68.5085H30.6102V65.5933Z" fill="white"/>
<path d="M24.7797 65.5933H27.6949V68.5085H24.7797V65.5933Z" fill="white"/>
<path d="M59.7627 65.5933H62.678V68.5085H59.7627V65.5933Z" fill="white"/>
<path d="M53.9323 65.5933H56.8475V68.5085H53.9323V65.5933Z" fill="white"/>
<path d="M48.1017 65.5933H51.0169V68.5085H48.1017V65.5933Z" fill="white"/>
<path d="M42.2711 71.4238H45.1864V74.3391H42.2711V71.4238Z" fill="white"/>
<path d="M36.4407 71.4238H39.3559V74.3391H36.4407V71.4238Z" fill="white"/>
<path d="M30.6102 71.4238H33.5255V74.3391H30.6102V71.4238Z" fill="white"/>
<path d="M24.7797 71.4238H27.6949V74.3391H24.7797V71.4238Z" fill="white"/>
<path d="M59.7627 71.4238H62.678V74.3391H59.7627V71.4238Z" fill="white"/>
<path d="M53.9323 71.4238H56.8475V74.3391H53.9323V71.4238Z" fill="white"/>
<path d="M48.1017 71.4238H51.0169V74.3391H48.1017V71.4238Z" fill="white"/>
<path d="M24.7797 77.2544H27.6949V80.1697H24.7797V77.2544Z" fill="white"/>
<path d="M59.7627 77.2544H62.678V80.1697H59.7627V77.2544Z" fill="white"/>
<path d="M36.4407 77.2544H51.017V80.1697H36.4407V77.2544Z" fill="white"/>
<path d="M29.8686 75.6578L24.7797 78.7118V69.966C24.7797 68.3561 23.4744 67.0508 21.8644 67.0508C20.2545 67.0508 18.9492 68.3561 18.9492 69.966C18.9492 68.3561 17.6438 67.0508 16.0339 67.0508C14.424 67.0508 13.1187 68.3561 13.1187 69.966C13.1187 68.3561 11.8133 67.0508 10.2034 67.0508C8.59347 67.0508 7.28815 68.3561 7.28815 69.966C7.28815 68.3561 5.98283 67.0508 4.3729 67.0508C2.76296 67.0508 1.45764 68.3561 1.45764 69.966V85.9999H24.7797L26.2373 84.5423L32.744 80.2043C33.9546 79.3922 34.2977 77.7638 33.519 76.5318C32.7397 75.2998 31.1205 74.9126 29.8686 75.6578V75.6578Z" fill="#FEC9A3"/>
<path d="M83.0848 67.0508C81.4749 67.0508 80.1696 68.3561 80.1696 69.966C80.1696 68.3561 78.8642 67.0508 77.2543 67.0508C75.6444 67.0508 74.339 68.3561 74.339 69.966C74.339 68.3561 73.0337 67.0508 71.4238 67.0508C69.8138 67.0508 68.5085 68.3561 68.5085 69.966C68.5085 68.3561 67.2032 67.0508 65.5933 67.0508C63.9833 67.0508 62.678 68.3561 62.678 69.966V78.7118L57.5891 75.6578C56.3372 74.9126 54.718 75.2998 53.9387 76.5318C53.16 77.7638 53.5031 79.3922 54.7137 80.2043L61.2204 84.5423L62.678 85.9999H86.0001V69.966C86.0001 68.3561 84.6947 67.0508 83.0848 67.0508Z" fill="#FEC9A3"/>
<path d="M14.5763 0H72.8813C75.2962 0 77.2542 1.95797 77.2542 4.37288V42.2712C77.2542 44.6861 75.2962 46.6441 72.8813 46.6441H14.5763C12.1613 46.6441 10.2034 44.6861 10.2034 42.2712V4.37288C10.2034 1.95797 12.1613 0 14.5763 0Z" fill="#EC7623"/>
<path d="M72.8813 0H64.1355L17.4915 46.6441H72.8813C75.2962 46.6441 77.2542 44.6861 77.2542 42.2712V4.37288C77.2542 1.95797 75.2962 0 72.8813 0Z" fill="#EC7623"/>
<path d="M16.0339 5.83057H71.4238V29.1526H16.0339V5.83057Z" fill="white"/>
<path d="M20.4067 10.2034H34.983V24.7796H20.4067V10.2034Z" fill="#EC7623"/>
<path d="M39.356 10.2034H45.1865V13.1186H39.356V10.2034Z" fill="#EC7623"/>
<path d="M49.5593 10.2034H65.5932V13.1186H49.5593V10.2034Z" fill="#EC7623"/>
<path d="M39.356 16.0339H65.5932V18.9492H39.356V16.0339Z" fill="#EC7623"/>
<path d="M39.356 21.8645H56.8475V24.7798H39.356V21.8645Z" fill="#EC7623"/>
<path d="M59.7627 21.8645H65.5932V24.7798H59.7627V21.8645Z" fill="#EC7623"/>
<path d="M16.0339 34.9829H71.4238V42.271H16.0339V34.9829Z" fill="white"/>
<path d="M51.9892 53.9322L49.5594 46.644H37.8984L35.4685 53.9322H30.6102V56.8474H56.8475V53.9322H51.9892Z" fill="#D6D9DB"/>
<path d="M18.9492 62.6779H5.1017C2.28395 62.6779 0 60.394 0 57.5762C0 54.7585 2.28395 52.4746 5.1017 52.4746H19.678C20.8858 52.4746 21.8644 51.4959 21.8644 50.2881V46.644H24.7797V50.2881C24.7797 53.1059 22.4957 55.3898 19.678 55.3898H5.1017C3.89389 55.3898 2.91525 56.3684 2.91525 57.5762C2.91525 58.7841 3.89389 59.7627 5.1017 59.7627H18.9492V62.6779Z" fill="#D6D9DB"/>
<path d="M20.4067 42.2712V39.356H34.983V42.2712" fill="#EC7623"/>
<path d="M39.356 39.356H55.3898V42.2712H39.356V39.356Z" fill="#EC7623"/>
<path d="M58.3051 39.356H65.5932V42.2712H58.3051V39.356Z" fill="#EC7623"/>
<path d="M7.28819 77.2542C6.48322 77.2542 5.83057 76.6015 5.83057 75.7966V68.5084C5.83057 67.7034 6.48322 67.0508 7.28819 67.0508C8.09316 67.0508 8.74582 67.7034 8.74582 68.5084V75.7966C8.74582 76.6015 8.09316 77.2542 7.28819 77.2542Z" fill="#F0A789"/>
<path d="M13.1186 77.2542C12.3137 77.2542 11.661 76.6015 11.661 75.7966V68.5084C11.661 67.7034 12.3137 67.0508 13.1186 67.0508C13.9236 67.0508 14.5763 67.7034 14.5763 68.5084V75.7966C14.5763 76.6015 13.9236 77.2542 13.1186 77.2542Z" fill="#F0A789"/>
<path d="M18.9491 77.2542C18.1441 77.2542 17.4915 76.6015 17.4915 75.7966V68.5084C17.4915 67.7034 18.1441 67.0508 18.9491 67.0508C19.754 67.0508 20.4067 67.7034 20.4067 68.5084V75.7966C20.4067 76.6015 19.754 77.2542 18.9491 77.2542Z" fill="#F0A789"/>
<path d="M68.5084 77.2542C67.7034 77.2542 67.0508 76.6015 67.0508 75.7966V68.5084C67.0508 67.7034 67.7034 67.0508 68.5084 67.0508C69.3134 67.0508 69.966 67.7034 69.966 68.5084V75.7966C69.966 76.6015 69.3134 77.2542 68.5084 77.2542Z" fill="#F0A789"/>
<path d="M74.339 77.2542C73.534 77.2542 72.8813 76.6015 72.8813 75.7966V68.5084C72.8813 67.7034 73.534 67.0508 74.339 67.0508C75.1439 67.0508 75.7966 67.7034 75.7966 68.5084V75.7966C75.7966 76.6015 75.1439 77.2542 74.339 77.2542Z" fill="#F0A789"/>
<path d="M80.1695 77.2542C79.3646 77.2542 78.7119 76.6015 78.7119 75.7966V68.5084C78.7119 67.7034 79.3646 67.0508 80.1695 67.0508C80.9745 67.0508 81.6272 67.7034 81.6272 68.5084V75.7966C81.6272 76.6015 80.9745 77.2542 80.1695 77.2542Z" fill="#F0A789"/>
<path d="M51.0169 51.0169L49.5593 46.644H37.8983L36.4407 51.0169H51.0169Z" fill="#C7CACC"/>
<path d="M21.8644 46.644H24.7796V49.5593H21.8644V46.644Z" fill="#C7CACC"/>
</g>
<defs>
<clipPath id="clip0">
<rect width="86" height="86" fill="white"/>
</clipPath>
</defs>
</svg>
