<svg width="305" height="100" viewBox="0 0 305 100" fill="none" xmlns="http://www.w3.org/2000/svg">
<rect width="305" height="100" rx="4" fill="white"/>
<path d="M99.1548 34.6378H102.102C102.06 32.0455 99.929 30.2557 96.6903 30.2557C93.5014 30.2557 91.1648 32.017 91.179 34.6591C91.1719 36.804 92.6847 38.0327 95.142 38.6222L96.7259 39.0199C98.3097 39.4034 99.1903 39.858 99.1974 40.8381C99.1903 41.9034 98.1818 42.6278 96.6193 42.6278C95.0213 42.6278 93.8707 41.8892 93.7713 40.4332H90.7955C90.8736 43.5795 93.125 45.206 96.6548 45.206C100.206 45.206 102.294 43.5085 102.301 40.8452C102.294 38.4233 100.469 37.1378 97.9403 36.5696L96.6335 36.2571C95.3693 35.9659 94.3111 35.4972 94.3324 34.4531C94.3324 33.5156 95.1634 32.8267 96.669 32.8267C98.1392 32.8267 99.0412 33.4943 99.1548 34.6378ZM104.313 45H107.338V34.0909H104.313V45ZM105.833 32.6847C106.735 32.6847 107.473 31.9957 107.473 31.1506C107.473 30.3125 106.735 29.6236 105.833 29.6236C104.938 29.6236 104.199 30.3125 104.199 31.1506C104.199 31.9957 104.938 32.6847 105.833 32.6847ZM109.762 45H112.788V41.5341L113.604 40.6037L116.58 45H120.124L115.87 38.8139L119.918 34.0909H116.445L112.951 38.2315H112.788V30.4545H109.762V45ZM125.925 45.2131C128.624 45.2131 130.442 43.8991 130.868 41.875L128.07 41.6903C127.765 42.5213 126.983 42.9545 125.975 42.9545C124.462 42.9545 123.503 41.9531 123.503 40.3267V40.3196H130.932V39.4886C130.932 35.7812 128.688 33.9489 125.804 33.9489C122.594 33.9489 120.513 36.2287 120.513 39.5952C120.513 43.054 122.566 45.2131 125.925 45.2131ZM123.503 38.4446C123.567 37.2017 124.512 36.2074 125.854 36.2074C127.168 36.2074 128.077 37.1449 128.084 38.4446H123.503ZM132.907 45H135.932V38.8281C135.932 37.4858 136.912 36.5625 138.248 36.5625C138.667 36.5625 139.242 36.6335 139.526 36.7259V34.0412C139.256 33.9773 138.88 33.9347 138.574 33.9347C137.353 33.9347 136.351 34.6449 135.953 35.9943H135.84V34.0909H132.907V45ZM145.554 45.2131C148.253 45.2131 150.071 43.8991 150.497 41.875L147.699 41.6903C147.393 42.5213 146.612 42.9545 145.604 42.9545C144.091 42.9545 143.132 41.9531 143.132 40.3267V40.3196H150.561V39.4886C150.561 35.7812 148.317 33.9489 145.433 33.9489C142.223 33.9489 140.142 36.2287 140.142 39.5952C140.142 43.054 142.195 45.2131 145.554 45.2131ZM143.132 38.4446C143.196 37.2017 144.141 36.2074 145.483 36.2074C146.797 36.2074 147.706 37.1449 147.713 38.4446H143.132ZM161.612 37.2017C161.342 35.1918 159.723 33.9489 156.967 33.9489C154.176 33.9489 152.337 35.2415 152.344 37.3438C152.337 38.9773 153.366 40.0355 155.497 40.4616L157.386 40.8381C158.338 41.0298 158.771 41.3778 158.786 41.9247C158.771 42.571 158.068 43.0327 157.01 43.0327C155.93 43.0327 155.213 42.571 155.028 41.6832L152.053 41.8395C152.337 43.9276 154.112 45.2131 157.003 45.2131C159.83 45.2131 161.854 43.7713 161.861 41.6193C161.854 40.0426 160.824 39.098 158.707 38.6648L156.733 38.267C155.717 38.0469 155.341 37.6989 155.348 37.1733C155.341 36.5199 156.08 36.0938 157.017 36.0938C158.068 36.0938 158.693 36.669 158.842 37.3722L161.612 37.2017ZM168.452 45H171.435V43.2528H171.57C171.989 44.1619 172.905 45.1776 174.666 45.1776C177.152 45.1776 179.091 43.2102 179.091 39.5597C179.091 35.8097 177.067 33.9489 174.673 33.9489C172.848 33.9489 171.974 35.0355 171.57 35.9233H171.477V30.4545H168.452V45ZM171.413 39.5455C171.413 37.5994 172.237 36.3565 173.707 36.3565C175.206 36.3565 176.001 37.6562 176.001 39.5455C176.001 41.4489 175.192 42.7699 173.707 42.7699C172.251 42.7699 171.413 41.4915 171.413 39.5455ZM186.081 45.2131C188.78 45.2131 190.598 43.8991 191.025 41.875L188.226 41.6903C187.921 42.5213 187.14 42.9545 186.131 42.9545C184.618 42.9545 183.659 41.9531 183.659 40.3267V40.3196H191.088V39.4886C191.088 35.7812 188.844 33.9489 185.961 33.9489C182.75 33.9489 180.669 36.2287 180.669 39.5952C180.669 43.054 182.722 45.2131 186.081 45.2131ZM183.659 38.4446C183.723 37.2017 184.668 36.2074 186.01 36.2074C187.324 36.2074 188.233 37.1449 188.24 38.4446H183.659ZM202.921 34.0909H199.718L197.459 41.8963H197.346L195.08 34.0909H191.884L195.698 45H199.107L202.921 34.0909ZM207.267 45.206C208.88 45.206 209.924 44.5028 210.456 43.4872H210.542V45H213.411V37.642C213.411 35.0426 211.209 33.9489 208.78 33.9489C206.167 33.9489 204.448 35.1989 204.029 37.1875L206.827 37.4148C207.033 36.6903 207.679 36.1577 208.766 36.1577C209.796 36.1577 210.385 36.6761 210.385 37.571V37.6136C210.385 38.3168 209.64 38.4091 207.743 38.5938C205.584 38.7926 203.645 39.517 203.645 41.9531C203.645 44.1122 205.186 45.206 207.267 45.206ZM208.134 43.1179C207.203 43.1179 206.536 42.6847 206.536 41.8537C206.536 41.0014 207.239 40.5824 208.304 40.4332C208.965 40.3409 210.044 40.1847 210.407 39.9432V41.1009C210.407 42.2443 209.462 43.1179 208.134 43.1179ZM207.807 32.6847H209.945L212.111 29.4531H209.313L207.807 32.6847ZM218.784 30.4545H215.758V45H218.784V30.4545ZM227.01 34.0909H224.957V31.4773H221.932V34.0909H220.44V36.3636H221.932V42.0455C221.918 44.1832 223.374 45.2415 225.568 45.1491C226.349 45.1207 226.903 44.9645 227.209 44.8651L226.733 42.6136C226.584 42.642 226.264 42.7131 225.98 42.7131C225.376 42.7131 224.957 42.4858 224.957 41.6477V36.3636H227.01V34.0909ZM232.092 45.206C233.704 45.206 234.748 44.5028 235.281 43.4872H235.366V45H238.235V37.642C238.235 35.0426 236.033 33.9489 233.604 33.9489C230.991 33.9489 229.272 35.1989 228.853 37.1875L231.651 37.4148C231.857 36.6903 232.504 36.1577 233.59 36.1577C234.62 36.1577 235.21 36.6761 235.21 37.571V37.6136C235.21 38.3168 234.464 38.4091 232.567 38.5938C230.408 38.7926 228.469 39.517 228.469 41.9531C228.469 44.1122 230.011 45.206 232.092 45.206ZM232.958 43.1179C232.028 43.1179 231.36 42.6847 231.36 41.8537C231.36 41.0014 232.063 40.5824 233.129 40.4332C233.789 40.3409 234.869 40.1847 235.231 39.9432V41.1009C235.231 42.2443 234.286 43.1179 232.958 43.1179ZM232.631 32.6847H234.769L236.935 29.4531H234.137L232.631 32.6847ZM249.659 37.2017C249.389 35.1918 247.77 33.9489 245.014 33.9489C242.223 33.9489 240.384 35.2415 240.391 37.3438C240.384 38.9773 241.413 40.0355 243.544 40.4616L245.433 40.8381C246.385 41.0298 246.818 41.3778 246.832 41.9247C246.818 42.571 246.115 43.0327 245.057 43.0327C243.977 43.0327 243.26 42.571 243.075 41.6832L240.099 41.8395C240.384 43.9276 242.159 45.2131 245.05 45.2131C247.876 45.2131 249.901 43.7713 249.908 41.6193C249.901 40.0426 248.871 39.098 246.754 38.6648L244.78 38.267C243.764 38.0469 243.388 37.6989 243.395 37.1733C243.388 36.5199 244.126 36.0938 245.064 36.0938C246.115 36.0938 246.74 36.669 246.889 37.3722L249.659 37.2017ZM255.428 30.4545H252.267L252.551 40.6392H255.151L255.428 30.4545ZM253.851 45.1847C254.76 45.1847 255.549 44.4247 255.556 43.4801C255.549 42.5497 254.76 41.7898 253.851 41.7898C252.914 41.7898 252.14 42.5497 252.147 43.4801C252.14 44.4247 252.914 45.1847 253.851 45.1847Z" fill="#EC7623"/>
<path d="M92.6399 69L93.3956 66.6783H97.0696L97.8253 69H100.132L96.6222 58.8182H93.848L90.3331 69H92.6399ZM93.9425 64.9979L95.1953 61.1449H95.2749L96.5277 64.9979H93.9425ZM101.318 61.3636V69.343C101.318 69.9197 101.074 70.2081 100.393 70.2081C100.304 70.2081 100.224 70.2081 100.115 70.1982V71.8537C100.269 71.8587 100.393 71.8636 100.542 71.8636C102.342 71.8636 103.436 71.1477 103.436 69.3778V61.3636H101.318ZM102.372 60.3793C103.003 60.3793 103.52 59.897 103.52 59.3054C103.52 58.7188 103.003 58.2365 102.372 58.2365C101.745 58.2365 101.228 58.7188 101.228 59.3054C101.228 59.897 101.745 60.3793 102.372 60.3793ZM107.31 69.1442C108.438 69.1442 109.169 68.652 109.542 67.9411H109.602V69H111.61V63.8494C111.61 62.0298 110.069 61.2642 108.369 61.2642C106.539 61.2642 105.336 62.1392 105.043 63.5312L107.002 63.6903C107.146 63.1832 107.598 62.8104 108.359 62.8104C109.08 62.8104 109.492 63.1733 109.492 63.7997V63.8295C109.492 64.3217 108.97 64.3864 107.643 64.5156C106.132 64.6548 104.774 65.1619 104.774 66.8672C104.774 68.3786 105.853 69.1442 107.31 69.1442ZM107.916 67.6825C107.265 67.6825 106.798 67.3793 106.798 66.7976C106.798 66.201 107.29 65.9077 108.036 65.8033C108.498 65.7386 109.254 65.6293 109.507 65.4602V66.2706C109.507 67.071 108.846 67.6825 107.916 67.6825ZM107.688 60.3793H109.184L110.7 58.1172H108.742L107.688 60.3793ZM115.371 64.5852C115.376 63.6009 115.963 63.0241 116.818 63.0241C117.668 63.0241 118.18 63.581 118.175 64.5156V69H120.293V64.1378C120.293 62.358 119.249 61.2642 117.658 61.2642C116.525 61.2642 115.704 61.821 115.361 62.7109H115.272V61.3636H113.253V69H115.371V64.5852ZM124.776 69.1243C126.009 69.1243 126.651 68.4134 126.944 67.777H127.033V69H129.121V58.8182H127.009V62.6463H126.944C126.661 62.0249 126.049 61.2642 124.771 61.2642C123.096 61.2642 121.679 62.5668 121.679 65.1918C121.679 67.7472 123.036 69.1243 124.776 69.1243ZM125.447 67.4389C124.408 67.4389 123.842 66.5142 123.842 65.1818C123.842 63.8594 124.398 62.9496 125.447 62.9496C126.477 62.9496 127.053 63.8196 127.053 65.1818C127.053 66.544 126.467 67.4389 125.447 67.4389ZM134.343 69.1491C136.232 69.1491 137.505 68.2294 137.803 66.8125L135.844 66.6832C135.631 67.2649 135.084 67.5682 134.378 67.5682C133.319 67.5682 132.648 66.8672 132.648 65.7287V65.7237H137.848V65.142C137.848 62.5469 136.277 61.2642 134.258 61.2642C132.011 61.2642 130.555 62.8601 130.555 65.2166C130.555 67.6378 131.991 69.1491 134.343 69.1491ZM132.648 64.4112C132.692 63.5412 133.354 62.8452 134.293 62.8452C135.213 62.8452 135.849 63.5014 135.854 64.4112H132.648ZM133.448 60.3793H134.944L136.461 58.1172H134.502L133.448 60.3793ZM139.23 69H141.348V66.5739L141.92 65.9226L144.003 69H146.483L143.506 64.6697L146.339 61.3636H143.908L141.462 64.2621H141.348V58.8182H139.23V69ZM149.556 69.1442C150.684 69.1442 151.415 68.652 151.788 67.9411H151.848V69H153.856V63.8494C153.856 62.0298 152.315 61.2642 150.615 61.2642C148.785 61.2642 147.582 62.1392 147.289 63.5312L149.248 63.6903C149.392 63.1832 149.844 62.8104 150.605 62.8104C151.326 62.8104 151.738 63.1733 151.738 63.7997V63.8295C151.738 64.3217 151.216 64.3864 149.889 64.5156C148.378 64.6548 147.02 65.1619 147.02 66.8672C147.02 68.3786 148.099 69.1442 149.556 69.1442ZM150.162 67.6825C149.511 67.6825 149.044 67.3793 149.044 66.7976C149.044 66.201 149.536 65.9077 150.282 65.8033C150.744 65.7386 151.5 65.6293 151.753 65.4602V66.2706C151.753 67.071 151.092 67.6825 150.162 67.6825ZM163.637 65.7486C163.642 66.7727 162.941 67.3097 162.18 67.3097C161.38 67.3097 160.863 66.7479 160.858 65.848V61.3636H158.74V66.2259C158.745 68.0107 159.789 69.0994 161.325 69.0994C162.473 69.0994 163.299 68.5078 163.642 67.6129H163.721V69H165.755V61.3636H163.637V65.7486ZM161.494 60.3793H162.99L164.507 58.1172H162.548L161.494 60.3793ZM171.51 61.3636H170.074V59.5341H167.956V61.3636H166.912V62.9545H167.956V66.9318C167.946 68.4283 168.965 69.169 170.501 69.1044C171.048 69.0845 171.436 68.9751 171.65 68.9055L171.317 67.3295C171.212 67.3494 170.988 67.3991 170.79 67.3991C170.367 67.3991 170.074 67.2401 170.074 66.6534V62.9545H171.51V61.3636ZM176.258 69.1491C178.575 69.1491 180.017 67.5632 180.017 65.2116C180.017 62.8452 178.575 61.2642 176.258 61.2642C173.942 61.2642 172.5 62.8452 172.5 65.2116C172.5 67.5632 173.942 69.1491 176.258 69.1491ZM176.268 67.5085C175.199 67.5085 174.653 66.5291 174.653 65.1967C174.653 63.8643 175.199 62.88 176.268 62.88C177.317 62.88 177.864 63.8643 177.864 65.1967C177.864 66.5291 177.317 67.5085 176.268 67.5085ZM183.512 64.5852C183.517 63.6009 184.104 63.0241 184.959 63.0241C185.809 63.0241 186.321 63.581 186.316 64.5156V69H188.434V64.1378C188.434 62.358 187.39 61.2642 185.799 61.2642C184.665 61.2642 183.845 61.821 183.502 62.7109H183.412V61.3636H181.394V69H183.512V64.5852ZM200.463 61.3636H198.22L196.639 66.8274H196.56L194.974 61.3636H192.737L195.406 69H197.793L200.463 61.3636ZM203.505 69.1442C204.634 69.1442 205.365 68.652 205.737 67.9411H205.797V69H207.806V63.8494C207.806 62.0298 206.264 61.2642 204.564 61.2642C202.735 61.2642 201.531 62.1392 201.238 63.5312L203.197 63.6903C203.341 63.1832 203.794 62.8104 204.554 62.8104C205.275 62.8104 205.688 63.1733 205.688 63.7997V63.8295C205.688 64.3217 205.166 64.3864 203.838 64.5156C202.327 64.6548 200.97 65.1619 200.97 66.8672C200.97 68.3786 202.048 69.1442 203.505 69.1442ZM204.112 67.6825C203.46 67.6825 202.993 67.3793 202.993 66.7976C202.993 66.201 203.485 65.9077 204.231 65.8033C204.693 65.7386 205.449 65.6293 205.703 65.4602V66.2706C205.703 67.071 205.041 67.6825 204.112 67.6825ZM211.567 64.5852C211.572 63.6009 212.158 63.0241 213.013 63.0241C213.863 63.0241 214.376 63.581 214.371 64.5156V69H216.488V64.1378C216.488 62.358 215.444 61.2642 213.854 61.2642C212.72 61.2642 211.9 61.821 211.557 62.7109H211.467V61.3636H209.449V69H211.567V64.5852ZM220.688 58.8182H218.476L218.675 65.9474H220.494L220.688 58.8182ZM219.585 69.1293C220.221 69.1293 220.773 68.5973 220.778 67.9361C220.773 67.2848 220.221 66.7528 219.585 66.7528C218.928 66.7528 218.386 67.2848 218.391 67.9361C218.386 68.5973 218.928 69.1293 219.585 69.1293Z" fill="#211061"/>
<path d="M0 4C0 1.79086 1.79086 0 4 0H5V100H4C1.79086 100 0 98.2091 0 96V4Z" fill="#EC7623"/>
<path d="M57.8409 43.6539C58.4513 44.2642 58.4513 45.2536 57.8409 45.8636L47.3588 56.3461C46.7484 56.9562 45.7593 56.9562 45.149 56.3461L40.1591 51.3559C39.5487 50.7458 39.5487 49.7565 40.1591 49.1464C40.7691 48.5361 41.7585 48.5361 42.3685 49.1464L46.2537 53.0316L55.6312 43.6539C56.2415 43.0438 57.2309 43.0438 57.8409 43.6539V43.6539ZM69 50C69 61.055 60.0535 70 49 70C37.945 70 29 61.0535 29 50C29 38.945 37.9465 30 49 30C60.055 30 69 38.9465 69 50ZM65.875 50C65.875 40.6723 58.3265 33.125 49 33.125C39.6723 33.125 32.125 40.6735 32.125 50C32.125 59.3277 39.6735 66.875 49 66.875C58.3277 66.875 65.875 59.3265 65.875 50Z" fill="#EC7623"/>
</svg>
