<svg width="496" height="472" viewBox="0 0 496 472" fill="none" xmlns="http://www.w3.org/2000/svg">
<path d="M216 176H8V208H216V200H338.71C344.115 190.649 351.353 182.486 359.99 176H216Z" fill="white"/>
<path d="M112 8V144H160C153.081 138.798 144.656 135.99 136 136V72C141.253 72 146.454 70.9654 151.307 68.9552C156.16 66.945 160.57 63.9986 164.284 60.2843C167.999 56.5699 170.945 52.1604 172.955 47.3073C174.965 42.4543 176 37.2529 176 32H384C384 42.6087 388.214 52.7828 395.716 60.2843C403.217 67.7857 413.391 72 424 72V136C415.661 136 407.531 138.605 400.745 143.451C393.959 148.297 388.856 155.142 386.15 163.03C396.45 160.114 407.229 159.292 417.852 160.611C428.475 161.93 438.726 165.364 448 170.71V8H112Z" fill="white"/>
<path d="M280 144C302.091 144 320 126.091 320 104C320 81.9086 302.091 64 280 64C257.909 64 240 81.9086 240 104C240 126.091 257.909 144 280 144Z" fill="white"/>
<path d="M385.25 354.09L361.41 430.46L356.65 445.69L387.19 455.23L420.58 348.32L390.03 338.79L385.25 354.09Z" fill="white"/>
<path d="M427.67 344.61C427.181 343.679 426.514 342.854 425.706 342.181C424.897 341.509 423.964 341.002 422.96 340.69L392.42 331.15C390.395 330.518 388.202 330.716 386.323 331.7C384.444 332.685 383.033 334.375 382.4 336.4L380 344.07L311.32 322.62L279.06 312.48C275.889 311.481 272.544 311.153 269.238 311.517C265.933 311.88 262.739 312.927 259.86 314.59L176.71 362.62C173.835 364.163 171.303 366.274 169.268 368.825C167.232 371.376 165.736 374.314 164.87 377.46L99.4203 357.03C93.3455 355.134 86.7661 355.727 81.129 358.681C75.492 361.634 71.2587 366.706 69.3603 372.78L64.5903 388.05C62.692 394.126 63.2848 400.708 66.2384 406.347C69.192 411.986 74.2645 416.221 80.3403 418.12L248.79 470.72C254.792 472.608 261.297 472.051 266.89 469.17L336.37 433.42C338.239 432.468 340.406 432.281 342.41 432.9L351.39 435.71L349.01 443.31C348.381 445.335 348.58 447.527 349.564 449.405C350.548 451.284 352.237 452.695 354.26 453.33L384.81 462.87C385.584 463.112 386.39 463.233 387.2 463.23C388.904 463.229 390.562 462.685 391.935 461.676C393.307 460.666 394.321 459.246 394.83 457.62L428.22 350.71C428.849 348.684 428.652 346.491 427.67 344.61V344.61ZM347.18 417.63C341.164 415.732 334.641 416.297 329.04 419.2L259.6 454.93C257.732 455.888 255.562 456.071 253.56 455.44L85.1103 402.84C83.0856 402.207 81.395 400.796 80.4105 398.917C79.426 397.038 79.2281 394.845 79.8603 392.82L84.6303 377.55C84.9408 376.546 85.4468 375.613 86.1192 374.804C86.7916 373.996 87.6172 373.329 88.5484 372.841C89.4796 372.353 90.4981 372.054 91.5453 371.961C92.5925 371.869 93.6478 371.984 94.6503 372.3L166.68 394.79C166.708 394.838 166.731 394.888 166.75 394.94L174.18 409.1C177.136 414.738 182.209 418.971 188.285 420.868C194.361 422.766 200.942 422.173 206.58 419.22L270.35 385.8C271.286 385.315 272.117 384.65 272.795 383.844C273.473 383.037 273.985 382.104 274.301 381.099C274.618 380.093 274.732 379.036 274.639 377.986C274.545 376.936 274.245 375.915 273.755 374.982C273.266 374.048 272.597 373.221 271.787 372.547C270.977 371.873 270.041 371.366 269.034 371.054C268.028 370.743 266.969 370.633 265.92 370.732C264.871 370.831 263.851 371.136 262.92 371.63L199.15 405.05C197.27 406.031 195.078 406.227 193.054 405.596C191.03 404.964 189.339 403.556 188.35 401.68L180.93 387.51C180.679 387.034 180.475 386.535 180.32 386.02C179.81 384.247 179.927 382.353 180.652 380.656C181.377 378.96 182.666 377.566 184.3 376.71C184.4 376.66 184.49 376.6 184.59 376.55L267.87 328.44C268.829 327.887 269.892 327.539 270.992 327.418C272.092 327.298 273.205 327.407 274.26 327.74L306.54 337.89L375.23 359.34L356.16 420.43L347.18 417.63ZM381.94 445.21L366.67 440.44L368.83 433.51C368.92 433.29 369.01 433.08 369.08 432.85L392.92 356.49C392.99 356.26 393.05 356.03 393.1 355.81L395.29 348.81L410.56 353.58L381.94 445.21Z" fill="#EC7623"/>
<path d="M280 56C270.507 56 261.226 58.8152 253.333 64.0895C245.439 69.3638 239.287 76.8603 235.654 85.6312C232.021 94.402 231.07 104.053 232.922 113.364C234.774 122.675 239.346 131.228 246.059 137.941C252.772 144.654 261.325 149.226 270.636 151.078C279.947 152.93 289.598 151.979 298.369 148.346C307.14 144.713 314.636 138.561 319.911 130.667C325.185 122.774 328 113.494 328 104C327.986 91.2739 322.924 79.0731 313.926 70.0744C304.927 61.0757 292.726 56.014 280 56ZM280 136C273.671 136 267.484 134.123 262.222 130.607C256.959 127.091 252.858 122.093 250.436 116.246C248.014 110.399 247.38 103.965 248.615 97.7571C249.85 91.5497 252.897 85.8479 257.373 81.3726C261.848 76.8973 267.55 73.8496 273.757 72.6149C279.965 71.3801 286.399 72.0138 292.246 74.4359C298.093 76.8579 303.091 80.9594 306.607 86.2218C310.123 91.4841 312 97.671 312 104C311.99 112.484 308.616 120.618 302.617 126.617C296.618 132.616 288.484 135.99 280 136Z" fill="#EC7623"/>
<path d="M400 216H432C434.122 216 436.157 215.157 437.657 213.657C439.157 212.157 440 210.122 440 208C440 205.878 439.157 203.843 437.657 202.343C436.157 200.843 434.122 200 432 200H416C416 197.878 415.157 195.843 413.657 194.343C412.157 192.843 410.122 192 408 192C405.878 192 403.843 192.843 402.343 194.343C400.843 195.843 400 197.878 400 200C393.635 200 387.53 202.529 383.029 207.029C378.529 211.53 376 217.635 376 224C376 230.365 378.529 236.47 383.029 240.971C387.53 245.471 393.635 248 400 248H415C419.71 248 424 251.813 424 256C423.998 258.121 423.154 260.154 421.654 261.654C420.154 263.154 418.121 263.998 416 264H384C381.878 264 379.843 264.843 378.343 266.343C376.843 267.843 376 269.878 376 272C376 274.122 376.843 276.157 378.343 277.657C379.843 279.157 381.878 280 384 280H400C400 282.122 400.843 284.157 402.343 285.657C403.843 287.157 405.878 288 408 288C410.122 288 412.157 287.157 413.657 285.657C415.157 284.157 416 282.122 416 280C422.363 279.993 428.463 277.462 432.962 272.962C437.462 268.463 439.993 262.363 440 256C440 242.99 428.552 232 415 232H400C397.878 232 395.843 231.157 394.343 229.657C392.843 228.157 392 226.122 392 224C392 221.878 392.843 219.843 394.343 218.343C395.843 216.843 397.878 216 400 216Z" fill="#EC7623"/>
<path d="M456 166.28V8C456 5.87827 455.157 3.84344 453.657 2.34315C452.157 0.842854 450.122 0 448 0H112C109.878 0 107.843 0.842854 106.343 2.34315C104.843 3.84344 104 5.87827 104 8V136H24C17.6374 136.008 11.5378 138.54 7.03879 143.039C2.53975 147.538 0.00846654 153.637 0 160V272C0.00846654 278.363 2.53975 284.462 7.03879 288.961C11.5378 293.46 17.6374 295.992 24 296H200C206.363 295.992 212.462 293.46 216.961 288.961C221.46 284.462 223.992 278.363 224 272V208H326.02C319.961 223.499 318.421 240.399 321.578 256.738C324.735 273.078 332.46 288.187 343.857 300.314C355.254 312.441 369.855 321.088 385.967 325.252C402.079 329.416 419.042 328.927 434.887 323.841C450.733 318.755 464.811 309.281 475.49 296.517C486.169 283.754 493.01 268.225 495.22 251.73C497.431 235.236 494.919 218.454 487.977 203.329C481.035 188.204 469.947 175.358 456 166.28V166.28ZM120 16H440V158.02C429.803 154.033 418.949 151.992 408 152C406.21 152 404.43 152.06 402.67 152.17C408.532 146.915 416.127 144.006 424 144C426.122 144 428.157 143.157 429.657 141.657C431.157 140.157 432 138.122 432 136V72C432 69.8783 431.157 67.8434 429.657 66.3431C428.157 64.8429 426.122 64 424 64C415.516 63.9889 407.384 60.6139 401.385 54.6151C395.386 48.6164 392.011 40.4835 392 32C392 29.8783 391.157 27.8434 389.657 26.3431C388.157 24.8429 386.122 24 384 24H176C173.878 24 171.843 24.8429 170.343 26.3431C168.843 27.8434 168 29.8783 168 32C167.989 40.4835 164.614 48.6164 158.615 54.6151C152.616 60.6139 144.484 63.9889 136 64C133.878 64 131.843 64.8429 130.343 66.3431C128.843 67.8434 128 69.8783 128 72V136H120V16ZM208 272C207.997 274.121 207.153 276.154 205.654 277.654C204.154 279.153 202.121 279.997 200 280H24C21.8792 279.997 19.846 279.153 18.3464 277.654C16.8467 276.154 16.0029 274.121 16 272V216H208V272ZM208 200H16V184H208V200ZM208 168H16V160C16.0029 157.879 16.8467 155.846 18.3464 154.346C19.846 152.847 21.8792 152.003 24 152H200C202.121 152.003 204.154 152.847 205.654 154.346C207.153 155.846 207.997 157.879 208 160V168ZM200 136H162.53C156.942 132.27 150.627 129.768 144 128.66V79.33C153.821 77.6529 162.879 72.9686 169.924 65.9237C176.969 58.8789 181.653 49.8208 183.33 40H376.67C378.347 49.8208 383.031 58.8789 390.076 65.9237C397.121 72.9686 406.179 77.6529 416 79.33V128.67C408.189 129.992 400.826 133.227 394.569 138.087C388.312 142.946 383.355 149.279 380.14 156.52C372.063 159.227 364.423 163.094 357.46 168H224V160C223.992 153.637 221.46 147.538 216.961 143.039C212.462 138.54 206.363 136.008 200 136V136ZM224 192V184H340.17C338.059 186.555 336.093 189.226 334.28 192H224ZM408 312C393.76 312 379.839 307.777 367.999 299.866C356.159 291.954 346.93 280.709 341.481 267.553C336.031 254.397 334.605 239.92 337.383 225.953C340.162 211.987 347.019 199.158 357.088 189.088C367.158 179.019 379.987 172.162 393.953 169.383C407.92 166.605 422.397 168.031 435.553 173.481C448.709 178.93 459.954 188.159 467.866 199.999C475.777 211.839 480 225.76 480 240C479.978 259.089 472.385 277.39 458.887 290.887C445.39 304.385 427.089 311.978 408 312V312Z" fill="#EC7623"/>
</svg>
