<svg width="512" height="512" viewBox="0 0 512 512" fill="none" xmlns="http://www.w3.org/2000/svg">
<path d="M56 144V368H377.61C376.535 362.735 375.995 357.374 376 352C376 349.3 376.13 346.633 376.39 344H120C120 333.391 115.786 323.217 108.284 315.716C100.783 308.214 90.6087 304 80 304V208C90.6087 208 100.783 203.786 108.284 196.284C115.786 188.783 120 178.609 120 168H392C392 178.609 396.214 188.783 403.716 196.284C411.217 203.786 421.391 208 432 208V275.67C439.766 273.228 447.859 271.99 456 272V144H56Z" fill="white"/>
<path d="M256 304C282.51 304 304 282.51 304 256C304 229.49 282.51 208 256 208C229.49 208 208 229.49 208 256C208 282.51 229.49 304 256 304Z" fill="white"/>
<path d="M256 200C244.924 200 234.097 203.284 224.888 209.438C215.679 215.591 208.501 224.337 204.263 234.57C200.024 244.802 198.915 256.062 201.076 266.925C203.237 277.788 208.57 287.766 216.402 295.598C224.234 303.43 234.212 308.763 245.075 310.924C255.938 313.085 267.198 311.976 277.43 307.737C287.663 303.499 296.409 296.321 302.562 287.112C308.716 277.903 312 267.076 312 256C311.983 241.153 306.078 226.919 295.58 216.42C285.081 205.922 270.847 200.017 256 200ZM256 296C248.089 296 240.355 293.654 233.777 289.259C227.199 284.864 222.072 278.616 219.045 271.307C216.017 263.998 215.225 255.956 216.769 248.196C218.312 240.437 222.122 233.31 227.716 227.716C233.31 222.122 240.437 218.312 248.196 216.769C255.956 215.225 263.998 216.017 271.307 219.045C278.616 222.072 284.864 227.199 289.259 233.777C293.654 240.355 296 248.089 296 256C295.988 266.605 291.77 276.772 284.271 284.271C276.772 291.77 266.605 295.988 256 296V296Z" fill="#EC7623"/>
<path d="M64 360V152H448V264.37C445.3 264.61 442.63 264.98 440 265.46V208C440 205.878 439.157 203.843 437.657 202.343C436.157 200.843 434.122 200 432 200C423.516 199.99 415.382 196.616 409.383 190.617C403.384 184.618 400.01 176.484 400 168C400 165.878 399.157 163.843 397.657 162.343C396.157 160.843 394.122 160 392 160H120C117.878 160 115.843 160.843 114.343 162.343C112.843 163.843 112 165.878 112 168C111.992 176.484 108.618 184.619 102.619 190.619C96.6192 196.618 88.4845 199.992 80 200C77.8783 200 75.8434 200.843 74.3431 202.343C72.8429 203.843 72 205.878 72 208V304C72 306.122 72.8429 308.157 74.3431 309.657C75.8434 311.157 77.8783 312 80 312C88.4845 312.008 96.6192 315.382 102.619 321.381C108.618 327.381 111.992 335.516 112 344C112 346.122 112.843 348.157 114.343 349.657C115.843 351.157 117.878 352 120 352H368C368 354.7 368.13 357.36 368.37 360H64ZM369.46 336H248.395H127.33C125.653 326.179 120.969 317.121 113.924 310.076C106.879 303.031 97.8208 298.347 88 296.67V215.33C97.8208 213.653 106.879 208.969 113.924 201.924C120.969 194.879 125.653 185.821 127.33 176H384.67C386.347 185.821 391.031 194.879 398.076 201.924C405.121 208.969 414.179 213.653 424 215.33V270.02C410.062 275.493 397.744 284.42 388.203 295.962C378.663 307.503 372.213 321.281 369.46 336Z" fill="#EC7623"/>
<path d="M456 144V368H134.39C135.465 362.735 136.005 357.374 136 352C136 349.3 135.87 346.633 135.61 344H392C392 333.391 396.214 323.217 403.716 315.716C411.217 308.214 421.391 304 432 304V208C421.391 208 411.217 203.786 403.716 196.284C396.214 188.783 392 178.609 392 168H120C120 178.609 115.786 188.783 108.284 196.284C100.783 203.786 90.6087 208 80 208V275.67C72.2345 273.228 64.1405 271.99 56 272V144H456Z" fill="white"/>
<path d="M256 304C229.49 304 208 282.51 208 256C208 229.49 229.49 208 256 208C282.51 208 304 229.49 304 256C304 282.51 282.51 304 256 304Z" fill="white"/>
<path d="M256 200C267.076 200 277.903 203.284 287.112 209.438C296.321 215.591 303.499 224.337 307.737 234.57C311.976 244.802 313.085 256.062 310.924 266.925C308.763 277.788 303.43 287.766 295.598 295.598C287.766 303.43 277.788 308.763 266.925 310.924C256.062 313.085 244.802 311.976 234.57 307.737C224.337 303.499 215.591 296.321 209.438 287.112C203.284 277.903 200 267.076 200 256C200.017 241.153 205.922 226.919 216.42 216.42C226.919 205.922 241.153 200.017 256 200ZM256 296C263.911 296 271.645 293.654 278.223 289.259C284.801 284.864 289.928 278.616 292.955 271.307C295.983 263.998 296.775 255.956 295.231 248.196C293.688 240.437 289.878 233.31 284.284 227.716C278.69 222.122 271.563 218.312 263.804 216.769C256.044 215.225 248.002 216.017 240.693 219.045C233.384 222.072 227.136 227.199 222.741 233.777C218.346 240.355 216 248.089 216 256C216.012 266.605 220.23 276.772 227.729 284.271C235.228 291.77 245.395 295.988 256 296V296Z" fill="#EC7623"/>
<path d="M448 360V152H64V274C64 277.13 69.37 275.02 72 275.5V208C72 205.878 72.8428 203.843 74.3431 202.343C75.8434 200.843 77.8783 200 80 200C88.484 199.99 96.6178 196.616 102.617 190.617C108.616 184.618 111.99 176.484 112 168C112 165.878 112.843 163.843 114.343 162.343C115.843 160.843 117.878 160 120 160H392C394.122 160 396.157 160.843 397.657 162.343C399.157 163.843 400 165.878 400 168C400.008 176.484 403.382 184.619 409.381 190.619C415.381 196.618 423.516 199.992 432 200C434.122 200 436.157 200.843 437.657 202.343C439.157 203.843 440 205.878 440 208V304C440 306.122 439.157 308.157 437.657 309.657C436.157 311.157 434.122 312 432 312C423.516 312.008 415.381 315.382 409.381 321.381C403.382 327.381 400.008 335.516 400 344C400 346.122 399.157 348.157 397.657 349.657C396.157 351.157 394.122 352 392 352H135.5C135.5 354.7 135.74 357.36 135.5 360H448ZM142.54 336H263.605H384.67C386.347 326.179 391.031 317.121 398.076 310.076C405.121 303.031 414.179 298.347 424 296.67V215.33C414.179 213.653 405.121 208.969 398.076 201.924C391.031 194.879 386.347 185.821 384.67 176H127.33C125.653 185.821 120.969 194.879 113.924 201.924C106.879 208.969 97.8208 213.653 88 215.33V270.02C101.938 275.493 114.256 284.42 123.797 295.962C133.337 307.503 139.787 321.281 142.54 336Z" fill="#EC7623"/>
<path d="M248 232H280C282.122 232 284.157 231.157 285.657 229.657C287.157 228.157 288 226.122 288 224C288 221.878 287.157 219.843 285.657 218.343C284.157 216.843 282.122 216 280 216H264C264 213.878 263.157 211.843 261.657 210.343C260.157 208.843 258.122 208 256 208C253.878 208 251.843 208.843 250.343 210.343C248.843 211.843 248 213.878 248 216C241.635 216 235.53 218.529 231.029 223.029C226.529 227.53 224 233.635 224 240C224 246.365 226.529 252.47 231.029 256.971C235.53 261.471 241.635 264 248 264H263C267.71 264 272 267.813 272 272C271.998 274.121 271.154 276.154 269.654 277.654C268.154 279.154 266.121 279.998 264 280H232C229.878 280 227.843 280.843 226.343 282.343C224.843 283.843 224 285.878 224 288C224 290.122 224.843 292.157 226.343 293.657C227.843 295.157 229.878 296 232 296H248C248 298.122 248.843 300.157 250.343 301.657C251.843 303.157 253.878 304 256 304C258.122 304 260.157 303.157 261.657 301.657C263.157 300.157 264 298.122 264 296C270.363 295.993 276.463 293.462 280.962 288.962C285.462 284.463 287.993 278.363 288 272C288 258.99 276.552 248 263 248H248C245.878 248 243.843 247.157 242.343 245.657C240.843 244.157 240 242.122 240 240C240 237.878 240.843 235.843 242.343 234.343C243.843 232.843 245.878 232 248 232Z" fill="white"/>
<rect x="42" y="50.8525" width="19.5901" height="599.409" rx="9.79506" transform="rotate(-45 42 50.8525)" fill="#23EC43"/>
</svg>
