<svg width="504" height="218" viewBox="0 0 504 218" fill="none" xmlns="http://www.w3.org/2000/svg">
<path d="M33.5804 93.4811C33.5804 93.4811 33.5804 93.3027 34.1134 92.5892C34.6464 91.8757 34.4687 91.3405 34.1134 90.9838C33.9357 90.8054 28.7832 87.773 28.7832 87.773C28.4279 87.5946 28.2502 87.0595 28.2502 86.7027C28.2502 85.9892 28.7832 85.4541 29.6716 85.0973C32.8697 84.2054 44.4185 83.6703 48.3273 83.6703H53.6575H53.8351C48.1496 78.8541 40.865 76 32.8697 76C14.9247 76 0.355469 90.627 0.355469 108.643C0.355469 116.492 3.19824 123.805 7.81775 129.514C11.9042 123.449 22.0316 109.178 24.1637 106.146C26.8288 102.222 33.5804 93.4811 33.5804 93.4811Z" fill="#E00A1E"/>
<path d="M62.7186 95.6215C64.3177 94.0161 65.3837 92.5891 65.206 91.3404C65.0284 87.9512 60.9419 85.2755 60.9419 85.2755C60.9419 85.2755 60.9419 85.2755 60.7642 85.0972C60.9419 85.2755 61.1196 85.4539 61.2972 85.8107C62.3633 88.308 60.5865 89.9134 59.5205 90.9837C58.9875 91.5188 50.6368 99.3674 40.8648 107.93C32.3365 115.421 22.7421 123.092 17.0566 127.373C9.23895 133.259 7.63989 134.151 7.63989 134.151C7.46222 134.33 7.10687 134.33 6.75153 134.33C6.21851 134.33 5.86316 133.973 5.50781 133.616C5.50781 133.794 5.50781 134.33 6.21851 135.221L6.57385 135.578C7.10687 136.113 7.81757 137.005 8.88361 137.719C10.4827 139.146 11.1934 138.432 14.5692 135.935C19.7217 139.324 25.9402 141.465 32.6918 141.465C50.6368 141.465 65.206 126.838 65.206 108.821C65.5614 104.005 64.4954 99.5458 62.7186 95.6215Z" fill="#E00A1E"/>
<path fill-rule="evenodd" clip-rule="evenodd" d="M34.1136 92.5888C34.6467 91.8753 34.469 91.3402 34.1136 90.9834C33.936 90.8051 28.7834 87.7726 28.7834 87.7726C28.4281 87.5942 28.2504 87.0591 28.2504 86.7024C28.2504 85.9888 28.7834 85.4537 29.6718 85.0969C32.8699 84.2051 44.4187 83.6699 48.3275 83.6699C50.1042 83.6699 53.8354 83.6699 56.1451 83.8483C58.8102 84.0267 60.9423 84.5618 61.2977 85.8105C62.3637 88.3078 60.587 89.9132 59.5209 90.9834C58.9879 91.5186 50.6373 99.3672 40.8652 107.929C32.3369 115.421 22.7426 123.092 17.057 127.373C9.23938 133.259 7.64032 134.151 7.64032 134.151C7.46265 134.329 7.1073 134.329 6.75195 134.329C5.86359 134.329 5.33057 133.794 5.33057 132.902C5.33057 132.546 5.50824 132.367 5.50824 132.01C5.50824 132.01 20.9658 109.713 23.6309 105.967C26.4737 102.221 33.2253 93.4807 33.2253 93.4807C33.2253 93.4807 33.5806 93.3024 34.1136 92.5888Z" fill="white"/>
<path d="M113.356 81.8867V122.735C113.356 131.654 105.538 138.611 95.0557 138.611C84.7507 138.611 76.7554 131.833 76.7554 122.735V91.5192C76.7554 86.1678 81.0195 81.8867 86.1721 81.8867H86.8828V122.735C86.8828 127.552 91.1469 130.584 95.4111 130.584C99.4976 130.584 103.762 127.908 103.762 122.735V90.984C103.762 85.9894 107.848 81.8867 112.823 81.8867H113.356Z" fill="#212121"/>
<path d="M133.433 96.335C147.291 96.335 149.424 104.184 149.424 108.821V137.897H149.068C143.916 137.897 139.652 133.616 139.652 128.443V108.821C139.652 106.146 138.585 102.757 133.078 102.757C130.59 102.757 128.991 103.113 127.392 103.648V137.719H117.442V99.189C121.707 97.4052 128.636 96.335 133.433 96.335Z" fill="#212121"/>
<path d="M158.84 81.8867C161.861 81.8867 164.17 84.2056 164.17 86.8813C164.17 89.557 161.861 91.6975 158.84 91.6975C155.82 91.6975 153.51 89.557 153.51 86.8813C153.332 84.0273 155.82 81.8867 158.84 81.8867ZM163.637 96.3354V128.622C163.637 133.795 159.551 138.076 154.221 138.076H153.865V96.3354H163.637Z" fill="#212121"/>
<path d="M191.888 80.9951C196.507 80.9951 200.949 82.0654 204.502 84.2059V94.0167C202.193 91.1627 199.172 89.0221 194.02 89.0221C183.892 89.0221 177.674 99.0113 177.674 109.357C177.674 119.168 184.248 129.692 194.02 129.692C198.284 129.692 202.193 128.444 204.502 125.233V134.865C201.66 137.006 197.04 138.255 191.71 138.255C175.719 138.255 167.191 123.449 167.191 109.357C167.369 95.6221 175.897 80.9951 191.888 80.9951Z" fill="#212121"/>
<path d="M222.092 96.335C223.691 96.335 225.823 96.5133 227.6 96.6917V104.719C224.224 102.221 219.604 103.113 217.65 104.184V128.621C217.65 133.794 213.386 138.076 208.233 138.076H207.878V99.5458C211.787 97.5836 215.696 96.335 222.092 96.335Z" fill="#212121"/>
<path d="M262.068 117.562L237.371 120.951C238.26 127.73 241.635 131.297 247.854 131.297C254.783 131.297 258.159 128.978 260.824 127.195V135.4C258.337 136.827 253.717 138.432 246.966 138.432C234.884 138.432 227.777 130.227 227.777 117.205C227.777 104.541 234.528 96.1567 245.367 96.1567C256.205 96.1567 262.245 103.292 262.245 115.957V117.562H262.068ZM253.54 111.854C253.184 103.649 248.209 102.757 245.367 102.757H245.011C239.503 102.935 236.838 106.859 236.838 114.173L253.54 111.854Z" fill="#212121"/>
<path d="M297.603 81.8867V137.541C295.293 138.076 287.476 138.611 284.278 138.611H283.567C271.485 138.433 264.911 131.476 264.911 118.989C264.911 106.325 271.84 98.1192 282.501 98.1192C284.633 98.1192 286.41 98.2975 287.831 98.6543V91.5192C287.831 86.3462 291.917 82.0651 297.248 82.0651H297.603V81.8867ZM288.009 104.362C286.943 104.006 285.877 104.006 284.633 104.006C276.46 104.006 274.861 111.854 274.861 118.454C274.861 127.552 277.881 132.189 284.1 132.189C285.166 132.189 287.476 132.011 288.186 131.833V104.362H288.009Z" fill="#212121"/>
<path d="M307.197 81.8867C310.218 81.8867 312.527 84.2056 312.527 86.8813C312.527 89.557 310.218 91.6975 307.197 91.6975C304.177 91.6975 301.867 89.557 301.867 86.8813C301.689 84.0273 304.177 81.8867 307.197 81.8867ZM311.994 96.3354V128.622C311.994 133.795 307.908 138.076 302.578 138.076H302.222V96.3354H311.994Z" fill="#212121"/>
<path d="M329.406 81.8867V96.3354H335.803V104.362H329.406V126.481C329.406 129.157 330.295 130.049 333.137 130.049C333.848 130.049 334.914 129.871 335.803 129.514V137.719C335.447 137.898 333.493 138.611 330.828 138.611C323.543 138.611 319.634 135.043 319.634 128.622V104.362H315.37V96.3354H319.634V91.3408C319.634 86.1678 323.721 81.8867 328.873 81.8867H329.406Z" fill="#212121"/>
<path d="M381.287 107.573V107.751C386.617 108.821 393.902 113.459 393.902 121.665C393.902 132.903 385.018 137.719 371.87 137.719C359.433 137.719 354.813 137.54 354.813 137.54V83.8485C358.367 82.0647 364.23 80.6377 371.159 80.6377C385.018 80.6377 391.947 86.7026 391.947 94.908C392.125 102.935 386.262 106.503 381.287 107.573ZM381.82 95.7999C381.82 89.5566 378.266 86.7026 371.337 86.7026C368.85 86.7026 366.895 87.0593 364.941 87.5945V105.254H368.139C378.444 105.789 381.82 102.578 381.82 95.7999ZM368.139 110.605H364.941V131.476H371.692C378.444 131.476 383.419 128.8 383.419 121.665C383.419 113.816 378.977 110.249 368.139 110.605Z" fill="#212121"/>
<path d="M418.42 111.676V109C418.42 103.649 415.222 102.222 410.425 102.222C406.516 102.222 402.607 103.649 398.166 105.968V99.3675C400.831 98.1189 405.628 96.1567 412.024 96.1567C420.375 96.1567 427.482 100.438 427.482 110.784V137.362C424.817 137.897 418.42 138.432 414.512 138.432H412.379C401.364 138.432 395.678 133.795 395.678 125.946C395.678 115.243 405.983 112.746 418.42 111.676ZM418.42 116.135C409.714 117.027 404.384 118.811 404.384 125.768C404.384 130.941 407.582 133.259 412.913 133.259C415.045 133.259 417.532 133.081 418.42 132.903V116.135Z" fill="#212121"/>
<path d="M447.559 96.1567C461.418 96.1567 463.728 104.005 463.728 108.643V137.897H463.372C458.22 137.897 453.778 133.616 453.778 128.443V108.822C453.778 106.146 452.712 102.757 447.204 102.757C444.717 102.757 443.118 103.113 441.519 103.649V137.897H431.569V99.1892C435.833 97.4054 442.762 96.1567 447.559 96.1567Z" fill="#212121"/>
<path d="M477.941 128.265C477.941 133.616 473.854 137.897 468.169 137.897V91.3404C468.169 85.9891 472.255 81.708 477.941 81.708V115.6L490.2 97.2269H499.439L486.825 115.778L501.749 137.897H491.266L477.941 117.205V128.265Z" fill="#212121"/>
</svg>
