<svg width="504" height="218" viewBox="0 0 504 218" fill="none" xmlns="http://www.w3.org/2000/svg">
<g clip-path="url(#clip0)">
<path d="M162.44 217.649V203.196C162.44 197.656 159.068 194.043 153.287 194.043C150.396 194.043 147.265 195.006 145.097 198.138C143.411 195.488 141.002 194.043 137.389 194.043C134.98 194.043 132.571 194.766 130.644 197.415V194.525H125.585V217.649H130.644V204.883C130.644 200.788 132.812 198.86 136.184 198.86C139.557 198.86 141.243 201.028 141.243 204.883V217.649H146.301V204.883C146.301 200.788 148.71 198.86 151.842 198.86C155.214 198.86 156.9 201.028 156.9 204.883V217.649H162.44V217.649ZM237.355 194.525H229.165V187.539H224.106V194.525H219.53V199.101H224.106V209.7C224.106 215 226.274 218.131 232.055 218.131C234.223 218.131 236.632 217.408 238.318 216.445L236.873 212.109C235.428 213.073 233.742 213.313 232.537 213.313C230.128 213.313 229.165 211.868 229.165 209.459V199.101H237.355V194.525V194.525ZM280.232 194.043C277.341 194.043 275.414 195.488 274.21 197.415V194.525H269.151V217.649H274.21V204.642C274.21 200.788 275.896 198.62 279.027 198.62C279.991 198.62 281.195 198.86 282.159 199.101L283.604 194.284C282.641 194.043 281.195 194.043 280.232 194.043V194.043ZM215.435 196.452C213.026 194.765 209.653 194.043 206.04 194.043C200.259 194.043 196.405 196.933 196.405 201.51C196.405 205.364 199.295 207.532 204.354 208.255L206.763 208.496C209.412 208.978 210.858 209.7 210.858 210.905C210.858 212.591 208.931 213.795 205.558 213.795C202.186 213.795 199.536 212.591 197.85 211.386L195.441 215.24C198.091 217.168 201.704 218.131 205.318 218.131C212.062 218.131 215.916 215 215.916 210.664C215.916 206.569 212.785 204.401 207.967 203.678L205.558 203.437C203.39 203.196 201.704 202.715 201.704 201.269C201.704 199.583 203.39 198.62 206.04 198.62C208.931 198.62 211.821 199.824 213.267 200.547L215.435 196.452V196.452ZM349.847 194.043C346.956 194.043 345.029 195.488 343.825 197.415V194.525H338.766V217.649H343.825V204.642C343.825 200.788 345.511 198.62 348.643 198.62C349.606 198.62 350.81 198.86 351.774 199.101L353.219 194.284C352.256 194.043 350.81 194.043 349.847 194.043V194.043ZM285.29 206.087C285.29 213.073 290.108 218.131 297.575 218.131C300.948 218.131 303.357 217.408 305.765 215.481L303.357 211.386C301.43 212.832 299.502 213.554 297.335 213.554C293.24 213.554 290.349 210.664 290.349 206.087C290.349 201.751 293.24 198.861 297.335 198.62C299.502 198.62 301.43 199.342 303.357 200.788L305.765 196.693C303.357 194.765 300.948 194.043 297.575 194.043C290.108 194.043 285.29 199.101 285.29 206.087V206.087ZM332.022 206.087V194.525H326.963V197.415C325.277 195.247 322.868 194.043 319.737 194.043C313.233 194.043 308.174 199.101 308.174 206.087C308.174 213.073 313.233 218.131 319.737 218.131C323.109 218.131 325.518 216.927 326.963 214.759V217.649H332.022V206.087ZM313.474 206.087C313.474 201.992 316.123 198.62 320.459 198.62C324.554 198.62 327.445 201.751 327.445 206.087C327.445 210.182 324.554 213.554 320.459 213.554C316.123 213.313 313.474 210.182 313.474 206.087ZM253.012 194.043C246.267 194.043 241.45 198.86 241.45 206.087C241.45 213.313 246.268 218.131 253.253 218.131C256.625 218.131 259.998 217.168 262.647 215L260.239 211.386C258.312 212.832 255.903 213.795 253.494 213.795C250.363 213.795 247.231 212.35 246.508 208.255H263.611V206.328C263.852 198.86 259.516 194.043 253.012 194.043V194.043ZM253.012 198.379C256.144 198.379 258.312 200.306 258.793 203.919H246.749C247.231 200.788 249.399 198.379 253.012 198.379ZM378.512 206.087V185.371H373.453V197.415C371.767 195.247 369.358 194.043 366.227 194.043C359.723 194.043 354.665 199.101 354.665 206.087C354.665 213.073 359.723 218.131 366.227 218.131C369.599 218.131 372.008 216.927 373.453 214.759V217.649H378.512V206.087ZM359.964 206.087C359.964 201.992 362.614 198.62 366.95 198.62C371.045 198.62 373.935 201.751 373.935 206.087C373.935 210.182 371.045 213.554 366.95 213.554C362.614 213.313 359.964 210.182 359.964 206.087ZM190.865 206.087V194.525H185.806V197.415C184.12 195.247 181.711 194.043 178.58 194.043C172.076 194.043 167.017 199.101 167.017 206.087C167.017 213.073 172.076 218.131 178.58 218.131C181.952 218.131 184.361 216.927 185.806 214.759V217.649H190.865V206.087ZM172.076 206.087C172.076 201.992 174.725 198.62 179.061 198.62C183.156 198.62 186.047 201.751 186.047 206.087C186.047 210.182 183.156 213.554 179.061 213.554C174.725 213.313 172.076 210.182 172.076 206.087Z" fill="black"/>
<path d="M289.626 18.9214H213.748V155.261H289.626V18.9214Z" fill="#FF5F00"/>
<path d="M218.566 87.0907C218.566 59.3892 231.573 34.8193 251.567 18.921C236.873 7.35866 218.325 0.373047 198.091 0.373047C150.155 0.373047 111.373 39.1551 111.373 87.0907C111.373 135.026 150.155 173.808 198.091 173.808C218.325 173.808 236.873 166.823 251.567 155.26C231.573 139.603 218.566 114.792 218.566 87.0907Z" fill="#EB001B"/>
<path d="M392.001 87.0907C392.001 135.026 353.219 173.808 305.284 173.808C285.049 173.808 266.501 166.823 251.808 155.26C272.042 139.362 284.809 114.792 284.809 87.0907C284.809 59.3892 271.801 34.8193 251.808 18.921C266.501 7.35866 285.049 0.373047 305.284 0.373047C353.219 0.373047 392.001 39.396 392.001 87.0907Z" fill="#F79E1B"/>
</g>
<defs>
<clipPath id="clip0">
<rect width="504" height="218" fill="white"/>
</clipPath>
</defs>
</svg>
