<svg width="504" height="130" viewBox="0 0 504 130" fill="none" xmlns="http://www.w3.org/2000/svg">
<path d="M389.6 34.2002H362.4C360.8 34.2002 359.2 35.8002 358.4 37.4002L347.2 107.8C347.2 109.4 348 110.2 349.6 110.2H364C365.6 110.2 366.4 109.4 366.4 107.8L369.6 87.8002C369.6 86.2002 371.2 84.6002 373.6 84.6002H382.4C400.8 84.6002 411.2 75.8002 413.6 58.2002C415.2 51.0002 413.6 44.6002 410.4 40.6002C405.6 36.6002 398.4 34.2002 389.6 34.2002ZM392.8 60.6002C391.2 70.2002 384 70.2002 376.8 70.2002H372L375.2 51.8002C375.2 51.0002 376 50.2002 377.6 50.2002H379.2C384 50.2002 388.8 50.2002 391.2 53.4002C392.8 54.2002 392.8 56.6002 392.8 60.6002Z" fill="#139AD6"/>
<path d="M193.6 34.2002H166.4C164.8 34.2002 163.2 35.8002 162.4 37.4002L151.2 107.8C151.2 109.4 152 110.2 153.6 110.2H166.4C168 110.2 169.6 108.6 170.4 107L173.6 87.8002C173.6 86.2002 175.2 84.6002 177.6 84.6002H186.4C204.8 84.6002 215.2 75.8002 217.6 58.2002C219.2 51.0002 217.6 44.6002 214.4 40.6002C209.6 36.6002 203.2 34.2002 193.6 34.2002ZM196.8 60.6002C195.2 70.2002 188 70.2002 180.8 70.2002H176.8L180 51.8002C180 51.0002 180.8 50.2002 182.4 50.2002H184C188.8 50.2002 193.6 50.2002 196 53.4002C196.8 54.2002 197.6 56.6002 196.8 60.6002Z" fill="#263B80"/>
<path d="M276 59.8002H263.2C262.4 59.8002 260.8 60.6002 260.8 61.4002L260 65.4002L259.2 63.8002C256 59.8002 250.4 58.2002 244 58.2002C229.6 58.2002 216.8 69.4002 214.4 84.6002C212.8 92.6002 215.2 99.8002 219.2 104.6C223.2 109.4 228.8 111 236 111C248 111 254.4 103.8 254.4 103.8L253.6 107.8C253.6 109.4 254.4 110.2 256 110.2H268C269.6 110.2 271.2 108.6 272 107L279.2 62.2002C278.4 61.4002 276.8 59.8002 276 59.8002ZM257.6 85.4002C256 92.6002 250.4 98.2002 242.4 98.2002C238.4 98.2002 235.2 96.6002 233.6 95.0002C232 92.6002 231.2 89.4002 231.2 85.4002C232 78.2002 238.4 72.6002 245.6 72.6002C249.6 72.6002 252 74.2002 254.4 75.8002C256.8 78.2002 257.6 82.2002 257.6 85.4002Z" fill="#263B80"/>
<path d="M471.2 59.8002H458.4C457.6 59.8002 456 60.6002 456 61.4002L455.2 65.4002L454.4 63.8002C451.2 59.8002 445.6 58.2002 439.2 58.2002C424.8 58.2002 412 69.4002 409.6 84.6002C408 92.6002 410.4 99.8002 414.4 104.6C418.4 109.4 424 111 431.2 111C443.2 111 449.6 103.8 449.6 103.8L448.8 107.8C448.8 109.4 449.6 110.2 451.2 110.2H463.2C464.8 110.2 466.4 108.6 467.2 107L474.4 62.2002C473.6 61.4002 472.8 59.8002 471.2 59.8002ZM452.8 85.4002C451.2 92.6002 445.6 98.2002 437.6 98.2002C433.6 98.2002 430.4 96.6002 428.8 95.0002C427.2 92.6002 426.4 89.4002 426.4 85.4002C427.2 78.2002 433.6 72.6002 440.8 72.6002C444.8 72.6002 447.2 74.2002 449.6 75.8002C452.8 78.2002 453.6 82.2002 452.8 85.4002Z" fill="#139AD6"/>
<path d="M345.6 59.7998H332C330.4 59.7998 329.6 60.5998 328.8 61.3998L311.2 88.5998L303.2 62.9998C302.4 61.3998 301.6 60.5998 299.2 60.5998H286.4C284.8 60.5998 284 62.1998 284 63.7998L298.4 106.2L284.8 125.4C284 127 284.8 129.4 286.4 129.4H299.2C300.8 129.4 301.6 128.6 302.4 127.8L346.4 64.5998C348.8 62.1998 347.2 59.7998 345.6 59.7998Z" fill="#263B80"/>
<path d="M486.4 36.5999L475.2 108.6C475.2 110.2 476 111 477.6 111H488.8C490.4 111 492 109.4 492.8 107.8L504 37.3999C504 35.7999 503.2 34.9999 501.6 34.9999H488.8C488 34.1999 487.2 34.9999 486.4 36.5999Z" fill="#139AD6"/>
<path d="M92 10.2001C86.4 3.80009 76 0.600098 61.6 0.600098H21.6C19.2 0.600098 16.8 3.00009 16 5.40009L0 110.2C0 112.6 1.6 114.2 3.2 114.2H28L34.4 75.0001V76.6001C35.2 74.2001 37.6 71.8001 40 71.8001H52C75.2 71.8001 92.8 62.2001 98.4 35.8001C98.4 35.0001 98.4 34.2001 98.4 33.4001C97.6 33.4001 97.6 33.4001 98.4 33.4001C99.2 23.0001 97.6 16.6001 92 10.2001Z" fill="#263B80"/>
<path d="M97.6001 33.3999C97.6001 34.1999 97.6001 34.9999 97.6001 35.7999C92.0001 62.9999 74.4001 71.7999 51.2001 71.7999H39.2001C36.8001 71.7999 34.4001 74.1999 33.6001 76.5999L25.6001 125.4C25.6001 127 26.4001 128.6 28.8001 128.6H49.6001C52.0001 128.6 54.4001 127 54.4001 124.6V123.8L58.4001 98.9999V97.3999C58.4001 94.9999 60.8001 93.3999 63.2001 93.3999H66.4001C86.4001 93.3999 102.4 85.3999 106.4 61.3999C108 51.7999 107.2 42.9999 102.4 37.3999C101.6 35.7999 100 34.1999 97.6001 33.3999Z" fill="#139AD6"/>
<path d="M91.9999 31.0001C91.1999 31.0001 90.3999 30.2001 89.5999 30.2001C88.7999 30.2001 87.9999 30.2001 87.1999 29.4001C83.9999 28.6001 80.7999 28.6001 76.7999 28.6001H45.5999C44.7999 28.6001 43.9999 28.6001 43.1999 29.4001C41.5999 30.2001 40.7999 31.8001 40.7999 33.4001L34.3999 75.0001V76.6001C35.1999 74.2001 37.5999 71.8001 39.9999 71.8001H51.9999C75.1999 71.8001 92.7999 62.2001 98.3999 35.8001C98.3999 35.0001 98.3999 34.2001 99.1999 33.4001C97.5999 32.6001 96.7999 31.8001 95.1999 31.8001C92.7999 31.0001 92.7999 31.0001 91.9999 31.0001Z" fill="#232C65"/>
</svg>
