<svg width="512" height="512" viewBox="0 0 512 512" fill="none" xmlns="http://www.w3.org/2000/svg">
<path d="M320 272H344V352H320V272Z" fill="white"/>
<path d="M376 272H400V352H376V272Z" fill="white"/>
<path d="M476 16H408L400 40H320L312 16H244C241.373 15.9992 238.772 16.516 236.345 17.5208C233.919 18.5256 231.713 19.9988 229.856 21.8561C227.999 23.7134 226.526 25.9185 225.521 28.3454C224.516 30.7723 223.999 33.3733 224 36V476C223.999 478.627 224.516 481.228 225.521 483.655C226.526 486.081 227.999 488.287 229.856 490.144C231.713 492.001 233.919 493.474 236.345 494.479C238.772 495.484 241.373 496.001 244 496H476C478.627 496.001 481.228 495.484 483.655 494.479C486.081 493.474 488.287 492.001 490.144 490.144C492.001 488.287 493.474 486.081 494.479 483.655C495.484 481.228 496.001 478.627 496 476V36C496.001 33.3733 495.484 30.7723 494.479 28.3454C493.474 25.9185 492.001 23.7134 490.144 21.8561C488.287 19.9988 486.081 18.5256 483.655 17.5208C481.228 16.516 478.627 15.9992 476 16ZM456 272H432V352H456V376H264V352H288V272H264V256L360 200L456 256V272Z" fill="white"/>
<path d="M64 248C64 199.4 81.91 160 104 160C80.6609 160 58.2778 169.271 41.7746 185.775C25.2714 202.278 16 224.661 16 248C16 271.339 25.2714 293.722 41.7746 310.225C58.2778 326.729 80.6609 336 104 336C81.91 336 64 296.6 64 248Z" fill="white"/>
<path d="M104 160C126.09 160 144 199.4 144 248C144 296.6 126.09 336 104 336C127.339 336 149.722 326.729 166.225 310.225C182.729 293.722 192 271.339 192 248C192 224.661 182.729 202.278 166.225 185.775C149.722 169.271 127.339 160 104 160Z" fill="white"/>
<path d="M200 248C200 229.013 194.37 210.452 183.821 194.665C173.273 178.878 158.279 166.574 140.738 159.308C123.196 152.042 103.894 150.14 85.2714 153.845C66.6492 157.549 49.5436 166.692 36.1178 180.118C22.692 193.544 13.5488 210.649 9.84466 229.271C6.14048 247.894 8.0416 267.196 15.3076 284.738C22.5736 302.279 34.8782 317.272 50.6653 327.821C66.4524 338.37 85.013 344 104 344C129.452 343.971 153.853 333.848 171.851 315.851C189.848 297.853 199.971 273.452 200 248ZM112 324.953V256H135.829C135.012 275.339 131.241 293.187 125.001 306.915C121.2 315.29 116.644 321.513 112 324.953ZM112 240V171.047C116.644 174.487 121.195 180.71 125 189.085C131.24 202.813 135.011 220.661 135.828 240H112ZM96 171.047V240H72.171C72.988 220.661 76.759 202.813 82.999 189.085C86.805 180.71 91.356 174.487 96 171.047ZM96 256V324.953C91.356 321.513 86.805 315.29 83 306.915C76.759 293.187 72.988 275.339 72.171 256H96ZM135.427 321.56C136.943 318.958 138.325 316.279 139.567 313.535C146.71 297.821 150.984 277.63 151.834 256H183.6C182.148 270.231 176.915 283.815 168.445 295.343C159.974 306.87 148.574 315.922 135.427 321.56ZM183.6 240H151.834C150.984 218.37 146.71 198.179 139.567 182.465C138.325 179.721 136.943 177.043 135.427 174.44C148.574 180.078 159.974 189.13 168.445 200.657C176.915 212.185 182.148 225.769 183.6 240ZM72.573 174.44C71.0568 177.043 69.675 179.721 68.433 182.465C61.29 198.179 57.016 218.37 56.166 240H24.4C25.8522 225.769 31.0847 212.185 39.5552 200.657C48.0257 189.13 59.4257 180.078 72.573 174.44ZM24.4 256H56.166C57.016 277.63 61.29 297.821 68.433 313.535C69.675 316.279 71.0568 318.958 72.573 321.56C59.4257 315.922 48.0257 306.87 39.5552 295.343C31.0847 283.815 25.8522 270.231 24.4 256Z" fill="#EC7623"/>
<path d="M476 8H244C236.576 8.00821 229.459 10.9608 224.21 16.2101C218.961 21.4593 216.008 28.5765 216 36V47.4C214.57 47.35 213.13 47.32 211.68 47.32C185.545 47.239 160.111 55.7685 139.31 71.59C118.951 87.048 104.016 108.562 96.6499 133.04C96.3505 134.047 96.2524 135.104 96.3612 136.149C96.47 137.194 96.7837 138.207 97.2842 139.131C97.7847 140.055 98.4623 140.872 99.2783 141.534C100.094 142.196 101.033 142.691 102.04 142.99C103.047 143.289 104.103 143.387 105.149 143.279C106.194 143.17 107.207 142.856 108.131 142.356C109.055 141.855 109.871 141.178 110.534 140.362C111.196 139.546 111.69 138.607 111.99 137.6C118.378 116.387 131.324 97.7446 148.97 84.35C166.994 70.6391 189.033 63.2481 211.68 63.32C213.13 63.32 214.57 63.36 216 63.42V472.31C215.77 472.31 215.55 472.32 215.32 472.32C189.827 472.288 165.231 462.906 146.192 445.952C127.153 428.998 114.995 405.649 112.02 380.33L113.66 381.98C114.403 382.723 115.286 383.313 116.257 383.715C117.228 384.117 118.269 384.324 119.32 384.324C120.371 384.324 121.412 384.117 122.383 383.715C123.354 383.313 124.237 382.723 124.98 381.98C125.723 381.237 126.313 380.354 126.715 379.383C127.117 378.412 127.324 377.371 127.324 376.32C127.324 375.269 127.117 374.228 126.715 373.257C126.313 372.286 125.723 371.403 124.98 370.66L108.98 354.66C107.477 353.161 105.442 352.32 103.32 352.32C101.198 352.32 99.1624 353.161 97.6599 354.66L81.6599 370.66C80.9166 371.403 80.327 372.286 79.9247 373.257C79.5225 374.228 79.3154 375.269 79.3154 376.32C79.3154 377.371 79.5225 378.412 79.9247 379.383C80.327 380.354 80.9166 381.237 81.6599 381.98C82.4032 382.723 83.2856 383.313 84.2567 383.715C85.2279 384.117 86.2687 384.324 87.3199 384.324C88.371 384.324 89.4119 384.117 90.383 383.715C91.3542 383.313 92.2366 382.723 92.9799 381.98L95.8099 379.14C98.5464 408.957 112.316 436.678 134.422 456.873C156.528 477.068 185.378 488.283 215.32 488.32C216.49 488.32 217.66 488.28 218.83 488.25C221.128 492.97 224.707 496.949 229.157 499.733C233.607 502.518 238.75 503.996 244 504H476C483.423 503.992 490.541 501.039 495.79 495.79C501.039 490.541 503.992 483.424 504 476V36C503.992 28.5765 501.039 21.4593 495.79 16.2101C490.541 10.9608 483.423 8.00821 476 8ZM396.9 24L394.23 32H325.77L323.1 24H396.9ZM488 476C487.997 479.182 486.732 482.232 484.482 484.482C482.232 486.732 479.182 487.997 476 488H244C241.792 487.998 239.628 487.382 237.75 486.22C255.892 482.809 272.991 475.218 287.69 464.05C308.049 448.592 322.984 427.078 330.35 402.6C330.955 400.566 330.726 398.375 329.716 396.509C328.705 394.643 326.994 393.255 324.96 392.65C323.953 392.351 322.896 392.253 321.851 392.361C320.806 392.47 319.793 392.784 318.869 393.284C317.003 394.295 315.615 396.006 315.01 398.04C308.622 419.253 295.676 437.895 278.03 451.29C264.544 461.55 248.732 468.32 232 471V65.32C253.555 69.6513 273.188 80.6876 288.092 96.8505C302.996 113.014 312.407 133.475 314.98 155.31L313.34 153.66C312.597 152.917 311.714 152.327 310.743 151.925C309.772 151.523 308.731 151.316 307.68 151.316C306.629 151.316 305.588 151.523 304.617 151.925C303.646 152.327 302.763 152.917 302.02 153.66C301.277 154.403 300.687 155.286 300.285 156.257C299.882 157.228 299.675 158.269 299.675 159.32C299.675 160.371 299.882 161.412 300.285 162.383C300.687 163.354 301.277 164.237 302.02 164.98L318.02 180.98C319.522 182.479 321.558 183.32 323.68 183.32C325.802 183.32 327.837 182.479 329.34 180.98L345.34 164.98C346.841 163.479 347.684 161.443 347.684 159.32C347.684 157.197 346.841 155.161 345.34 153.66C343.839 152.159 341.803 151.316 339.68 151.316C337.557 151.316 335.521 152.159 334.02 153.66L331.19 156.5C328.767 130.177 317.737 105.386 299.807 85.963C281.877 66.5396 258.045 53.5663 232 49.05V36C232.003 32.8182 233.268 29.7675 235.518 27.5176C237.767 25.2678 240.818 24.0026 244 24H306.23L312.41 42.53C312.941 44.1229 313.96 45.5084 315.322 46.4902C316.684 47.4719 318.321 48.0001 320 48H400C401.679 48.0001 403.316 47.4719 404.678 46.4902C406.04 45.5084 407.059 44.1229 407.59 42.53L413.77 24H476C479.182 24.0026 482.232 25.2678 484.482 27.5176C486.732 29.7675 487.997 32.8182 488 36V476Z" fill="#EC7623"/>
<path d="M456 280C458.122 280 460.157 279.157 461.657 277.657C463.157 276.156 464 274.122 464 272V256C464.001 254.601 463.635 253.227 462.939 252.014C462.242 250.802 461.239 249.793 460.03 249.09L364.03 193.09C362.806 192.378 361.416 192.002 360 192.002C358.584 192.002 357.194 192.378 355.97 193.09L259.97 249.09C258.761 249.793 257.758 250.802 257.061 252.014C256.365 253.227 255.999 254.601 256 256V272C256 274.122 256.843 276.156 258.343 277.657C259.843 279.157 261.878 280 264 280H280V344H264C261.878 344 259.843 344.843 258.343 346.343C256.843 347.843 256 349.878 256 352V376C256 378.122 256.843 380.156 258.343 381.657C259.843 383.157 261.878 384 264 384H456C458.122 384 460.157 383.157 461.657 381.657C463.157 380.156 464 378.122 464 376V352C464 349.878 463.157 347.843 461.657 346.343C460.157 344.843 458.122 344 456 344H440V280H456ZM448 360V368H272V360H448ZM296 344V280H312V344H296ZM328 344V280H336V344H328ZM352 344V280H368V344H352ZM384 344V280H392V344H384ZM408 344V280H424V344H408ZM272 264V260.59L360 209.26L448 260.59V264H272Z" fill="#EC7623"/>
<path d="M392 464H328C325.878 464 323.843 464.843 322.343 466.343C320.843 467.843 320 469.878 320 472C320 474.122 320.843 476.157 322.343 477.657C323.843 479.157 325.878 480 328 480H392C394.122 480 396.157 479.157 397.657 477.657C399.157 476.157 400 474.122 400 472C400 469.878 399.157 467.843 397.657 466.343C396.157 464.843 394.122 464 392 464Z" fill="#EC7623"/>
</svg>
